<svg width="132" height="137" viewBox="0 0 132 137" fill="none" xmlns="http://www.w3.org/2000/svg">
<path d="M44.5666 11.4391C43.2565 11.7126 41.8273 12.8935 41.1248 14.3106L40.7793 14.9818V33.2543C40.7793 50.3956 40.7912 51.6138 40.9938 52.9562C41.3033 54.9699 41.9108 57.3938 42.4943 58.9227C43.2922 61.0359 43.3399 61.0856 44.6618 61.7071C46.8532 62.7264 51.3073 65.374 54.0584 67.3008C55.4995 68.3076 57.012 69.4636 58.5006 70.7067L59.5368 71.5768L60.9421 71.6637C62.3117 71.7632 65.9084 71.6762 66.8968 71.5271L67.397 71.44V64.6282V57.804H58.5245C52.1529 57.804 49.6519 57.7667 49.6519 57.6673C49.6519 57.3317 50.5332 55.4547 51.1287 54.5349C53.4629 50.8555 57.1311 48.8542 62.0973 48.5435C63.9076 48.4316 65.6939 48.6927 67.2184 49.3141C67.3494 49.3639 67.3852 48.1954 67.4208 43.1736C67.4685 37.2941 67.4923 36.9336 67.7305 35.9889C68.5523 32.8192 69.9338 30.9173 72.2561 29.7613C74.6142 28.5805 76.5674 28.2946 78.2944 28.8539C78.7464 29.0031 80.4502 29.8111 82.0695 30.6563C83.6895 31.5016 85.0471 32.1977 85.0824 32.1977C85.1185 32.1977 85.13 28.3195 85.1185 23.5835L85.0824 14.9818L84.7371 14.2484C84.2843 13.2913 83.3319 12.3092 82.3434 11.7997C81.6167 11.4267 81.4386 11.3895 80.5691 11.4019C79.2591 11.4267 78.1993 11.7375 75.1501 13.0054C69.4693 15.3795 67.1112 15.9514 62.9906 15.9638C58.989 15.9762 56.3331 15.3547 51.2954 13.2291C48.4014 12.0109 47.2938 11.638 46.0076 11.4515C45.5193 11.377 45.1025 11.3149 45.0906 11.3273C45.0787 11.3397 44.8405 11.3895 44.5666 11.4391ZM53.9512 27.7228C55.3804 28.0086 56.8095 29.0155 57.6313 30.3083C58.453 31.6135 58.7031 33.6893 58.2148 35.2058C57.4288 37.667 55.4399 39.1711 52.9866 39.1835C48.0084 39.196 45.5313 32.9932 49.0445 29.3263C50.3545 27.959 52.1648 27.3747 53.9512 27.7228Z" fill="#3EAEB1"/>
<path d="M75.3519 34.7455C74.3277 35.0438 73.1844 35.9637 72.5294 37.0326C71.7552 38.2881 71.791 37.3186 71.8386 56.8341C71.8744 74.4104 71.8744 74.5348 72.1364 76.2377C72.6485 79.5442 73.3511 81.881 74.554 84.28C75.5067 86.1695 76.3881 87.425 77.7579 88.8793C80.7586 92.0488 84.6886 93.9137 89.9049 94.672C91.9778 94.9697 96.3361 94.9697 98.3015 94.672C103.41 93.9014 107.019 92.2353 110.068 89.2646C112.998 86.3936 115.07 82.0921 115.868 77.2569C116.333 74.4353 116.356 72.9064 116.32 55.3175L116.285 38.3503L115.904 37.5423C115.201 36.0631 113.665 34.8201 112.284 34.6212C111.045 34.4348 109.235 34.9443 105.626 36.4858C101.612 38.2011 99.0636 38.9096 95.9792 39.1458C91.6562 39.469 88.0953 38.7977 83.0218 36.6722C79.4723 35.193 78.7939 34.9443 77.6742 34.7455C76.4714 34.5217 76.1022 34.5217 75.3519 34.7455ZM85.5106 51.0416C86.5466 51.3648 87.2849 51.8123 88.0001 52.5705C90.5243 55.2057 90.0484 59.4817 87.0232 61.5327C86.0585 62.1915 85.0578 62.4525 83.7478 62.3779C82.8314 62.3406 82.5574 62.2661 81.7946 61.8807C79.6987 60.8366 78.579 59.0093 78.579 56.6227C78.579 54.3977 79.711 52.4586 81.5928 51.4518C82.724 50.8551 84.3433 50.681 85.5106 51.0416ZM105.447 51.0167C108.401 51.8371 110.235 54.9944 109.496 57.9652C109.116 59.4941 108.294 60.675 107.031 61.5327C106.067 62.1915 105.066 62.4525 103.756 62.3779C102.839 62.3406 102.566 62.2661 101.803 61.8807C100.731 61.3463 100.076 60.7744 99.4926 59.8422C98.7896 58.7483 98.5755 57.8533 98.6231 56.3742C98.6707 54.9695 98.9446 54.1615 99.7781 53.018C101.005 51.315 103.447 50.4573 105.447 51.0167ZM107.413 76.4738C107.413 76.8343 106.567 78.624 105.924 79.6309C103.315 83.7206 98.9086 85.8211 93.4183 85.61C91.2871 85.5233 89.7384 85.2125 88.0592 84.5164C85.1652 83.3476 82.6526 80.8618 81.3303 77.9034C81.0801 77.3439 80.8422 76.7598 80.7946 76.5982L80.7233 76.3247H94.0614C104.661 76.3247 107.413 76.362 107.413 76.4738Z" fill="#3EAEB1"/>
<path d="M29.2861 61.8561C23.3552 62.2912 17.9126 64.3546 13.9705 67.661C11.6482 69.6126 10.2309 72.111 9.44489 75.6412C9.11143 77.1204 9.13523 79.6686 9.49255 80.9617C10.2667 83.7951 11.9697 85.7966 14.9352 87.363C17.067 88.4819 19.163 90.0605 20.1039 91.2662C20.747 92.0866 21.271 93.2055 21.4377 94.1502C21.6045 95.1318 21.402 96.3873 20.878 97.6428C19.4846 100.9 19.2345 101.993 19.3179 104.541C19.3655 106.021 19.425 106.543 19.687 107.463C20.4374 110.073 22.1762 112.547 24.3436 114.075C25.8085 115.108 29.2861 116.785 32.1563 117.842C36.3484 119.396 39.8736 120.142 43.6965 120.279C48.2102 120.452 52.057 119.669 55.7251 117.83C61.3226 115.02 65.0264 110.334 67.2178 103.286C68.8256 98.1401 68.8613 93.1924 67.3369 88.3077C66.527 85.6976 64.7168 82.3163 62.7517 79.743C61.6679 78.3386 58.8811 75.3926 57.3329 74.0377C53.8911 71.0172 49.4846 68.0091 44.8875 65.5479C41.3504 63.6584 38.5636 62.7014 34.9907 62.1544C33.4663 61.9182 30.5247 61.7691 29.2861 61.8561ZM37.1107 69.3888C38.0753 69.7618 39.1471 70.8929 39.5164 71.9121C39.8975 72.9563 39.8379 74.4852 39.3615 75.4299C38.7184 76.7475 37.7538 77.5305 36.3841 77.8167C33.4067 78.4507 30.7271 75.5294 31.4775 72.4715C31.8466 70.9924 32.6803 69.9855 34.0261 69.4136C34.9312 69.0159 36.1579 69.0159 37.1107 69.3888ZM22.2118 73.3789C23.4385 74.0253 24.1293 74.9451 24.4746 76.3249C25.2369 79.4575 22.4024 82.416 19.4012 81.6202C17.4242 81.0861 16.1857 79.4322 16.1857 77.3193C16.1857 75.4548 17.1265 73.988 18.7819 73.2546C19.3655 73.006 19.6156 72.9687 20.5326 73.006C21.402 73.0433 21.7236 73.1055 22.2118 73.3789ZM49.2226 75.8401C50.1396 76.1882 50.9852 77.0334 51.4615 78.0401C51.8188 78.786 51.8546 78.9848 51.8546 79.9295C51.8546 80.8742 51.8069 81.0861 51.4615 81.819C50.735 83.3608 49.3536 84.2924 47.7577 84.3055C46.7216 84.3055 46.1142 84.1313 45.3162 83.5595C42.6724 81.7069 42.8986 77.5059 45.7331 76.0142C46.8764 75.4051 47.984 75.3429 49.2226 75.8401ZM58.4881 88.6807C58.905 88.8794 59.3933 89.277 59.7625 89.6875C61.6918 91.9001 61.0725 95.2814 58.4881 96.6114C57.7855 96.9836 57.583 97.0212 56.6779 97.0212C55.7728 97.0212 55.5703 96.9836 54.8676 96.6114C53.379 95.8532 52.4976 94.4111 52.4738 92.7327C52.4619 91.7013 52.6406 91.0551 53.2003 90.1971C53.7124 89.389 54.3913 88.8418 55.2725 88.4942C56.1896 88.1458 57.5711 88.221 58.4881 88.6807ZM32.6803 98.8861C33.4782 99.1217 34.6215 99.9053 35.0979 100.539C37.5751 103.795 35.8244 108.544 31.9181 109.178C29.1908 109.613 26.6303 107.636 26.1658 104.74C25.8085 102.515 27.0233 100.142 29.0002 99.1716C30.2388 98.563 31.3107 98.4878 32.6803 98.8861Z" fill="#3EAEB1"/>
</svg>
