<svg width="500" height="500" viewBox="0 0 500 500" fill="none" xmlns="http://www.w3.org/2000/svg">
<path d="M239.521 47.6503C233.286 48.8569 226.516 51.1839 222.152 53.5109L217.698 55.9241L217.787 60.147C217.876 62.5602 219.034 69.1102 220.371 74.7124C221.707 80.4865 222.864 88.0708 222.864 91.8631L223.043 98.758L212.354 101.085C175.744 109.186 151.159 120.563 127.554 140.213C122.744 144.263 118.023 148.4 117.043 149.607C116.063 150.727 113.213 153.916 110.719 156.761C98.3377 170.809 86.5794 191.493 79.2756 212.092C76.5142 219.934 71.615 238.895 69.8335 248.893C67.2506 262.854 69.6555 261.389 49.3464 261.389H31.9766V274.748V288.106H247.093H462.208V274.748V261.389L443.769 261.217L425.242 260.958L424.53 254.925C420.701 220.538 409.833 190.459 392.909 167.447C382.576 153.313 364.227 136.593 348.282 126.596C331.003 115.823 304.814 105.222 281.743 99.7923C276.399 98.4992 271.677 97.2065 271.232 96.7759C270.431 96 271.677 87.7262 274.706 73.9368C276.577 65.5766 277.289 60.0609 277.022 56.4412C276.933 54.8036 267.046 50.5806 258.762 48.512C251.635 46.7883 245.222 46.4434 239.521 47.6503Z" fill="#3EAEB1"/>
<path d="M123.724 301.724C119.894 303.533 117.489 307.931 117.489 313.188C117.489 320.254 123.546 326.89 147.863 346.454C155.079 352.23 166.837 362.484 174.051 369.292C193.114 387.135 198.28 390.58 213.245 395.321C226.873 399.631 242.016 400.058 294.927 397.562C318.174 396.529 333.497 397.474 337.683 400.321C342.581 403.682 356.209 414.197 363.782 420.401C367.7 423.591 372.421 427.208 374.293 428.416L377.767 430.657L381.417 426.693C384.981 422.901 387.92 420.401 397.632 412.646C400.034 410.748 403.064 408.248 404.31 407.044C405.648 405.836 408.674 403.336 410.992 401.442C421.769 392.905 430.678 384.288 431.568 381.704C432.015 380.325 429.784 377.828 421.144 369.551C415.091 363.777 404.132 353.005 396.829 345.591C383.913 332.492 373.759 323.96 366.453 320.168C360.308 316.977 356.389 315.773 346.145 313.79C336.346 311.807 334.921 311.807 277.824 311.807H219.48L213.067 313.877C204.159 316.633 203.803 317.238 204.07 326.89C204.337 334.301 204.515 334.993 206.564 336.542C210.662 339.474 217.876 339.903 242.283 338.869C268.115 337.749 278.18 338.525 283.436 341.886C286.91 344.126 287.8 348.437 285.307 351.109C280.763 355.935 255.823 358.691 231.238 357.055C210.216 355.674 202.734 353.52 189.194 344.731C184.028 341.37 168.974 327.234 159.799 317.064C153.743 310.429 143.499 302.931 138.332 301.38C132.721 299.741 127.465 299.828 123.724 301.724Z" fill="#3EAEB1"/>
</svg>
