<svg width="132" height="137" viewBox="0 0 132 137" fill="none" xmlns="http://www.w3.org/2000/svg">
<path d="M50.8514 14.8202C49.9475 15.6303 49.7305 16.084 49.7305 17.218C49.7305 18.417 49.9475 18.8382 50.996 19.8103C52.6953 21.3008 54.5392 21.398 55.9493 20.0371C58.0824 17.9957 58.227 16.6024 56.4192 14.9498C55.3346 14.0101 54.8646 13.8157 53.5268 13.8157C52.2614 13.8157 51.7553 14.0101 50.8514 14.8202Z" fill="#3EAEB1"/>
<path d="M80.463 15.6626C76.1241 16.1163 71.5685 19.0649 69.6523 22.6617C69.0738 23.7634 68.3869 25.578 68.1699 26.7121C67.013 31.9938 70.5562 38.118 76.1964 40.613C78.8361 41.7795 82.09 42.4924 83.5719 42.2331C87.9471 41.4555 89.5373 40.9046 91.924 39.2521C93.7313 38.0207 95.973 35.6553 96.0091 34.9425C96.0091 34.7481 96.1902 34.5537 96.3706 34.5537C96.5878 34.5537 96.7328 34.1972 96.7328 33.7759C96.7328 33.3223 96.9132 32.8687 97.0943 32.7714C97.5279 32.5123 97.5639 25.3511 97.1303 24.5735C96.9492 24.2818 96.4435 23.3422 96.0091 22.4997C94.0207 18.7733 89.2119 15.9543 84.4399 15.6626C82.9572 15.5979 81.1499 15.5654 80.463 15.6626ZM92.7552 20.6203C93.1895 20.8472 93.1895 21.0092 92.8281 21.3332C92.6109 21.5276 92.3937 22.1108 92.3937 22.5969C92.3937 23.0829 92.2494 23.6013 92.0322 23.6986C91.8519 23.7958 91.6708 24.3142 91.6708 24.8327C91.6708 25.3511 91.5265 25.8696 91.3093 25.9668C91.1282 26.064 90.9478 26.4205 90.9478 26.7121C90.9478 27.4574 89.3208 31.9938 88.634 33.1927C88.3086 33.7436 87.9103 34.2296 87.6939 34.2944C87.5128 34.3268 85.7054 35.8173 83.7531 37.5671C81.7646 39.3493 79.9205 40.7102 79.7033 40.6454C79.45 40.5806 79.0886 40.2566 78.8721 39.9974C78.5828 39.5437 79.1975 38.8308 82.3786 36.109C84.5121 34.262 86.2472 32.577 86.2472 32.3502C86.2472 32.0262 85.1629 31.3133 84.6203 31.3133C84.476 31.3133 82.7408 32.7714 80.7884 34.5537C78.7992 36.3358 76.9558 37.794 76.6663 37.794C75.9794 37.794 75.6902 36.8218 76.1964 36.2062C76.4495 35.9146 78.1124 34.424 79.8483 32.8687C82.0171 30.9893 83.0294 29.8876 82.9211 29.4664C82.6679 28.1702 81.5474 28.7211 78.0042 31.9614C75.5456 34.1972 74.1717 35.2341 73.7016 35.1369C72.3278 34.9101 72.9424 33.9379 76.4856 30.8273C78.4738 29.0451 80.0647 27.3925 80.0287 27.1333C79.9565 26.8741 79.6311 26.5176 79.3057 26.3232C78.7632 26.0316 78.1484 26.4205 75.2925 28.9803C72.7255 31.2809 71.7131 31.9614 70.9539 31.9614C70.3031 31.9614 69.9777 31.7994 69.9777 31.4429C69.9777 30.73 77.932 23.5366 78.7271 23.5366C79.0525 23.5366 79.45 23.3746 79.559 23.2126C79.6672 23.0181 80.2459 22.8885 80.8245 22.8885C81.4024 22.8885 81.981 22.7265 82.09 22.5645C82.1982 22.3701 82.8851 22.2404 83.5719 22.2404C84.2588 22.2404 84.8014 22.0784 84.8014 21.9164C84.8014 21.722 85.0907 21.5924 85.4522 21.5924C85.7776 21.5924 86.9709 21.3008 88.0553 20.9443C90.261 20.2639 91.924 20.1343 92.7552 20.6203Z" fill="#3EAEB1"/>
<path d="M88.8856 23.0506C88.7774 23.3422 88.7774 23.6663 88.9224 23.7635C89.211 24.0551 90.2601 23.1802 90.0068 22.8562C89.7175 22.4026 89.1388 22.4998 88.8856 23.0506Z" fill="#3EAEB1"/>
<path d="M83.7523 24.0549C80.9319 24.8326 80.968 24.9298 84.1498 27.7812C85.7407 29.1746 87.1866 30.2763 87.3316 30.1791C87.512 30.0819 87.9103 29.1746 88.2357 28.1701L88.8135 26.3555L87.2955 24.9622C86.4276 24.1845 85.6325 23.5364 85.5235 23.5688C85.4153 23.6013 84.6195 23.7957 83.7523 24.0549Z" fill="#3EAEB1"/>
<path d="M41.2343 19.0648C39.6435 19.875 39.1735 21.2683 40.0412 22.6616C41.5597 25.2539 45.4644 24.3466 45.4644 21.3979C45.4644 19.3241 43.1867 18.0604 41.2343 19.0648Z" fill="#3EAEB1"/>
<path d="M56.6006 31.9613C55.769 32.5446 55.082 32.6094 48.5741 32.6094C41.8131 32.6094 39.5353 32.8362 36.896 33.7759C33.7144 34.91 31.0028 40.0297 31.9428 43.1403C32.1959 43.9505 32.3766 44.9873 32.3766 45.4734C32.3766 46.5427 32.8106 46.1539 33.4252 44.4365C34.1121 42.6543 35.1245 41.4554 36.4622 40.8073C37.4022 40.3861 38.6315 40.2889 42.6808 40.3213C45.4648 40.3537 48.321 40.5157 49.008 40.7102C50.635 41.1314 55.1543 41.1314 55.1543 40.7102C55.1543 40.5157 55.4436 40.3861 55.8413 40.3861C56.8537 40.3861 58.2637 38.2151 58.5529 36.1413C58.806 34.424 58.2637 31.3132 57.7213 31.3132C57.6129 31.3132 57.1067 31.6048 56.6006 31.9613Z" fill="#3EAEB1"/>
<path d="M58.7688 40.71C58.4072 41.5201 58.4072 41.7794 58.8049 42.233C59.0942 42.5246 59.2749 43.0106 59.2026 43.3671C59.058 44.0151 59.6727 44.1772 59.9257 43.5291C60.1788 42.9135 59.8173 39.738 59.4919 39.738C59.3473 39.738 59.0219 40.1916 58.7688 40.71Z" fill="#3EAEB1"/>
<path d="M39.0638 42.2656C37.2921 42.3952 36.2436 43.2377 35.629 45.0198C35.4121 45.7651 35.0506 46.7048 34.8698 47.1261C34.2913 48.4221 34.5082 50.6904 35.3397 52.3105C36.3522 54.2223 39.0999 56.6202 41.1246 57.3654C41.9923 57.6895 42.9685 58.0783 43.2939 58.2403C44.1616 58.6291 49.0064 58.5967 49.0064 58.2079C49.0064 58.0135 49.4041 57.8838 49.8741 57.8838C51.8988 57.8838 55.5866 55.2917 56.8521 52.991C58.3344 50.3015 58.5875 49.297 58.1175 47.9037C57.8644 47.1908 57.6836 46.2836 57.6836 45.8623C57.6836 45.4411 57.4305 44.5014 57.1775 43.7885C56.7435 42.7192 56.4905 42.5248 55.8035 42.5896C52.6219 42.9784 51.0672 43.0108 49.0064 42.6868C46.4394 42.2979 41.3415 42.1036 39.0638 42.2656Z" fill="#3EAEB1"/>
<path d="M65.9631 48.7136C65.3124 49.3941 65.0231 57.8513 65.6377 58.8234C65.9993 59.4715 66.1078 59.4066 67.9517 57.7217C69.904 55.9071 70.9526 55.5507 71.7841 56.4256C72.0372 56.6848 72.471 56.9116 72.7603 56.9116C73.0495 56.9116 74.8212 55.5183 76.7373 53.8333C78.6175 52.1484 80.4617 50.755 80.8231 50.755C81.1846 50.755 82.1968 51.4679 83.1009 52.3752C84.0042 53.2501 84.8361 53.9953 84.9443 53.9953C85.0533 53.9953 85.1615 52.9908 85.1615 51.7919C85.1615 50.0098 85.0172 49.4265 84.4385 48.8756C83.7156 48.1952 83.4624 48.1628 75.0742 48.1628C67.5178 48.1628 66.3971 48.2276 65.9631 48.7136ZM73.3749 50.269C74.6042 51.2735 74.6404 52.764 73.4472 53.8333C71.3864 55.6803 68.5302 54.5138 68.5302 51.8568C68.5302 50.755 70.0487 49.4589 71.3503 49.4589C71.9649 49.4589 72.7964 49.7829 73.3749 50.269Z" fill="#3EAEB1"/>
<path d="M70.7012 52.0512C70.7012 52.5373 70.882 52.6993 71.352 52.6344C71.6774 52.5697 71.9666 52.3104 71.9666 52.0512C71.9666 51.792 71.6774 51.5328 71.352 51.4679C70.882 51.4032 70.7012 51.5652 70.7012 52.0512Z" fill="#3EAEB1"/>
<path d="M102.589 49.297C98.0339 50.3015 94.3456 52.9261 92.4293 56.4581C91.9957 57.333 91.4531 58.3051 91.2727 58.5967C90.8023 59.4392 90.8752 64.9801 91.417 66.3086C92.7186 69.6786 95.9365 72.9189 99.4798 74.4418C101.54 75.3167 102.011 75.3815 105.843 75.3815C108.121 75.3815 110.109 75.2519 110.29 75.0899C110.507 74.9279 111.266 74.6362 111.989 74.4418C113.436 74.0206 117.81 70.5858 118.606 69.2573C120.377 66.1466 121.064 61.7074 120.197 59.2123C118.353 53.9954 114.376 50.4635 109.205 49.3618C106.783 48.8757 104.578 48.8434 102.589 49.297ZM106.132 53.639C106.132 55.972 105.806 56.4581 104.614 55.8748C104.107 55.6804 103.963 55.1944 103.963 53.9954C103.963 51.9216 104.216 51.4032 105.265 51.4032C106.096 51.4032 106.132 51.5004 106.132 53.639ZM101.432 57.495C101.432 57.657 100.998 57.9162 100.492 58.0134C99.6969 58.2078 99.2626 58.0134 98.1421 57.0413C96.5873 55.6804 96.4069 55.0972 97.3831 54.4491C97.9249 54.0603 98.2142 54.1899 99.733 55.5832C100.673 56.4581 101.432 57.333 101.432 57.495ZM114.448 54.8055C114.809 55.1944 114.809 55.3888 114.412 55.8424C113.074 57.3653 111.736 58.2402 111.05 58.0134C110.109 57.6894 110.362 56.6849 111.809 55.4536C113.254 54.1899 113.761 54.0603 114.448 54.8055ZM109.386 57.9486C110.76 58.7911 111.845 60.2816 111.881 61.351C111.917 61.7398 112.098 62.161 112.278 62.2582C112.495 62.3555 112.64 62.7443 112.64 63.0684C112.64 63.3924 113.544 64.5265 114.629 65.5958C117.051 67.9612 117.521 68.9333 116.834 70.1322C116.147 71.2663 113.978 72.7892 113.038 72.7892C112.64 72.7892 111.447 72.0764 110.435 71.2015C108.519 69.5813 106.783 68.6741 104.216 67.8964C102.444 67.3455 100.348 65.7902 100.348 65.0125C100.348 64.6885 100.203 64.2996 99.9863 64.2024C99.588 63.9756 99.4798 60.8001 99.9134 60.8001C100.058 60.8001 100.492 60.2168 100.853 59.504C101.288 58.6939 101.866 58.1107 102.408 58.0134C102.878 57.8838 103.24 57.6894 103.24 57.5274C103.24 57.3653 104.361 57.2358 105.734 57.2358C107.687 57.2358 108.446 57.3978 109.386 57.9486ZM98.6478 62.161C99.4437 63.2627 98.7208 63.7164 96.0447 63.7164C93.3694 63.7164 92.9358 63.4571 93.5505 62.2582C93.8398 61.675 94.2013 61.5777 96.0815 61.6102C97.6717 61.6426 98.3954 61.7722 98.6478 62.161ZM100.564 66.7623C101.251 67.4103 101.251 67.4752 99.9134 68.9333C99.0822 69.8729 98.5036 70.197 97.7446 70.197C96.334 70.197 96.443 69.4842 98.0339 67.7344C99.4437 66.179 99.7691 66.0818 100.564 66.7623Z" fill="#3EAEB1"/>
<path d="M105.554 59.0503C105.373 59.0826 104.758 59.2123 104.216 59.3095C102.951 59.5687 101.793 61.2213 101.793 62.7766C101.793 63.7487 102.047 64.1699 103.24 65.1421C104.071 65.8225 105.047 66.3086 105.554 66.3086C106.06 66.3086 106.566 66.4382 106.674 66.6326C106.783 66.7946 107.217 66.9566 107.615 66.9566C107.976 66.9566 108.301 67.0862 108.301 67.2482C108.301 67.4102 108.808 67.7019 109.386 67.9287C110.435 68.3175 110.579 68.2851 111.555 67.4426C112.568 66.5677 112.568 66.5354 111.917 65.9197C111.555 65.5633 111.05 64.818 110.832 64.2347C110.615 63.6839 110.254 62.971 110.073 62.6794C109.892 62.3554 109.748 61.9017 109.748 61.6425C109.748 60.3788 107.072 58.7262 105.554 59.0503Z" fill="#3EAEB1"/>
<path d="M112.892 69.0628C112.205 69.9376 112.349 70.5209 113.253 70.5209C113.94 70.5209 114.772 69.6136 114.808 68.8035C114.808 67.9935 113.651 68.1555 112.892 69.0628Z" fill="#3EAEB1"/>
<path d="M77.4615 55.8747C75.9431 57.2357 74.6777 58.4994 74.6777 58.6614C74.6777 58.8235 74.9308 59.2123 75.22 59.5039C75.6901 59.9575 76.377 60.0224 79.8482 59.8928C84.3308 59.7631 85.1628 59.4391 85.1628 57.8514C85.1628 57.2681 84.8013 56.6849 84.0784 56.1664C83.4997 55.7127 82.9932 55.2591 82.9932 55.1295C82.9932 54.7407 81.2219 53.3473 80.7515 53.3797C80.499 53.3797 79.0163 54.5138 77.4615 55.8747Z" fill="#3EAEB1"/>
<path d="M69.6878 58.9206C68.8563 59.6659 69.2178 60.1195 70.7001 60.0871C72.2187 60.0871 72.4718 59.7631 71.6402 58.9855C70.9894 58.4346 70.2663 58.4022 69.6878 58.9206Z" fill="#3EAEB1"/>
<path d="M41.7039 61.351C41.4508 64.2025 41.8124 65.4014 43.1863 66.2114C45.2833 67.4752 49.5857 67.0215 50.2365 65.4985C50.345 65.2069 50.4535 63.8136 50.4535 62.3879C50.4535 60.3141 50.345 59.8281 49.9111 59.8281C49.6219 59.8281 49.3688 59.9901 49.3688 60.1845C49.3688 60.5409 44.524 60.4113 42.8247 59.9901C41.8847 59.7632 41.8485 59.8281 41.7039 61.351Z" fill="#3EAEB1"/>
<path d="M32.05 65.5632C30.6761 65.7901 29.2299 67.2158 27.856 69.646C27.1691 70.9098 26.6629 71.979 26.6991 72.0439C26.9522 72.2707 65.4572 72.141 65.385 71.9143C65.0957 70.7154 62.9626 67.2482 62.0587 66.503C60.974 65.5632 60.7933 65.5308 56.7801 65.4012C53.7792 65.3041 52.6222 65.3688 52.6222 65.6281C52.6222 65.8225 51.8992 66.665 50.9953 67.4426L49.4044 68.9008H46.512C44.9212 68.9008 43.5112 68.7387 43.4027 68.5767C43.2942 68.3823 42.8604 68.2527 42.4988 68.2527C42.1373 68.2527 41.2334 67.6046 40.4741 66.7946L39.1725 65.3364L36.0271 65.3688C34.3278 65.4012 32.52 65.4985 32.05 65.5632Z" fill="#3EAEB1"/>
<path d="M24.6022 74.6362C23.3006 74.9279 21.9266 76.0296 21.2758 77.2609C20.6974 78.3302 20.625 79.5941 20.625 89.1526V99.8132L21.4566 100.008C21.9266 100.105 33.4963 100.138 47.2352 100.073L72.146 100.008V89.1526V78.2979L71.206 77.0016C69.2898 74.4095 70.9529 74.5715 46.8375 74.5066C35.0148 74.5066 24.9999 74.539 24.6022 74.6362ZM48.9706 86.6899C49.8745 87.792 49.9106 88.6991 49.2237 89.9308C48.2114 91.6806 45.5359 92.1011 44.1259 90.7405C42.9327 89.6062 42.8966 87.5648 44.0174 86.4957C44.632 85.9125 45.1744 85.7506 46.5121 85.7506C47.9944 85.7506 48.3198 85.8803 48.9706 86.6899Z" fill="#3EAEB1"/>
<path d="M45.5355 88.1802C45.2824 88.7634 45.6078 89.6383 46.0779 89.6383C46.584 89.6383 47.5602 88.6667 47.5602 88.1479C47.5602 87.5325 45.7886 87.5647 45.5355 88.1802Z" fill="#3EAEB1"/>
<path d="M17.4077 90.2869C16.9014 90.9999 16.4676 91.6476 16.4676 91.7128C16.4676 91.8095 16.0699 92.6844 15.5637 93.689C15.0576 94.6613 14.2621 96.2492 13.7922 97.1563C11.9482 100.85 12.3098 102.729 15.166 103.928C16.0699 104.285 16.9377 104.511 17.1545 104.415C17.3354 104.285 17.4077 103.442 17.2992 102.438C17.1184 100.915 17.1907 100.558 17.7692 100.202C18.3838 99.7809 18.4561 99.2299 18.4561 94.3697C18.4923 91.4212 18.4561 88.9907 18.42 88.9907C18.3838 88.9907 17.95 89.574 17.4077 90.2869Z" fill="#3EAEB1"/>
<path d="M90.1152 89.2179C89.862 89.6392 89.8259 102.016 90.0791 102.989C90.1873 103.508 90.5127 103.896 90.8021 103.896C91.0914 103.896 91.3086 104.026 91.3086 104.221C91.3086 104.415 92.9716 104.544 95.5748 104.544C99.2263 104.544 99.9492 104.447 100.42 103.961C100.889 103.508 101.034 102.016 101.251 96.1839L101.54 88.9907H95.9002C92.7905 88.9907 90.1873 89.0882 90.1152 89.2179Z" fill="#3EAEB1"/>
<path d="M74.5695 90.4812C74.4248 90.6109 74.3164 92.7497 74.3164 95.2769C74.3164 99.3919 74.3887 99.8785 75.0394 100.526C75.7987 101.207 75.7987 101.207 75.0756 102.891L74.3887 104.544H75.2564C77.6427 104.544 80.6073 101.433 79.7754 99.8463C79.2697 98.8739 78.0042 96.2815 76.5941 93.3652C75.2203 90.5464 74.931 90.1573 74.5695 90.4812Z" fill="#3EAEB1"/>
<path d="M103.602 92.8792C103.602 93.3972 103.854 93.5269 104.794 93.5269C106.711 93.5592 107.253 94.1424 107.253 96.3788C107.289 98.9382 106.892 99.5537 105.011 99.8131C103.89 99.975 103.565 100.137 103.746 100.526C103.854 100.818 103.963 101.109 103.963 101.175C103.963 101.531 106.096 101.239 106.493 100.818C106.711 100.558 107.036 100.364 107.144 100.396C108.663 100.558 109.06 99.0356 108.735 94.5638C108.627 93.3005 106.964 92.2307 105.192 92.2307C103.854 92.2307 103.602 92.3282 103.602 92.8792Z" fill="#3EAEB1"/>
<path d="M19.5408 102.276C19.2154 102.729 19.9023 103.442 21.2762 104.058C22.2524 104.479 25.4702 104.544 46.2232 104.544C70.6278 104.512 70.5194 104.512 72.2548 103.28C74.0987 101.952 74.171 101.952 46.3316 101.952C28.2541 101.952 19.6853 102.049 19.5408 102.276Z" fill="#3EAEB1"/>
<path d="M11.4776 108.983L11.5861 111.511L66.1078 111.608L120.593 111.673V109.081V106.488H65.9994H11.3691L11.4776 108.983Z" fill="#3EAEB1"/>
</svg>
