<svg width="132" height="137" viewBox="0 0 132 137" fill="none" xmlns="http://www.w3.org/2000/svg">
<path d="M39.2935 17.7822C37.4459 18.2643 36.0331 19.1027 34.2942 20.7587C33.403 21.5972 32.7292 22.3308 32.7944 22.3728C32.8596 22.4356 33.8812 22.226 35.055 21.9116C37.1634 21.3456 37.359 21.3247 42.8582 21.3247C48.3574 21.3247 48.553 21.3456 50.6614 21.9116C51.8352 22.226 52.8568 22.4566 52.9002 22.4147C53.0306 22.2679 51.5743 20.6749 50.6396 19.9412C49.2486 18.8721 47.7923 18.1385 46.336 17.7612C44.7058 17.3629 40.8802 17.3629 39.2935 17.7822Z" fill="#3EAEB1"/>
<path d="M37.4896 24.7834C29.2516 26.2087 22.6656 32.3714 20.9919 40.1901C20.4051 42.9151 20.3181 42.7265 22.2743 42.7055C23.5785 42.7055 24.1437 42.8103 24.8392 43.1667C25.8608 43.6907 27.2519 45.0951 27.4475 45.8078C27.5562 46.269 27.6649 46.3109 28.5778 46.2271C33.425 45.8078 37.6852 43.523 40.9239 39.5823C42.5105 37.6328 43.2496 37.1297 44.4668 37.1088C46.184 37.0878 46.7926 37.4861 48.5749 39.7918C51.205 43.2086 54.6827 45.7659 57.1606 46.0803C58.0301 46.2061 58.1604 46.1641 58.2909 45.745C58.53 45.0322 59.8993 43.6697 60.8775 43.1667C61.573 42.8103 62.1382 42.7055 63.4641 42.7055C65.3986 42.7265 65.3116 42.9151 64.7248 40.1901C63.2032 33.0212 57.6388 27.3197 50.1182 25.1816C48.7053 24.7834 47.9011 24.7204 43.5104 24.6576C40.7717 24.6366 38.0547 24.6785 37.4896 24.7834Z" fill="#3EAEB1"/>
<path d="M43.3369 42.0767C40.0765 46.0804 34.8598 48.8683 29.4259 49.4971C26.7524 49.8116 25.3612 49.2456 24.4918 47.5268C23.6659 45.8708 22.4703 45.4935 21.2314 46.4997L20.5576 47.0657L20.6228 50.9016C20.688 54.3812 20.7315 54.7795 21.1444 55.3035C21.8618 56.2258 22.579 56.6451 23.7962 56.8337C25.5786 57.1062 25.9264 57.5465 26.1003 59.8103C26.3828 63.3109 27.7957 66.4551 30.1431 68.7818C31.6647 70.2911 38.3377 75.1332 39.9243 75.8878C40.946 76.37 41.4024 76.4538 42.9674 76.4538C44.6628 76.4538 44.9236 76.3909 46.1191 75.7411C48.2275 74.5882 54.0745 70.2072 55.6178 68.6141C56.5959 67.6289 57.3566 66.5809 57.9435 65.4071C58.7694 63.793 59.0738 62.8497 59.7041 59.7265C60.0084 58.2382 60.9213 57.2739 62.4863 56.7709C63.5296 56.4354 64.4208 55.7228 64.899 54.8214C65.0512 54.528 65.1381 52.9977 65.1381 50.7129V47.0446L64.4426 46.4787C63.8991 46.0176 63.5949 45.9337 63.008 46.0385C62.0733 46.1852 61.7908 46.4158 61.2256 47.5478C60.4866 49.015 59.7041 49.4133 57.6392 49.4133C56.2698 49.3924 55.6178 49.2876 54.5309 48.8473C51.5748 47.6316 48.4013 45.0743 46.0104 41.9929C45.3801 41.1754 44.7932 40.5046 44.728 40.5046C44.6628 40.5046 44.0325 41.2174 43.3369 42.0767Z" fill="#3EAEB1"/>
<path d="M79.0913 64.0863C78.6999 64.2539 78.287 64.6313 78.1788 64.9248C78.0483 65.2392 77.9616 66.7484 77.9616 68.2996V71.1084H76.4615C74.7878 71.1084 73.8749 71.5486 73.0272 72.7644C72.5707 73.4142 72.5273 73.7286 72.5273 75.9505V78.4452H96.6542H120.782V75.9505C120.782 73.7286 120.739 73.4142 120.282 72.7644C119.434 71.5486 118.521 71.1084 116.848 71.1084H115.347V68.2786C115.347 65.0925 115.13 64.3797 114.087 64.0234C113.218 63.7299 112.37 63.9395 111.87 64.5684C111.479 65.0295 111.435 65.4069 111.435 68.0899V71.1084H96.6542H81.874V68.0899C81.874 65.2392 81.8518 65.0295 81.3959 64.5474C80.7651 63.8767 79.9831 63.7299 79.0913 64.0863Z" fill="#3EAEB1"/>
<path d="M35.3594 78.5083C35.3594 79.7869 35.5985 80.4783 38.6415 87.9194C40.4456 92.343 42.1193 96.4511 42.3584 97.0796C42.6844 97.9184 42.8583 98.128 42.9887 97.8977C43.0974 97.7297 44.7928 93.6001 46.7708 88.7375C50.0964 80.5413 50.3572 79.7869 50.3572 78.5497C50.3572 77.7954 50.292 77.1875 50.2268 77.1875C50.1616 77.1875 49.7921 77.4178 49.4443 77.7324C46.1187 80.4154 40.7064 80.562 36.8809 78.0885C36.2288 77.6488 35.6202 77.2503 35.5333 77.2294C35.4246 77.1875 35.3594 77.7746 35.3594 78.5083Z" fill="#3EAEB1"/>
<path d="M72.5273 98.547V115.275L73.0272 115.987C73.288 116.365 73.8531 116.909 74.2444 117.161L74.9834 117.643H96.6542H118.326L119.065 117.161C119.455 116.909 120.021 116.365 120.282 115.987L120.782 115.275V98.547V81.7991H96.6542H72.5273V98.547ZM97.8714 87.647C98.8061 88.0668 99.4584 88.7583 101.089 91.1481L102.11 92.6361L104.545 93.2232C105.892 93.5379 107.37 93.9984 107.827 94.2501C109.37 95.0467 109.914 96.9123 109.044 98.3167C108.783 98.7151 107.935 99.7841 107.132 100.706L105.675 102.383L105.74 105.234C105.806 108.462 105.61 109.07 104.219 109.887C103.176 110.495 102.285 110.412 99.328 109.426L96.6542 108.525L94.0027 109.426C91.0242 110.412 90.1332 110.495 89.0903 109.887C87.6989 109.07 87.5032 108.462 87.5685 105.234L87.6122 102.383L85.8732 100.35C84.9384 99.2392 84.0912 98.1702 84.0037 97.9814C83.5041 96.7658 84.1342 94.963 85.3298 94.2923C85.699 94.0828 87.1771 93.6215 88.6122 93.244L91.1984 92.5939L92.7855 90.3929C94.0457 88.6324 94.5675 88.0875 95.3503 87.7099C96.5022 87.1443 96.7194 87.1443 97.8714 87.647Z" fill="#3EAEB1"/>
<path d="M94.9161 93.2025C94.0688 94.3967 93.1556 95.4657 92.8946 95.5708C92.6337 95.676 91.3513 96.0321 90.0259 96.3674C88.7213 96.7028 87.5916 96.996 87.5479 97.0175C87.5041 97.0589 88.2002 97.9184 89.0912 98.9246C89.9822 99.9307 90.8302 100.979 90.9607 101.231C91.1341 101.524 91.1779 102.488 91.0689 104.312L90.9384 106.953L93.0903 106.198C96.9375 104.815 96.5684 104.794 101.741 106.722L102.371 106.974L102.241 104.312C102.132 102.488 102.176 101.524 102.35 101.231C102.48 100.979 103.328 99.9307 104.219 98.9246C105.11 97.9184 105.806 97.0589 105.762 97.0175C105.719 96.996 104.654 96.7028 103.393 96.3882C100.002 95.5501 100.133 95.6131 98.3941 93.2025C97.5461 92.0076 96.7641 91.0222 96.6551 91.0222C96.5469 91.0222 95.7641 92.0076 94.9161 93.2025Z" fill="#3EAEB1"/>
<path d="M30.6423 82.7629L29.0774 83.2871L26.9907 86.0959C25.8605 87.6469 24.9258 88.947 24.9258 89.0099C24.9258 89.0728 25.6214 89.1357 26.4691 89.1357C27.3385 89.1357 28.4253 89.2401 28.8818 89.3867C29.9903 89.7014 31.6857 91.1687 32.1639 92.217C32.3813 92.6568 34.1419 97.352 36.0981 102.656L39.6629 112.298H42.858H46.0532L49.7918 102.237C51.8567 96.7027 53.6391 91.9653 53.7912 91.7343C54.2259 90.9592 55.9431 89.6384 56.8342 89.3867C57.3124 89.2401 58.3775 89.1357 59.247 89.1357C60.0946 89.1357 60.7902 89.0728 60.7902 89.0099C60.7902 88.9255 59.8556 87.6262 58.7253 86.0959L56.6604 83.3078L54.9215 82.7422C53.9433 82.4275 53.1391 82.218 53.0956 82.2387C53.0739 82.281 51.4437 86.264 49.4875 91.085C46.4227 98.6313 45.8359 99.9306 45.2055 100.455C43.7709 101.67 41.9451 101.67 40.5105 100.455C39.9019 99.9513 39.2715 98.5891 36.2286 91.0428C34.2505 86.1796 32.5551 82.2387 32.4247 82.2387C32.3161 82.2387 31.5119 82.4905 30.6423 82.7629Z" fill="#3EAEB1"/>
<path d="M22.47 84.9854C20.8833 85.8235 19.0792 87.5633 18.2314 89.0935C16.9055 91.5248 16.8838 91.6721 16.8838 101.838C16.8838 106.932 16.9491 111.271 17.0142 111.46C17.3837 112.361 17.9272 112.403 27.2302 112.403C34.7943 112.403 36.0333 112.361 35.9463 112.109C35.8811 111.942 34.2943 107.666 32.4251 102.614C29.8385 95.5915 28.9038 93.3275 28.4908 92.9507C27.9909 92.5317 27.7301 92.4895 25.5347 92.4895C22.8178 92.4895 21.8831 92.1955 21.2093 91.148C20.4051 89.8901 20.6224 89.0099 22.3178 86.7252C23.622 84.9432 24.035 84.2932 23.7959 84.3147C23.7524 84.3147 23.1655 84.6286 22.47 84.9854Z" fill="#3EAEB1"/>
<path d="M61.8776 84.5028C61.8776 84.5872 62.5732 85.5933 63.3992 86.7253C65.1163 89.0514 65.3119 89.8902 64.4859 91.1895C63.8338 92.2171 62.921 92.4896 60.1605 92.4896C57.9869 92.4896 57.7261 92.5318 57.2262 92.9508C56.8131 93.3276 55.8567 95.6545 53.3137 102.551C51.4661 107.56 49.9011 111.837 49.8141 112.025C49.662 112.382 50.2054 112.403 59.2476 112.403H68.8331V102.488C68.8331 93.9776 68.7897 92.4059 68.4854 91.4205C67.7246 88.9893 66.4422 87.1651 64.3773 85.677C63.0949 84.7545 61.8776 84.1889 61.8776 84.5028Z" fill="#3EAEB1"/>
</svg>
