<svg width="132" height="137" viewBox="0 0 132 137" fill="none" xmlns="http://www.w3.org/2000/svg">
<path d="M52.0286 12.2215C48.1955 12.7316 45.4335 15.7655 45.2362 19.6585C45.0671 22.8267 46.279 25.1893 48.9284 26.854C51.8314 28.6528 55.3544 28.6528 58.2856 26.8809C63.4151 23.7396 63.3306 16.4905 58.1447 13.2954C57.0173 12.6242 56.3972 12.4363 54.058 12.1141C53.7479 12.0604 52.846 12.1141 52.0286 12.2215Z" fill="#3EAEB1"/>
<path d="M79.9597 22.37C79.0863 22.907 79.0019 23.8199 79.0019 33.1095V42.5065L76.8876 44.01C75.7321 44.8423 74.7457 45.5136 74.6893 45.5136C74.6048 45.5136 74.5202 43.822 74.4356 41.7816C74.3229 38.2376 74.2665 37.9691 73.4209 36.3045C72.2935 34.1566 70.2643 32.3309 68.1222 31.5791C66.6567 31.0421 66.0085 31.0153 53.7201 31.0153C44.7011 31.0153 40.5298 31.1227 39.7125 31.3375C36.2458 32.2772 33.2019 35.6064 32.92 38.7477C32.6664 41.4862 32.4972 48.5205 32.4972 57.8638V67.6635L31.0598 68.5495C28.5796 70.1068 26.8885 73.0064 26.8604 75.7986C26.8604 76.5773 27.114 79.4766 27.4241 82.2425C27.7341 85.0076 28.1851 89.0082 28.4105 91.1563C28.7769 94.4586 28.9461 95.1294 29.4533 95.5054C29.9607 95.9352 30.7498 95.9889 36.584 95.9889C42.5591 95.9889 43.2073 95.9352 43.7992 95.5054C44.4475 94.9682 44.5884 94.0557 46.2794 78.2687C46.5895 75.396 46.364 73.7313 45.4057 71.9056C44.7293 70.6437 42.5591 68.5227 41.3753 68.0126L40.6707 67.7173L40.8399 53.8634C41.0089 41.8084 41.0653 39.9559 41.4599 39.6874C42.5873 38.8014 42.6437 39.3115 42.6437 52.6284V65.3009L43.3482 65.5962C44.4193 66.0795 46.7304 68.2274 47.6887 69.6235C48.1396 70.3216 48.7879 71.664 49.1261 72.6306C49.887 74.7248 49.8588 75.396 48.5624 87.2362C47.5759 96.1501 47.2941 97.1431 45.603 98.137C45.0675 98.4585 44.1938 98.7808 43.6301 98.8614L42.6437 99.0226V103.265C42.6437 105.6 42.7846 107.829 42.9537 108.259C43.6583 110.031 45.4339 111.105 47.6323 111.078C49.4361 111.078 50.7889 110.353 51.719 108.93L52.3673 107.937L52.4518 88.2561L52.5364 68.5764L53.5792 68.657L54.622 68.7375L54.6502 88.2024C54.6784 109.816 54.5656 108.474 56.5949 110.192C57.6095 111.024 58.2577 111.185 60.3997 111.051C62.119 110.943 63.7538 109.547 64.3456 107.695C64.6275 106.836 64.6838 99.5598 64.5993 73.1943C64.4866 42.2648 64.5147 39.7679 64.9656 39.5263C65.3038 39.3115 65.5575 39.3383 65.8675 39.58C66.2621 39.9022 66.3186 40.8955 66.3186 47.1781C66.3186 54.0245 66.3467 54.481 66.9104 55.4206C67.5587 56.5483 68.2915 57.0584 69.6725 57.3537C71.0818 57.649 72.3219 57.1389 75.0557 55.1253C76.3804 54.1856 77.7893 53.1653 78.2406 52.8969L79.0019 52.4404V76.1477L78.9735 99.8821L76.5213 101.01C70.659 103.721 67.3613 107.722 69.5878 109.386C71.448 110.782 72.1246 110.836 88.0209 110.997C96.1657 111.078 103.212 111.105 103.663 111.024C105.1 110.755 104.903 109.95 102.902 107.749C100.45 105.091 99.9147 104.849 95.9969 104.876C94.2778 104.903 92.7275 104.822 92.5863 104.742C92.4451 104.661 91.9947 103.936 91.6002 103.158C91.1774 102.379 90.4728 101.466 90.0215 101.171C89.007 100.446 86.3578 99.5598 84.4131 99.3181L82.9473 99.13V74.3489V49.5408L84.6388 48.3057C86.5551 46.8828 87.0623 46.2384 87.3155 44.9497C87.6823 43.0971 85.9634 40.815 84.0187 40.4929L82.9473 40.3317V31.6865C82.9473 23.6588 82.9189 23.0145 82.44 22.6117C81.9044 22.1553 80.5237 22.021 79.9597 22.37ZM33.5683 71.8251C34.8647 73.4897 37.7959 73.5434 39.4869 71.9325L40.4734 70.9928L41.2908 71.7446C42.249 72.6037 43.0382 73.973 43.3482 75.2349L43.5456 76.1208H36.7531H29.9607V75.4496C29.9607 74.2683 32.0181 71.0196 32.7791 71.0196C32.8637 71.0196 33.2301 71.3687 33.5683 71.8251Z" fill="#3EAEB1"/>
</svg>
