<svg width="132" height="137" viewBox="0 0 132 137" fill="none" xmlns="http://www.w3.org/2000/svg">
<path d="M80.4915 8.38097C76.8415 9.04358 73.1232 11.7919 71.1386 15.3256C67.1466 22.4666 69.1997 31.3989 75.8607 35.7915C78.2099 37.3375 79.4424 37.681 82.7723 37.681C85.1905 37.681 85.9895 37.5828 87.1299 37.1902C89.6617 36.2577 91.5097 34.9572 93.2203 32.9449C95 30.8345 96.0261 28.4787 96.5049 25.4113C96.8702 23.1046 96.8702 22.7856 96.528 20.6998C95.5925 15.0066 92.1942 10.7368 87.1299 8.89631C85.6011 8.33193 82.2252 8.08652 80.4915 8.38097Z" fill="#3EAEB1" fill-opacity="0.921569"/>
<path d="M90.871 37.2884C86.8105 37.6811 83.3202 39.7914 80.8337 43.3987C79.5789 45.1902 79.2597 46.1472 78.6665 49.779C77.6857 55.8647 75.4728 59.8647 71.1386 63.3739C68.1274 65.8278 64.9109 67.1283 60.7592 67.5455C56.6531 67.9873 55.8091 68.2081 54.8053 69.1897C54.3034 69.6805 53.7332 70.3921 53.5051 70.7847C53.2998 71.1528 52.8207 71.57 52.4329 71.7172C52.0679 71.8399 51.0413 72.2325 50.1517 72.5761C47.0266 73.8767 47.1406 73.8521 45.4297 72.7233C44.5856 72.1835 43.8328 71.7172 43.7873 71.7172C43.7188 71.7172 43.2853 71.4473 42.8292 71.1038C41.2324 69.9258 41.5289 69.7786 34.5485 75.3C30.2599 78.6616 27.9331 80.6738 27.5909 81.2632C26.724 82.7106 17.9872 99.2997 17.9187 99.6181C17.8731 99.79 17.0062 100.257 15.9797 100.673C14.9532 101.091 13.9038 101.533 13.6529 101.655C13.402 101.753 12.6036 102.146 11.8736 102.49C10.8015 102.98 10.482 103.275 10.2084 104.011C9.91181 104.772 9.91181 105.042 10.1399 105.679C10.5505 106.71 11.2349 107.275 12.0561 107.3C12.4439 107.3 14.3601 106.636 16.3219 105.802L19.8805 104.306L22.0248 105.582C23.1882 106.318 24.1691 106.907 24.2147 106.931C24.2604 106.98 24.1235 108.085 23.9182 109.41C23.7129 110.759 23.3479 113.164 23.1198 114.784C22.8689 116.404 22.5039 118.882 22.2986 120.305C21.7283 123.986 21.7511 126.146 22.3214 126.98C22.9829 127.937 24.5341 128.477 25.6519 128.109C27.34 127.569 27.6137 127.004 28.2525 122.637C29.0508 117.017 29.4615 114.906 29.5071 115.765C29.5299 116.158 29.5755 116.673 29.5983 116.87C29.644 117.066 29.7352 118.955 29.8264 121.041C29.9177 123.127 30.1002 125.262 30.2143 125.753C30.6477 127.594 33.0885 128.526 34.5941 127.446C35.9856 126.465 36.0085 126.293 35.94 121.041C35.8943 118.416 35.7803 114.588 35.6891 112.576L35.5066 108.894L36.1225 107.667C36.4646 106.98 37.6053 104.673 38.6318 102.515C41.2552 97.0418 43.331 92.7472 44.3347 90.735C46.4106 86.5632 47.8934 83.4719 48.7146 81.7291C49.4445 80.1343 49.7183 79.7905 50.3342 79.594C50.722 79.472 51.9082 79.0054 52.9348 78.5879L54.8281 77.8274L55.5581 78.3922C56.2652 78.9317 56.4934 78.9563 60.0748 78.9317C63.816 78.9317 65.5269 78.7107 68.6749 77.8274C73.4882 76.4778 77.9136 73.8276 80.9473 70.5147C81.5636 69.8277 82.1337 69.2633 82.202 69.2633C82.3394 69.2633 82.6817 70.7847 83.5711 75.2754C83.8221 76.6251 84.1866 78.4168 84.3923 79.2756C84.7346 80.8703 84.6885 81.2878 84.1413 81.2878C83.9587 81.2878 83.0232 81.5572 82.0424 81.8764C81.0616 82.1957 78.8721 82.858 77.1837 83.3737C73.9672 84.3307 71.9597 84.9439 69.9523 85.6307C68.0818 86.2447 66.713 87.5447 65.7322 89.6061C64.7056 91.7411 64.6144 92.9928 65.3215 96.6735C65.5497 97.9988 66.0287 100.673 66.348 102.637C66.6675 104.6 67.0325 106.735 67.1465 107.422C67.808 111.201 68.3327 114.195 68.8574 117.484C69.7698 122.98 70.0892 124.011 71.4579 125.483C73.8303 128.011 76.978 128.575 79.9895 126.98C81.7462 126.047 82.8413 124.722 83.5251 122.685C84.1413 120.943 84.1413 119.716 83.5934 116.796C83.1828 114.636 82.5673 111.029 81.8145 106.564C81.6318 105.41 81.2896 103.422 81.0387 102.146C80.3088 98.3181 79.9442 98.7839 84.9395 97.2629C87.3347 96.5269 89.3423 95.9866 89.4106 96.0603C89.4789 96.134 89.297 96.7963 89.023 97.5084C88.7721 98.2444 88.4068 99.226 88.2472 99.6918C88.0645 100.159 87.449 101.753 86.8788 103.251C85.2818 107.324 84.9395 108.478 84.9395 109.876C84.9395 112.085 85.5558 113.606 87.1068 115.299C89.4337 117.827 88.5895 117.704 104.216 117.802C112.337 117.851 118.222 117.777 119.112 117.631C121.758 117.189 123.629 115.79 124.792 113.361C125.339 112.256 125.408 111.79 125.408 109.876C125.408 107.962 125.339 107.496 124.814 106.441C124.039 104.845 122.762 103.545 121.211 102.784L119.956 102.146H111.584C102.46 102.146 102.87 102.22 103.509 100.772C103.691 100.38 104.421 98.4654 105.128 96.5514C105.836 94.6121 106.542 92.6736 106.725 92.2568C107.797 89.6061 109.599 84.6001 110.01 83.1527C110.603 81.0913 110.603 80.551 110.056 77.8765C109.805 76.7233 109.394 74.711 109.143 73.4349C108.892 72.1589 108.322 69.3369 107.888 67.1775C107.455 65.0179 106.52 60.3309 105.813 56.7482C103.486 44.8711 103.349 44.3312 102.254 42.638C101.137 40.8712 99.5623 39.5461 97.372 38.5154C95.5471 37.6566 92.6269 37.1167 90.871 37.2884Z" fill="#3EAEB1"/>
<path d="M38.0617 50.3189C36.6701 50.8587 34.9593 52.1593 32.815 54.3434C31.6744 55.5212 30.2144 56.1838 27.5226 56.7482C26.1768 57.0181 24.9449 57.558 23.7815 58.3923L22.9147 59.0059L20.8616 57.8771C18.3752 56.5029 17.0977 56.3801 15.7746 57.3616C14.1778 58.515 14.2462 60.2083 15.9343 61.9261C16.5046 62.515 17.1205 63.0794 17.303 63.202C18.2155 63.7419 21.7284 69.0915 25.6293 75.8153C26.4049 77.214 27.1348 78.3432 27.2033 78.3186C27.2717 78.3186 28.0701 77.7537 28.9826 77.0422C31.1269 75.3736 36.0543 71.5455 38.0617 69.9996C38.9514 69.3124 39.6814 68.6498 39.7269 68.5271C39.7726 68.3799 39.476 67.3492 39.0654 66.1959L38.3354 64.11L39.5217 62.9567C41.5519 60.9935 42.9662 57.9262 42.9662 55.3986C42.9662 53.779 42.5328 52.552 41.5063 51.3987C40.7079 50.4907 40.3885 50.2943 39.5444 50.2207C38.9742 50.1962 38.3126 50.2207 38.0617 50.3189Z" fill="#3EAEB1"/>
</svg>
