<svg width="132" height="137" viewBox="0 0 132 137" fill="none" xmlns="http://www.w3.org/2000/svg">
<path d="M48.6093 17.1817C44.4358 18.4391 40.6174 21.781 38.9599 25.6523C36.3848 31.509 37.6871 39.0531 42.7486 47.4245C46.3893 53.5128 53.286 61.4871 63.557 71.546C66.2801 74.193 65.9249 74.16 68.056 72.0754C87.5032 52.851 93.7187 43.5862 94.3104 33.0311C94.4585 30.5163 94.3702 29.6229 93.8369 27.6707C92.5345 22.906 89.0127 19.167 84.1579 17.4795C81.9085 16.6854 81.3168 16.6192 78.475 16.7515C73.5911 17.0162 70.2464 18.803 67.4936 22.6744L66.1617 24.5273L63.7937 21.8141C61.2778 18.9685 59.9162 18.042 56.9563 17.1817C54.7955 16.553 50.6812 16.553 48.6093 17.1817ZM55.9203 20.8545C59.4426 21.7479 61.8697 24.0972 64.4449 29.1597C65.2145 30.6487 65.9249 31.9061 66.0432 31.9061C66.1617 31.9061 66.7537 30.9134 67.3457 29.7222C70.7792 22.8398 73.9167 20.4574 79.4519 20.4905C86.5262 20.5567 91.5875 26.0163 91.0249 33.0311C90.5223 39.6156 88.0948 44.2149 79.4519 55.0348C78.445 56.2922 71.3416 63.7702 68.1448 66.9135L66.0432 68.9651L62.8465 65.7555C55.1803 58.1121 48.2836 49.9723 45.3533 45.1414C43.8734 42.6598 42.0678 38.4576 41.535 36.2075C40.8543 33.2296 41.0614 29.2589 42.0086 27.1744C43.3702 24.1303 46.7741 21.417 50.0597 20.6891C52.0724 20.2258 53.7003 20.292 55.9203 20.8545Z" fill="#3EAEB1"/>
<path d="M12.5275 44.9429C12.1722 45.2076 11.6395 46.2995 11.3435 47.3584C10.5443 50.1048 10.5443 61.3217 11.3435 66.1526C13.5338 79.2228 18.9209 86.9985 33.4246 98.0827C39.3444 102.583 42.0084 104.634 42.4819 105.031C42.8076 105.296 43.6068 106.554 44.2283 107.844C46.3595 112.145 49.5266 115.256 52.6641 116.149C55.7425 117.009 58.4656 116.116 60.656 113.436C62.3136 111.418 63.2311 109.069 63.5863 105.858C64.7407 95.27 58.4064 82.3325 46.3299 70.7188C39.5221 64.2004 36.2661 62.4467 34.4606 64.4982C33.099 66.0203 33.6614 68.9982 36.4141 74.8548L38.1901 78.6273L37.0653 77.899C36.4437 77.5352 34.4902 76.2114 32.7142 74.9872L29.4879 72.7703L28.5407 70.2886C28.0079 68.932 27.3271 67.1453 27.0015 66.318C25.9951 63.8033 24.3672 59.6672 23.2128 56.7224C21.7625 52.9503 20.9336 51.3621 18.9505 48.6488C16.1978 44.8436 14.1554 43.6856 12.5275 44.9429ZM16.6713 51.2297C18.2401 53.6783 19.2761 56.0606 22.6504 64.7629C25.0776 71.0166 27.0015 75.5497 27.3567 75.8144C28.0079 76.3438 37.2429 82.4982 41.0316 84.9472C43.4884 86.535 44.554 86.8328 45.2051 86.1052C45.6491 85.6087 45.6787 83.6563 45.2347 83.3585C43.9323 82.4322 36.6509 67.9725 37.5093 67.9725C37.9236 67.9725 42.2452 71.7776 45.3236 74.8218C55.3873 84.7814 60.804 95.5348 60.3008 104.535C60.0936 107.877 59.1464 110.193 57.3409 111.649C54.1441 114.23 50.089 111.781 46.8923 105.33C45.5899 102.682 45.7083 102.782 37.1245 96.2631C23.0944 85.6087 18.1514 79.4208 15.5466 69.2298C14.777 66.2187 13.889 58.9393 13.889 55.5643C13.889 52.2554 14.2442 48.0863 14.5402 48.1856C14.6882 48.2518 15.6354 49.6084 16.6713 51.2297Z" fill="#3EAEB1"/>
<path d="M115.297 46.1341C113.55 47.954 111.123 51.4613 110.146 53.579C109.82 54.3069 108.548 57.5165 107.334 60.693C106.12 63.8695 104.523 67.9394 103.812 69.7261L102.51 72.9688L98.5435 75.5828C96.3532 77.0387 94.4584 78.2295 94.3701 78.2295C94.2512 78.2295 95.0508 76.3107 96.0861 73.9614C97.7737 70.2224 98.04 69.3952 98.1881 67.3768C98.3063 65.3585 98.2472 64.9945 97.6847 64.3658C96.3532 62.8769 93.9557 63.6709 90.0479 66.9136C80.1617 75.1526 72.5846 85.5425 69.7431 94.807C66.9312 103.907 68.6183 112.477 73.7982 115.421C78.5639 118.167 83.9805 115.289 87.7394 108.075L89.16 105.33L95.1099 100.796C100.675 96.5936 105.706 92.4909 107.423 90.8033C107.837 90.4065 108.814 89.4802 109.613 88.7189C111.626 86.7996 115.119 82.0683 116.628 79.1566C118.316 75.9799 119.44 72.6048 120.388 68.1379C121.098 64.7628 121.157 63.9025 121.187 56.7224C121.187 48.1194 121.069 46.9282 119.973 45.4724C119.381 44.6782 118.967 44.4797 118.079 44.4797C117.132 44.4797 116.687 44.7444 115.297 46.1341ZM118.079 54.5716C118.079 71.4136 113.905 80.8104 102.065 90.6713C99.4606 92.8217 98.0101 93.9797 89.5452 100.432C86.6742 102.616 86.2598 103.079 85.4601 104.8C83.1517 109.929 80.3689 112.642 77.3797 112.642C72.5254 112.642 70.3054 104.667 72.8214 96.3626C74.7749 89.976 78.1195 84.4834 84.1578 77.7008C88.7755 72.5717 94.3993 67.5092 94.6364 68.3033C94.8436 68.9982 91.7056 75.4173 88.5092 80.8442C86.378 84.4834 86.3189 84.6492 86.7333 85.4765C87.6504 87.2961 88.391 86.9323 100.97 78.3293C102.391 77.3692 103.664 76.5754 103.782 76.5754C104.344 76.5423 105.381 75.1857 105.913 73.8622C106.209 73.1012 106.713 71.7776 107.038 70.9504C107.364 70.1232 108.281 67.807 109.051 65.8217C112.485 56.9209 113.521 54.4393 114.616 52.5863C116.451 49.5422 117.516 48.0863 117.812 48.318C117.96 48.4172 118.079 51.2297 118.079 54.5716Z" fill="#3EAEB1"/>
</svg>
