<svg width="132" height="137" viewBox="0 0 132 137" fill="none" xmlns="http://www.w3.org/2000/svg">
<path d="M54.1135 14.1636C46.1341 15.5242 41.7106 18.8453 38.6533 25.7877C37.439 28.5687 36.138 34.5308 35.7694 39.0924L35.6176 40.833L33.2107 40.893L30.8039 40.953L30.7389 42.5336L30.6738 44.1141L57.8214 43.9941C72.7611 43.9141 85.0336 43.8141 85.0774 43.7541C85.1426 43.694 85.2071 43.0538 85.2071 42.2935L85.2293 40.953L82.8226 40.893L80.3937 40.833L80.264 39.1925C79.5479 30.6894 77.9217 25.3275 74.8211 21.2461C72.3058 17.945 69.1184 15.8842 64.7383 14.7439C62.9169 14.2837 62.2231 14.2037 58.667 14.1437C56.4553 14.1036 54.4171 14.1036 54.1135 14.1636Z" fill="#3EAEB1"/>
<path d="M96.4827 38.192C96.0491 38.9323 95.1811 40.4128 94.5526 41.4532C93.9241 42.4935 92.7529 44.4742 91.9502 45.8547C91.1482 47.2352 90.0638 49.0358 89.5872 49.856C87.9173 52.6171 87.9825 52.3169 88.8712 53.2973C89.2833 53.7774 91.9287 56.3983 94.7475 59.1193L99.8648 64.0811V76.6655C99.8648 83.6078 99.7781 89.2699 99.6914 89.2699C99.5832 89.2699 98.8457 88.5294 98.0437 87.6292C92.9693 81.8872 93.208 82.1274 91.647 81.7874C90.8666 81.627 88.2864 81.0668 85.9012 80.5672C83.5375 80.0468 81.5429 79.7069 81.4562 79.7667C81.391 79.8465 81.282 83.6477 81.2175 88.2093L81.1085 96.5323L78.1815 96.5123H75.2544L75.1893 87.4089L75.146 78.3063L73.5631 77.9663C72.0236 77.6056 71.9585 77.5657 69.6167 75.445C67.8821 73.8845 67.1665 73.3643 67.0147 73.5243C65.0415 75.6451 62.613 78.2257 62.3528 78.4659C62.1794 78.6263 61.7457 79.086 61.3987 79.4666L60.7699 80.1666L58.1029 80.2065L55.4575 80.2671L53.9614 78.7061C53.1591 77.8658 52.0749 76.7655 51.5761 76.2653C51.0991 75.7651 50.3619 74.9849 49.9499 74.5247C49.1693 73.6244 48.8441 73.4243 48.4321 73.5844C48.2803 73.6644 47.3696 74.5247 46.4156 75.5251C45.4615 76.5054 44.529 77.3853 44.3556 77.4859C44.1822 77.5657 43.4883 77.7261 42.8377 77.8458C42.1873 77.9663 41.5368 78.1459 41.385 78.2257C41.1898 78.3462 41.1248 80.6071 41.0815 87.1695C41.0815 92.0105 40.973 96.1125 40.8863 96.2721C40.7345 96.5123 40.2141 96.5522 37.7639 96.5123L34.8149 96.4524L34.7715 88.1096L34.7065 79.7667L33.9476 79.8266C33.5356 79.8465 31.5841 80.2264 29.6109 80.6669C27.6377 81.1067 25.4044 81.607 24.6455 81.7674C23.8865 81.9271 23.1276 82.1673 22.9758 82.2878C22.824 82.3875 22.6072 82.9079 22.4771 83.4282C22.347 83.9477 22.0651 84.9884 21.8266 85.7689C20.4605 90.3904 20.1786 91.4103 19.5282 93.6712C18.4874 97.3327 16.3841 104.696 14.9313 109.837C14.7362 110.517 14.6277 111.138 14.6927 111.177C14.7578 111.237 38.1325 111.258 66.6677 111.237L118.534 111.177L116.67 108.977C115.629 107.756 114.371 106.336 113.872 105.795C113.396 105.256 112.875 104.676 112.745 104.495C112.571 104.275 112.55 102.254 112.68 97.5729C112.766 93.9314 112.853 85.0283 112.853 77.7859L112.875 64.5813L115.217 62.3805C116.496 61.16 118.317 59.3994 119.25 58.4591C120.204 57.5187 121.939 55.8382 123.11 54.7178C125.43 52.497 125.473 52.417 124.563 51.2166C124.324 50.9365 124.151 50.6563 124.151 50.6164C124.151 50.5563 123.197 48.9158 122.026 46.9351C120.854 44.9744 119.51 42.7135 119.055 41.9533C118.6 41.1731 117.841 39.9126 117.386 39.1523C116.908 38.3721 116.453 37.6118 116.366 37.4517C116.171 37.1116 114.371 36.7315 113.851 36.9316C113.569 37.0316 113.525 37.9519 113.525 43.5539V50.0561H106.804H100.082L100.038 43.4939L99.973 36.9516L98.6292 36.8916L97.2847 36.8315L96.4827 38.192Z" fill="#3EAEB1"/>
<path d="M38.0674 48.7958C38.0674 49.1558 38.6745 51.3166 39.5419 54.1576C41.385 60.1798 44.6375 65.5616 48.6706 69.2629C51.0558 71.4637 52.5953 72.384 55.1973 73.1843C57.8643 74.0045 61.5288 73.4243 64.3043 71.7238C66.0823 70.6434 69.7034 67.2022 71.0695 65.2615C72.5873 63.1408 74.0618 60.5599 74.9508 58.5391C76.1434 55.7782 77.7265 50.6964 77.8132 49.3559L77.8562 48.5556L57.9728 48.4956C39.1082 48.4556 38.0674 48.4757 38.0674 48.7958Z" fill="#3EAEB1"/>
</svg>
