<svg width="132" height="137" viewBox="0 0 132 137" fill="none" xmlns="http://www.w3.org/2000/svg">
<path d="M20.6154 24.7156C15.5016 25.8039 10.86 29.754 8.95 34.6917C8.53926 35.7396 8.10796 36.8279 7.98478 37.1101C7.86153 37.4325 7.82047 47.9326 7.84097 65.7282L7.90259 93.8425L8.58032 95.2131C9.83317 97.692 11.2092 99.0618 13.6942 100.271C14.9881 100.916 15.7891 101.017 20.6565 101.158L24.7024 101.299L25.2775 102.63C27.1259 107.063 30.2065 109.945 34.7043 111.416C35.6079 111.699 36.45 111.779 38.9145 111.759C42.2211 111.759 42.9194 111.598 45.733 110.207C48.3824 108.877 51.0112 105.814 52.2845 102.549L52.8185 101.198H70.6658H88.5133L88.6361 101.762C88.8824 102.972 89.8072 104.785 90.7926 106.076C93.5447 109.683 97.2207 111.638 101.595 111.84C105.908 112.041 109.522 110.691 112.583 107.768C114.164 106.257 114.842 105.229 115.725 103.053L116.485 101.218L117.923 100.776C121.372 99.7073 123.345 97.9137 124.577 94.7496L125.152 93.2377L125.234 80.7422C125.316 66.5746 125.172 63.0276 124.351 59.9844C123.118 55.4297 119.73 50.8951 115.52 48.2147C111.576 45.7156 109.379 45.0304 104.635 44.8692C101.862 44.7684 90.4849 44.587 87.3629 44.5669H86.1097L85.9662 41.2415C85.8227 37.4729 85.6377 36.3644 84.9393 34.6715C84.0767 32.5553 83.1113 31.2051 81.0169 29.1292C78.7576 26.9123 77.6486 26.207 74.7733 25.1187L72.8632 24.4133L47.376 24.4335C27.0026 24.4335 21.6218 24.494 20.6154 24.7156ZM73.007 31.2656C75.451 32.2933 77.5051 34.2684 78.8811 36.9287L79.4767 38.0976V66.4335V94.7496L66.2091 94.7089C54.6463 94.6483 52.9006 94.6084 52.7775 94.3459C52.6953 94.1847 52.3872 93.4994 52.1202 92.8348C50.4772 88.8848 46.9858 85.7605 42.8167 84.4912C40.9272 83.9064 36.6348 83.8864 34.807 84.4505C32.0138 85.297 30.761 86.0429 28.5019 88.2194C27.3929 89.2877 26.9411 89.9531 26.0168 91.7865C25.4007 93.0359 24.8257 94.2254 24.7641 94.4265C24.6408 94.7895 24.4149 94.8094 20.7592 94.7089C16.3847 94.5884 15.6247 94.3866 14.8854 93.1372C14.4747 92.4319 14.4747 92.1295 14.413 65.3452L14.372 38.2387L15.0908 36.7473C15.8917 35.0745 17.9866 32.777 19.4653 31.9306C21.3342 30.8423 20.2252 30.8826 47.0679 30.8826C71.5488 30.8624 72.0623 30.8624 73.007 31.2656ZM107.407 51.4594C109.03 51.9028 109.933 52.3059 111.494 53.3337C114.123 55.0467 116.793 58.1504 117.759 60.589C118.066 61.3951 118.703 64.2166 118.703 64.8213C118.703 65.0832 116.957 65.1236 102.375 65.1236H86.0483V58.0497V50.9959L96.1731 51.0765C104.367 51.1369 106.483 51.2176 107.407 51.4594ZM118.662 81.2864C118.6 90.8395 118.559 92.3306 118.272 92.9353C117.923 93.7013 116.978 94.4472 116.567 94.286C116.423 94.2254 116.013 93.4795 115.643 92.633C114.822 90.6983 114.308 89.8924 112.994 88.4819C111.412 86.7889 109.297 85.4582 106.894 84.6723C105.025 84.0476 104.614 83.987 102.375 83.987C100.075 83.987 99.7878 84.0276 97.7963 84.713C93.7703 86.1036 90.2792 89.3683 89.006 92.8747C88.4511 94.4672 88.082 94.7895 86.9723 94.7089L86.1511 94.6483L86.0897 82.4958L86.0483 70.3635H102.396H118.723L118.662 81.2864ZM40.4959 90.5371C42.0773 90.8801 43.0631 91.4243 44.3159 92.7136C46 94.4265 46.267 95.0719 46.3697 97.5707C46.4724 100.05 46.2464 100.835 45.0552 102.327C43.3507 104.484 41.4611 105.431 38.8529 105.431C36.0187 105.431 34.2113 104.584 32.63 102.528C30.5762 99.8684 30.5146 96.3413 32.4452 93.5401C34.2113 91.0006 37.2509 89.8725 40.4959 90.5371ZM104.367 90.5371C105.908 90.8594 106.38 91.1418 107.9 92.633C109.03 93.7419 109.297 94.1648 109.667 95.273C110.221 97.0465 110.2 99.002 109.625 100.695C109.255 101.864 109.009 102.186 107.674 103.416C105.846 105.088 105.189 105.33 102.375 105.33C99.7471 105.33 98.8638 105.068 97.467 103.798C95.8861 102.387 95.167 101.218 94.7564 99.4655C94.4487 98.0749 94.4487 97.8731 94.7564 96.4825C95.2491 94.3459 96.8922 92.0889 98.6175 91.2025C100.178 90.3959 102.417 90.1342 104.367 90.5371Z" fill="#3EAEB1"/>
<path d="M44.2534 36.3242C36.141 37.2109 29.0555 42.8741 26.5088 50.5727C25.5641 53.374 25.3998 54.7445 25.523 58.1505C25.6051 60.8511 25.7078 61.4154 26.2829 63.1889C27.1865 65.9499 27.5768 66.7964 28.8912 68.7513C30.9449 71.8146 34.2926 74.7772 37.2706 76.1073C39.119 76.9538 39.2011 76.9739 40.9673 77.5383C47.1081 79.4323 54.44 78.1023 59.862 74.092C63.2096 71.6131 66.0438 67.7637 67.3582 63.9144C68.3235 61.1131 68.5905 57.2839 68.0771 53.7167C67.3171 48.4163 63.7231 42.8942 59.0199 39.7704C55.7545 37.6139 53.0846 36.6869 48.977 36.304C46.5125 36.0823 46.3687 36.0823 44.2534 36.3242ZM48.4636 41.5439C50.5995 41.7858 53.331 42.5516 54.6043 43.2771C55.5696 43.8414 57.5823 45.4134 58.527 46.3606C59.3896 47.2272 60.9916 49.4239 61.5461 50.5123C62.9631 53.233 63.3123 58.1504 62.347 61.7781C61.8747 63.4912 61.1764 64.8818 59.9236 66.5545C58.3627 68.59 56.4322 70.2023 54.2758 71.2503C51.2772 72.7014 50.4558 72.8827 46.8205 72.8827C43.3703 72.8626 42.672 72.7215 39.7351 71.3713C34.0872 68.7916 30.5136 62.7051 30.8628 56.3568C31.0066 54.019 31.4379 52.4067 32.6085 49.9882C34.1899 46.7637 38.1947 43.3578 41.7683 42.2493C44.5409 41.3827 45.8348 41.2416 48.4636 41.5439Z" fill="#3EAEB1"/>
<path d="M45.6506 45.2119C45.2193 45.5142 44.9318 45.9173 44.8496 46.3002C44.7881 46.663 44.7059 49.2829 44.7059 52.1447C44.6648 57.8482 44.7059 58.1303 45.856 58.9566C46.4105 59.3598 46.6775 59.3799 52.2433 59.3799C57.316 59.3799 58.0965 59.3396 58.5483 59.0373C59.6162 58.352 59.8217 56.6591 58.9591 55.6112C58.5688 55.1477 58.4661 55.1477 53.8657 55.0469L49.1832 54.9461L49.0804 50.4921C48.9777 45.6956 48.9572 45.6351 47.8276 45.0507C47.0266 44.6476 46.4105 44.6879 45.6506 45.2119Z" fill="#3EAEB1"/>
</svg>
