<svg width="50" height="50" viewBox="0 0 50 50" fill="none" xmlns="http://www.w3.org/2000/svg">
	<path d="M25 0C11.215 0 0 11.215 0 25C0 38.785 11.215 50 25 50C28.665 50 32.4025 49.0725 36.105 47.24L33.8925 42.7575C30.8825 44.245 27.89 45 25 45C13.9725 45 5 36.0275 5 25C5 13.9725 13.9725 5 25 5C36.0275 5 45 13.9725 45 25V27.5C45 29.23 44.2175 32.5 41.25 32.5C37.76 32.5 37.515 27.9525 37.5 27.5V15H32.5V15.0625C30.405 13.4775 27.825 12.5 25 12.5C18.1075 12.5 12.5 18.1075 12.5 25C12.5 31.8925 18.1075 37.5 25 37.5C28.625 37.5 31.87 35.9225 34.155 33.4475C35.465 35.6725 37.675 37.5 41.25 37.5C46.9325 37.5 50 32.3475 50 27.5V25C50 11.215 38.785 0 25 0ZM25 32.5C20.865 32.5 17.5 29.135 17.5 25C17.5 20.865 20.865 17.5 25 17.5C29.135 17.5 32.5 20.865 32.5 25C32.5 29.135 29.135 32.5 25 32.5Z" fill="#00B3B3" />
</svg>
