<svg width="50" height="50" viewBox="0 0 50 50" fill="none" xmlns="http://www.w3.org/2000/svg">
<path d="M24.9993 35.4167C26.1499 35.4167 27.0827 34.4839 27.0827 33.3333C27.0827 32.1827 26.1499 31.25 24.9993 31.25C23.8488 31.25 22.916 32.1827 22.916 33.3333C22.916 34.4839 23.8488 35.4167 24.9993 35.4167Z" stroke="#3EAEB1" stroke-width="5" stroke-linecap="round" stroke-linejoin="round"/>
<path d="M39.5833 20.833H10.4167C8.11548 20.833 6.25 22.6985 6.25 24.9997V41.6663C6.25 43.9675 8.11548 45.833 10.4167 45.833H39.5833C41.8845 45.833 43.75 43.9675 43.75 41.6663V24.9997C43.75 22.6985 41.8845 20.833 39.5833 20.833Z" stroke="#3EAEB1" stroke-width="5" stroke-linecap="round" stroke-linejoin="round"/>
<path d="M14.584 20.8337V14.5837C14.584 11.821 15.6815 9.17147 17.635 7.21796C19.5885 5.26446 22.238 4.16699 25.0007 4.16699C27.7633 4.16699 30.4128 5.26446 32.3663 7.21796C34.3199 9.17147 35.4173 11.821 35.4173 14.5837V20.8337" stroke="#3EAEB1" stroke-width="5" stroke-linecap="round" stroke-linejoin="round"/>
</svg>
