<svg xmlns="http://www.w3.org/2000/svg" width="341" height="291" fill="none"><path fill="#040000" d="m283.377.028.611.421-.17.73-.644 1.824-.815 1.46-1.968 3.283-1.459 2.19-3.292 4.77-2.137 2.948-4.615 6.315-2.783 3.733-26.773 38.255-16.797 26.495-7.703 13.415-14.829 26.86-6.481 13.192-12.318 26.214-4.988 12.49-2.986 7.381-1.663 3.986-.679 1.571-1.289 2.835-.577 1.038-1.018 1.797-.475.561-.848.898-.408.113-.746.084-.407-.225-1.527-1.6-.984-1.599-1.969-3.789-1.459-3.368-.78-1.937-3.02-8.364-1.154-4.042-1.832-5.725-1.29-3.34-.611-1.347-1.255-2.414-.543-.758-1.018-1.151h-.373l-1.324.814-1.154 1.291-.712.983-1.527 2.189-.848 1.375-1.731 2.919-.984 1.684-4.004 7.382-2.172 4.266-4.343 8.869-2.172 4.603-4.208 9.262-1.866 4.434-3.597 8.589-1.358 3.677-1.289 3.536-.509 1.544-.916 2.947-.306 1.178-.475 2.218-.068.757v1.32l.204.28 1.663.477 2.273.337 1.697.141 3.733.28 2.307.141 4.988.252 2.919.112 6.04.225 3.359.084 6.99.169 3.733.056 15.745.196h70.649l32.712-47.208 12.691-18.496 3.801-5.641 1.73-2.582 3.36-5.024 1.493-2.246 2.816-4.266 1.188-1.824 2.206-3.424.814-1.319 1.459-2.386.441-.786.679-1.263v-.14l-.407-1.151-.679-1.319-.543-.898-2.511-4.182-1.765-2.807-3.902-5.95-2.239-3.368-4.683-6.933-2.443-3.564-4.955-7.073-2.341-3.34-4.615-6.427-2.002-2.694-3.733-4.968-1.357-1.656-1.256-1.516-.441-.477-.814-.814-.204-.112-1.832.505-2.002 1.263-1.256.983-5.633 4.827-3.156 3.087-6.277 6.484-2.545 3.003-2.409 2.947-.917 1.263-1.595 2.385-.373.871-1.663 1.88-1.391.253-.611-.478-.135-1.15.373-1.404.407-.982 2.104-4.659 1.697-3.115 3.766-6.765 2.274-3.817 4.818-7.886 2.579-4.042 5.226-8.083 2.545-3.789 5.056-7.297 2.24-3.032 4.241-5.557 1.629-1.796 1.493-1.628.611-.505 1.086-.786.339-.056 1.663.87 1.697 1.515 1.119 1.207 2.376 2.639 1.391 1.684 2.952 3.564 1.663 2.105 7.024 9.094 3.902 5.304 7.975 11.059 4.072 5.781 8.042 11.676 3.733 5.613 7.16 10.946 2.952 4.744 2.816 4.603 1.188 2.02 2.206 3.902.848 1.599 1.527 3.004.441 1.094.679 1.965-.034.505-.849 2.217-1.323 2.582-1.052 1.769-2.273 3.873-1.46 2.329-3.121 4.968-1.799 2.863-3.834 5.894-2.138 3.256-4.445 6.68-2.41 3.564-10.112 14.847-5.531 7.915-40.211 57.537-80.456 1.403-80.422 1.403-6.311 9.824-6.346 9.823-.136-9.823.475-7.719.883-6.904.644-4.126 1.46-8.672.916-4.828 1.934-9.935 1.12-5.277 4.818-21.695 2.715-10.722 2.748-10.609 1.392-5.024 2.782-9.795 1.358-4.407 8.211-24.446 5.566-14.903 2.85-6.764 5.769-13.051 2.918-5.838 5.938-11.199 3.054-4.911 2.952-4.603 1.731-2.274.747-.73 1.425-1.178.644-.169h1.222l.577.45 1.154 1.234.577 1.123 1.153 2.526.611 1.796 1.222 3.93.678 2.526 1.426 5.388.814 3.284 1.9 6.82 1.324 3.986.644 1.572 1.256 2.89.543.899 1.018 1.375h.373l1.018-.674 1.222-1.066.814-.814 1.799-1.825 1.051-1.15 2.308-2.442 1.289-1.432 5.532-6.146 3.155-3.621 6.482-7.465 3.325-3.93 6.685-7.943 3.19-3.817 6.142-7.465 2.612-3.284 4.853-6.175 1.697-2.301 1.561-2.133.542-.814.951-1.488.203-.42-.102-1.04-.78-.589-.814-.252-1.901-.45-1.425-.196-3.258-.365-2.171-.14-4.785-.253-3.02-.084-6.515-.168-3.97-.056-8.45-.113-5.022-.028-10.587-.028H104.65L71.701 97.42l-12.793 18.496-3.834 5.614-1.765 2.61-3.393 4.996-1.493 2.245-2.85 4.266-1.188 1.796-2.206 3.397-.814 1.319-1.493 2.385-.441.758-.68 1.207v.14l1.324 2.975 2.07 3.481 1.493 2.245 3.19 4.827 1.866 2.723 3.835 5.529 2.002 2.807 4.038 5.585 1.934 2.61 3.767 4.996 1.629 2.049 3.02 3.761 1.085 1.179 1.833 1.88h.305l1.358-1.01 1.29-1.6.78-1.151 3.393-5.501 1.764-3.508 2.58-4.856 1.628-2.75.713-1.039 1.323-1.852.51-.505.881-.674.204.168.17 2.134-.306 2.89-.34 2.021-.814 4.379-.542 2.582-1.188 5.389-.713 2.89-2.171 9.627-1.358 7.129-.61 3.593-1.12 7.157-.442 3.312-.746 6.343-.204 2.582-.644 7.381-.51 4.407-.27 1.824-.544 3.312-.271 1.123-.51 1.796-.203.168-1.154.365-1.017-.337-.713-.561-1.561-1.375-1.052-1.151-2.308-2.694-1.492-1.909-3.258-4.266-2.07-2.807-4.48-6.118-2.714-3.873-5.87-8.252-3.53-5.024-3.63-5.164-1.968-2.835-4.072-5.838-2.206-3.143-8.517-12.321-4.955-7.326-2.137-3.228-4.038-6.174-1.697-2.667-3.156-5.108-1.29-2.189-2.34-4.126-.883-1.712-1.561-3.199-.475-1.263-.815-2.33-.135-.898L0 141.989l.204-.533 1.968-3.649 2.24-3.564 1.458-2.161 6.72-9.543 3.868-5.024 11.164-14.959 3.122-4.379 1.187-1.768 2.138-3.2.577-.954 4.58-7.578 3.53-5.557 1.934-2.947 8.042-12.013 4.106-5.865 4.106-5.782 1.968-2.695 3.869-5.22 1.764-2.33 3.394-4.378 1.459-1.768 2.748-3.256 1.052-1.095 9.366-9.683H253.99l16.424-13.331 6.21-4.884 3.223-2.273 1.12-.646 1.9-.954.509.028Z"/></svg>