<svg width="46" height="42" viewBox="0 0 46 42" fill="none" xmlns="http://www.w3.org/2000/svg">
<path d="M34.4729 4.70915C35.4097 3.87867 36.6802 3.41211 38.005 3.41211C39.3297 3.41211 40.6002 3.87867 41.537 4.70915C42.4737 5.53963 43 6.66601 43 7.84049C43 9.01497 42.4737 10.1413 41.537 10.9718L13.2761 36.0288C12.7162 36.5251 12.0243 36.8881 11.2641 37.0844L4.50599 38.8326C4.30351 38.8849 4.08888 38.8881 3.88456 38.8417C3.68024 38.7953 3.49375 38.701 3.34461 38.5688C3.19546 38.4366 3.08916 38.2712 3.03681 38.0901C2.98446 37.9089 2.98801 37.7187 3.04706 37.5391L5.01897 31.5477C5.24069 30.8745 5.65019 30.2618 6.20965 29.7661L34.4729 4.70915Z" stroke="#3EAEB1" stroke-width="5" stroke-linecap="round" stroke-linejoin="round"/>
</svg>

