<svg width="50" height="53" viewBox="0 0 50 53" fill="none" xmlns="http://www.w3.org/2000/svg">
	<path d="M24.9993 22.2223C29.6017 22.2223 33.3327 18.4914 33.3327 13.889C33.3327 9.28662 29.6017 5.55566 24.9993 5.55566C20.397 5.55566 16.666 9.28662 16.666 13.889C16.666 18.4914 20.397 22.2223 24.9993 22.2223Z" fill="#00B3B3" />
	<path d="M25 0C17.3417 0 11.1111 6.23056 11.1111 13.8889C11.1111 21.5472 17.3417 27.7778 25 27.7778C32.6583 27.7778 38.8889 21.5472 38.8889 13.8889C38.8889 6.23056 32.6583 0 25 0ZM25 22.2222C20.4056 22.2222 16.6667 18.4833 16.6667 13.8889C16.6667 9.29445 20.4056 5.55556 25 5.55556C29.5944 5.55556 33.3333 9.29445 33.3333 13.8889C33.3333 18.4833 29.5944 22.2222 25 22.2222ZM50 52.7778V50C50 39.2806 41.275 30.5556 30.5556 30.5556H19.4444C8.72222 30.5556 0 39.2806 0 50V52.7778H5.55556V50C5.55556 42.3417 11.7861 36.1111 19.4444 36.1111H30.5556C38.2139 36.1111 44.4444 42.3417 44.4444 50V52.7778H50Z" fill="#00B3B3" />
</svg>
