<svg width="237" height="50" viewBox="0 0 237 50" fill="none" xmlns="http://www.w3.org/2000/svg">
<path d="M21.5192 4.32715L27.2121 16.8672L39.9427 18.8905L30.731 28.6461L32.9049 42.4281L21.5192 35.9177L10.1335 42.4281L12.3075 28.6461L3.0957 18.8905L15.8263 16.8672L21.5192 4.32715Z" fill="#3EAEB1" stroke="#3EAEB1" stroke-width="2" stroke-linecap="round" stroke-linejoin="round"/>
<path d="M68.8298 4.32715L74.5226 16.8672L87.2533 18.8905L78.0415 28.6461L80.2155 42.4281L68.8298 35.9177L57.444 42.4281L59.618 28.6461L50.4062 18.8905L63.1369 16.8672L68.8298 4.32715Z" fill="#3EAEB1" stroke="#3EAEB1" stroke-width="2" stroke-linecap="round" stroke-linejoin="round"/>
<path d="M116.142 4.32715L121.835 16.8672L134.566 18.8905L125.354 28.6461L127.528 42.4281L116.142 35.9177L104.757 42.4281L106.931 28.6461L97.7188 18.8905L110.449 16.8672L116.142 4.32715Z" fill="#3EAEB1" stroke="#3EAEB1" stroke-width="2" stroke-linecap="round" stroke-linejoin="round"/>
<path d="M163.453 4.32715L169.146 16.8672L181.876 18.8905L172.665 28.6461L174.839 42.4281L163.453 35.9177L152.067 42.4281L154.241 28.6461L145.029 18.8905L157.76 16.8672L163.453 4.32715Z" fill="#3EAEB1" stroke="#3EAEB1" stroke-width="2" stroke-linecap="round" stroke-linejoin="round"/>
<path d="M210.765 4.32715L216.458 16.8672L229.189 18.8905L219.977 28.6461L222.151 42.4281L210.765 35.9177L199.38 42.4281L201.554 28.6461L192.342 18.8905L205.072 16.8672L210.765 4.32715Z" fill="#3EAEB1" stroke="#3EAEB1" stroke-width="2" stroke-linecap="round" stroke-linejoin="round"/>
</svg>
