<svg width="50" height="50" viewBox="0 0 50 50" fill="none" xmlns="http://www.w3.org/2000/svg">
	<path d="M38.7052 27.0797C37.6766 26.0511 36.0139 26.0511 34.9852 27.0797L30.7917 31.2732C28.8475 30.6945 25.2196 29.379 22.9203 27.0797C20.621 24.7804 19.3055 21.1525 18.7268 19.2083L22.9203 15.0148C23.9489 13.9861 23.9489 12.3234 22.9203 11.2948L12.397 0.771489C11.3684 -0.257163 9.70567 -0.257163 8.67702 0.771489L1.54223 7.90628C0.54252 8.90599 -0.0204769 10.2793 0.000569691 11.6815C0.0610786 15.4278 1.0529 28.4398 11.3078 38.6948C21.5628 48.9497 34.5748 49.9389 38.3238 50.0021H38.3974C39.7865 50.0021 41.0993 49.4549 42.0937 48.4604L49.2285 41.3256C50.2572 40.297 50.2572 38.6343 49.2285 37.6056L38.7052 27.0797ZM38.3711 44.7378C35.0878 44.6825 23.8542 43.8012 15.0278 34.9722C6.17248 26.1168 5.31483 14.8438 5.26221 11.6263L10.537 6.35146L17.3403 13.1548L13.9387 16.5564C13.3099 17.1826 13.0416 18.0876 13.2231 18.9557C13.2862 19.2583 14.8305 26.4325 19.1977 30.7997C23.5648 35.1669 30.7391 36.7112 31.0416 36.7743C31.9177 36.9611 32.8148 36.6901 33.4409 36.0613L36.8452 32.6597L43.6485 39.463L38.3711 44.7378Z" fill="#00B3B3" />
</svg>
