<svg width="30" height="30" viewBox="0 0 30 30" fill="none" xmlns="http://www.w3.org/2000/svg">
<path d="M14.4065 2.86862C14.4613 2.75794 14.5459 2.66478 14.6509 2.59965C14.7558 2.53451 14.8768 2.5 15.0003 2.5C15.1238 2.5 15.2448 2.53451 15.3497 2.59965C15.4546 2.66478 15.5393 2.75794 15.594 2.86862L18.4815 8.71737C18.6718 9.10233 18.9526 9.43538 19.2998 9.68793C19.6471 9.94049 20.0505 10.105 20.4753 10.1674L26.9328 11.1124C27.0552 11.1301 27.1701 11.1817 27.2647 11.2614C27.3592 11.341 27.4296 11.4456 27.4678 11.5631C27.5061 11.6807 27.5106 11.8066 27.481 11.9267C27.4514 12.0467 27.3888 12.1561 27.3003 12.2424L22.6303 16.7899C22.3223 17.09 22.0919 17.4605 21.9588 17.8694C21.8258 18.2783 21.7941 18.7135 21.8665 19.1374L22.969 25.5624C22.9906 25.6847 22.9774 25.8106 22.9309 25.9257C22.8844 26.0409 22.8065 26.1406 22.706 26.2136C22.6055 26.2866 22.4865 26.3299 22.3626 26.3385C22.2387 26.3471 22.1149 26.3207 22.0053 26.2624L16.2328 23.2274C15.8524 23.0277 15.4293 22.9233 14.9997 22.9233C14.5701 22.9233 14.1469 23.0277 13.7665 23.2274L7.9953 26.2624C7.88571 26.3204 7.76204 26.3465 7.63836 26.3377C7.51468 26.3289 7.39594 26.2856 7.29567 26.2126C7.19539 26.1397 7.11759 26.0401 7.07112 25.9251C7.02465 25.8102 7.01137 25.6845 7.0328 25.5624L8.13405 19.1386C8.20679 18.7145 8.17528 18.2791 8.04222 17.8699C7.90916 17.4607 7.67856 17.0901 7.3703 16.7899L2.7003 12.2436C2.61104 12.1574 2.54779 12.0479 2.51775 11.9275C2.48771 11.8071 2.49209 11.6806 2.53039 11.5626C2.5687 11.4446 2.63938 11.3397 2.73439 11.2598C2.8294 11.18 2.94493 11.1285 3.0678 11.1111L9.52405 10.1674C9.94937 10.1055 10.3533 9.94119 10.701 9.6886C11.0488 9.43601 11.3299 9.10271 11.5203 8.71737L14.4065 2.86862Z" stroke="#3EAEB1" stroke-width="3" stroke-linecap="round" stroke-linejoin="round"/>
</svg>
