<svg width="341" height="291" viewBox="0 0 341 291" fill="none" xmlns="http://www.w3.org/2000/svg">
<path d="M283.377 0.028L283.988 0.449L283.818 1.179L283.174 3.003L282.359 4.463L280.391 7.746L278.932 9.936L275.64 14.706L273.503 17.654L268.888 23.969L266.105 27.702L239.332 65.957L222.535 92.452L214.832 105.867L200.003 132.727L193.522 145.919L181.204 172.133L176.216 184.623L173.23 192.004L171.567 195.99L170.888 197.561L169.599 200.396L169.022 201.434L168.004 203.231L167.529 203.792L166.681 204.69L166.273 204.803L165.527 204.887L165.12 204.662L163.593 203.062L162.609 201.463L160.64 197.674L159.181 194.306L158.401 192.369L155.381 184.005L154.227 179.963L152.395 174.238L151.105 170.898L150.494 169.551L149.239 167.137L148.696 166.379L147.678 165.228H147.305L145.981 166.042L144.827 167.333L144.115 168.316L142.588 170.505L141.74 171.88L140.009 174.799L139.025 176.483L135.021 183.865L132.849 188.131L128.506 197L126.334 201.603L122.126 210.865L120.26 215.299L116.663 223.888L115.305 227.565L114.016 231.101L113.507 232.645L112.591 235.592L112.285 236.77L111.81 238.988L111.742 239.745V241.065L111.946 241.345L113.609 241.822L115.882 242.159L117.579 242.3L121.312 242.58L123.619 242.721L128.607 242.973L131.526 243.085L137.566 243.31L140.925 243.394L147.915 243.563L151.648 243.619L167.393 243.815H238.042L270.754 196.607L283.445 178.111L287.246 172.47L288.976 169.888L292.336 164.864L293.829 162.618L296.645 158.352L297.833 156.528L300.039 153.104L300.853 151.785L302.312 149.399L302.753 148.613L303.432 147.35V147.21L303.025 146.059L302.346 144.74L301.803 143.842L299.292 139.66L297.527 136.853L293.625 130.903L291.386 127.535L286.703 120.602L284.26 117.038L279.305 109.965L276.964 106.625L272.349 100.198L270.347 97.504L266.614 92.536L265.257 90.88L264.001 89.364L263.56 88.887L262.746 88.073L262.542 87.961L260.71 88.466L258.708 89.729L257.452 90.712L251.819 95.539L248.663 98.626L242.386 105.11L239.841 108.113L237.432 111.06L236.515 112.323L234.92 114.708L234.547 115.579L232.884 117.459L231.493 117.712L230.882 117.234L230.747 116.084L231.12 114.68L231.527 113.698L233.631 109.039L235.328 105.924L239.094 99.159L241.368 95.342L246.186 87.456L248.765 83.414L253.991 75.331L256.536 71.542L261.592 64.245L263.832 61.213L268.073 55.656L269.702 53.86L271.195 52.232L271.806 51.727L272.892 50.941L273.231 50.885L274.894 51.755L276.591 53.27L277.71 54.477L280.086 57.116L281.477 58.8L284.429 62.364L286.092 64.469L293.116 73.563L297.018 78.867L304.993 89.926L309.065 95.707L317.107 107.383L320.84 112.996L328 123.942L330.952 128.686L333.768 133.289L334.956 135.309L337.162 139.211L338.01 140.81L339.537 143.814L339.978 144.908L340.657 146.873L340.623 147.378L339.774 149.595L338.451 152.177L337.399 153.946L335.126 157.819L333.666 160.148L330.545 165.116L328.746 167.979L324.912 173.873L322.774 177.129L318.329 183.809L315.919 187.373L305.807 202.22L300.276 210.135L260.065 267.672L179.609 269.075L99.187 270.478L92.876 280.302L86.53 290.125L86.394 280.302L86.869 272.583L87.752 265.679L88.396 261.553L89.856 252.881L90.772 248.053L92.706 238.118L93.826 232.841L98.644 211.146L101.359 200.424L104.107 189.815L105.499 184.791L108.281 174.996L109.639 170.589L117.85 146.143L123.416 131.24L126.266 124.476L132.035 111.425L134.953 105.587L140.891 94.388L143.945 89.477L146.897 84.874L148.628 82.6L149.375 81.87L150.8 80.692L151.444 80.523H152.666L153.243 80.973L154.397 82.207L154.974 83.33L156.127 85.856L156.738 87.652L157.96 91.582L158.638 94.108L160.064 99.496L160.878 102.78L162.778 109.6L164.102 113.586L164.746 115.158L166.002 118.048L166.545 118.947L167.563 120.322H167.936L168.954 119.648L170.176 118.582L170.99 117.768L172.789 115.943L173.84 114.793L176.148 112.351L177.437 110.919L182.969 104.773L186.124 101.152L192.606 93.687L195.931 89.757L202.616 81.814L205.806 77.997L211.948 70.532L214.56 67.248L219.413 61.073L221.11 58.772L222.671 56.639L223.213 55.825L224.164 54.337L224.367 53.917L224.265 52.877L223.485 52.288L222.671 52.036L220.77 51.586L219.345 51.39L216.087 51.025L213.916 50.885L209.131 50.632L206.111 50.548L199.596 50.38L195.626 50.324L187.176 50.211L182.154 50.183L171.567 50.155H104.65L71.701 97.42L58.908 115.916L55.074 121.53L53.309 124.14L49.916 129.136L48.423 131.381L45.573 135.647L44.385 137.443L42.179 140.84L41.365 142.159L39.872 144.544L39.431 145.302L38.751 146.509V146.649L40.075 149.624L42.145 153.105L43.638 155.35L46.828 160.177L48.694 162.9L52.529 168.429L54.531 171.236L58.569 176.821L60.503 179.431L64.27 184.427L65.899 186.476L68.919 190.237L70.004 191.416L71.837 193.296H72.142L73.5 192.286L74.79 190.686L75.57 189.535L78.963 184.034L80.727 180.526L83.307 175.67L84.935 172.92L85.648 171.881L86.971 170.029L87.481 169.524L88.362 168.85L88.566 169.018L88.736 171.152L88.43 174.042L88.09 176.063L87.276 180.442L86.734 183.024L85.546 188.413L84.833 191.303L82.662 200.93L81.304 208.059L80.694 211.652L79.574 218.809L79.132 222.121L78.386 228.464L78.182 231.046L77.538 238.427L77.028 242.834L76.758 244.658L76.214 247.97L75.943 249.093L75.433 250.889L75.23 251.057L74.076 251.422L73.059 251.085L72.346 250.524L70.785 249.149L69.733 247.998L67.425 245.304L65.933 243.395L62.675 239.129L60.605 236.322L56.125 230.204L53.411 226.331L47.541 218.079L44.011 213.055L40.381 207.891L38.413 205.056L34.341 199.218L32.135 196.075L23.618 183.754L18.663 176.428L16.526 173.2L12.488 167.026L10.791 164.359L7.635 159.251L6.345 157.062L4.005 152.936L3.122 151.224L1.561 148.025L1.086 146.762L0.271 144.432L0.136 143.534L0 141.989L0.204 141.456L2.172 137.807L4.412 134.243L5.87 132.082L12.59 122.539L16.458 117.515L27.622 102.556L30.744 98.177L31.931 96.409L34.069 93.209L34.646 92.255L39.226 84.677L42.756 79.12L44.69 76.173L52.732 64.16L56.838 58.295L60.944 52.513L62.912 49.818L66.781 44.598L68.545 42.268L71.939 37.89L73.398 36.122L76.146 32.866L77.198 31.771L86.564 22.088H253.99L270.414 8.757L276.624 3.873L279.847 1.6L280.967 0.954L282.867 0L283.376 0.028H283.377Z" fill="#3EAEB1"/>
</svg>
