<svg width="47" height="46" viewBox="0 0 47 46" fill="none" xmlns="http://www.w3.org/2000/svg">
<path d="M15.868 3.84081C15.4016 3.93264 14.8927 4.32914 14.6426 4.80496L14.5195 5.03033V11.1656C14.5195 16.9211 14.5238 17.3301 14.5959 17.7809C14.7061 18.457 14.9224 19.2708 15.1302 19.7842C15.4143 20.4937 15.4313 20.5104 15.9019 20.7191C16.6822 21.0614 18.2681 21.9503 19.2477 22.5973C19.7608 22.9353 20.2994 23.3235 20.8294 23.7409L21.1983 24.033L21.6987 24.0622C22.1864 24.0956 23.467 24.0664 23.8189 24.0163L23.997 23.9871V21.6999V19.4086H20.8379C18.5692 19.4086 17.6787 19.3961 17.6787 19.3627C17.6787 19.25 17.9925 18.6198 18.2045 18.3109C19.0357 17.0755 20.3418 16.4035 22.11 16.2992C22.7546 16.2616 23.3906 16.3493 23.9335 16.558C23.9801 16.5747 23.9928 16.1823 24.0055 14.4962C24.0225 12.522 24.031 12.401 24.1158 12.0838C24.4084 11.0195 24.9003 10.3809 25.7272 9.99278C26.5668 9.59631 27.2623 9.50032 27.8772 9.68811C28.0381 9.73821 28.6448 10.0095 29.2213 10.2933C29.7982 10.5771 30.2816 10.8108 30.2941 10.8108C30.307 10.8108 30.3111 9.50868 30.307 7.91849L30.2941 5.03033L30.1712 4.78407C30.0099 4.46271 29.6708 4.13296 29.3189 3.96188C29.0601 3.83664 28.9967 3.82415 28.6871 3.82832C28.2207 3.83664 27.8433 3.941 26.7576 4.36672C24.7349 5.16386 23.8953 5.35588 22.4281 5.36005C21.0033 5.36421 20.0576 5.15553 18.2639 4.44183C17.2335 4.0328 16.8391 3.90759 16.3811 3.84497C16.2073 3.81995 16.0589 3.7991 16.0546 3.80327C16.0504 3.80743 15.9656 3.82415 15.868 3.84081ZM19.2095 9.30832C19.7184 9.40429 20.2273 9.74237 20.5199 10.1764C20.8124 10.6147 20.9015 11.3117 20.7276 11.8209C20.4478 12.6473 19.7396 13.1523 18.8661 13.1564C17.0935 13.1606 16.2115 11.0779 17.4624 9.84673C17.9289 9.38763 18.5735 9.19144 19.2095 9.30832Z" fill="#3EAEB1"/>
<path d="M26.8298 11.6662C26.4651 11.7664 26.058 12.0753 25.8248 12.4342C25.5492 12.8557 25.5619 12.5302 25.5789 19.0828C25.5916 24.9844 25.5916 25.0261 25.6849 25.5979C25.8672 26.7081 26.1174 27.4927 26.5457 28.2982C26.8849 28.9327 27.1988 29.3542 27.6865 29.8425C28.7549 30.9067 30.1542 31.5329 32.0116 31.7875C32.7496 31.8875 34.3015 31.8875 35.0013 31.7875C36.8202 31.5288 38.1052 30.9694 39.1908 29.9719C40.2341 29.0079 40.9718 27.5636 41.256 25.9401C41.4215 24.9927 41.4297 24.4794 41.4169 18.5736L41.4044 12.8766L41.2688 12.6053C41.0185 12.1086 40.4716 11.6913 39.9798 11.6245C39.5387 11.5619 38.8942 11.733 37.6092 12.2506C36.18 12.8265 35.2726 13.0644 34.1744 13.1437C32.6351 13.2522 31.3672 13.0268 29.5608 12.3131C28.2969 11.8165 28.0554 11.733 27.6567 11.6662C27.2284 11.5911 27.097 11.5911 26.8298 11.6662ZM30.4469 17.1379C30.8158 17.2464 31.0787 17.3967 31.3333 17.6513C32.2321 18.5361 32.0627 19.9718 30.9855 20.6605C30.642 20.8817 30.2857 20.9693 29.8193 20.9443C29.493 20.9317 29.3954 20.9067 29.1238 20.7773C28.3775 20.4267 27.9789 19.8132 27.9789 19.0119C27.9789 18.2648 28.3819 17.6137 29.0519 17.2756C29.4547 17.0753 30.0313 17.0168 30.4469 17.1379ZM37.5455 17.1295C38.5973 17.405 39.2503 18.4651 38.9871 19.4626C38.8518 19.976 38.5592 20.3725 38.1095 20.6605C37.7662 20.8817 37.4098 20.9693 36.9434 20.9443C36.6168 20.9317 36.5196 20.9067 36.248 20.7773C35.8663 20.5979 35.633 20.4059 35.4254 20.0929C35.175 19.7256 35.0988 19.425 35.1158 18.9284C35.1327 18.4568 35.2302 18.1855 35.527 17.8015C35.9638 17.2297 36.8333 16.9417 37.5455 17.1295ZM38.2455 25.6772C38.2455 25.7982 37.9442 26.3991 37.7153 26.7372C36.7863 28.1104 35.2174 28.8157 33.2625 28.7448C32.5037 28.7157 31.9523 28.6113 31.3544 28.3776C30.3239 27.9852 29.4293 27.1505 28.9585 26.1572C28.8694 25.9693 28.7847 25.7732 28.7677 25.719L28.7423 25.6271H33.4915C37.2656 25.6271 38.2455 25.6396 38.2455 25.6772Z" fill="#3EAEB1"/>
<path d="M10.428 20.7692C8.3162 20.9153 6.3783 21.6081 4.97468 22.7183C4.1478 23.3735 3.64315 24.2124 3.36329 25.3977C3.24456 25.8944 3.25304 26.75 3.38026 27.1842C3.6559 28.1355 4.26227 28.8076 5.31817 29.3335C6.07722 29.7092 6.82352 30.2393 7.15854 30.6441C7.38752 30.9195 7.5741 31.2952 7.63345 31.6124C7.69284 31.942 7.62074 32.3636 7.43417 32.7851C6.93803 33.8788 6.84898 34.2458 6.87868 35.1013C6.89562 35.5983 6.91681 35.7735 7.0101 36.0824C7.27729 36.9588 7.89641 37.7895 8.66813 38.3025C9.18972 38.6494 10.428 39.2124 11.4499 39.5673C12.9426 40.0891 14.1978 40.3396 15.5589 40.3856C17.1661 40.4437 18.5358 40.1808 19.8418 39.5633C21.8349 38.6198 23.1537 37.0464 23.9339 34.6799C24.5064 32.9521 24.5191 31.2908 23.9764 29.6507C23.688 28.7743 23.0434 27.639 22.3437 26.775C21.9578 26.3034 20.9656 25.3143 20.4143 24.8593C19.1888 23.8451 17.6199 22.8351 15.983 22.0087C14.7236 21.3743 13.7313 21.053 12.4591 20.8693C11.9164 20.79 10.869 20.7399 10.428 20.7692ZM13.214 23.2984C13.5574 23.4236 13.9391 23.8034 14.0706 24.1456C14.2063 24.4962 14.185 25.0096 14.0154 25.3268C13.7864 25.7692 13.443 26.0321 12.9553 26.1282C11.8951 26.3411 10.941 25.3602 11.2082 24.3335C11.3397 23.8368 11.6365 23.4987 12.1157 23.3067C12.438 23.1732 12.8747 23.1732 13.214 23.2984ZM7.90908 24.6381C8.34586 24.8552 8.59183 25.164 8.71477 25.6273C8.9862 26.6791 7.97695 27.6725 6.90834 27.4053C6.2044 27.2259 5.76342 26.6706 5.76342 25.9612C5.76342 25.3351 6.09841 24.8426 6.68783 24.5964C6.89563 24.5129 6.98468 24.5004 7.31118 24.5129C7.62074 24.5254 7.73525 24.5463 7.90908 24.6381ZM17.5266 25.4645C17.8531 25.5814 18.1542 25.8652 18.3237 26.2032C18.451 26.4537 18.4637 26.5204 18.4637 26.8376C18.4637 27.1548 18.4467 27.2259 18.3237 27.472C18.0651 27.9897 17.5732 28.3025 17.005 28.3069C16.6361 28.3069 16.4198 28.2484 16.1356 28.0564C15.1943 27.4344 15.2748 26.0238 16.2841 25.523C16.6912 25.3185 17.0855 25.2976 17.5266 25.4645ZM20.8256 29.776C20.9741 29.8427 21.1479 29.9762 21.2794 30.114C21.9664 30.8569 21.7458 31.9923 20.8256 32.4388C20.5755 32.5638 20.5034 32.5764 20.1811 32.5764C19.8588 32.5764 19.7867 32.5638 19.5365 32.4388C19.0065 32.1842 18.6927 31.7 18.6842 31.1365C18.68 30.7902 18.7436 30.5732 18.9429 30.2851C19.1252 30.0138 19.3669 29.8301 19.6807 29.7133C20.0072 29.5964 20.4991 29.6216 20.8256 29.776ZM11.6365 33.2026C11.9206 33.2817 12.3277 33.5448 12.4973 33.7576C13.3793 34.8508 12.756 36.4454 11.3651 36.6583C10.394 36.8043 9.48233 36.1405 9.31694 35.1681C9.18972 34.4211 9.62227 33.6243 10.3262 33.2985C10.7672 33.0941 11.1488 33.0689 11.6365 33.2026Z" fill="#3EAEB1"/>
</svg>
