<svg width="132" height="137" viewBox="0 0 132 137" fill="none" xmlns="http://www.w3.org/2000/svg">
<path d="M44.5666 11.439C43.2565 11.7125 41.8273 12.8934 41.1248 14.3105L40.7793 14.9817V33.2542C40.7793 50.3955 40.7912 51.6137 40.9938 52.9561C41.3033 54.9698 41.9108 57.3937 42.4943 58.9226C43.2922 61.0358 43.3399 61.0855 44.6618 61.707C46.8532 62.7263 51.3073 65.3739 54.0584 67.3007C55.4995 68.3075 57.012 69.4635 58.5006 70.7066L59.5368 71.5767L60.9421 71.6636C62.3117 71.7631 65.9084 71.6761 66.8968 71.527L67.397 71.4399V64.6281V57.8039H58.5245C52.1529 57.8039 49.6519 57.7666 49.6519 57.6672C49.6519 57.3316 50.5332 55.4546 51.1287 54.5348C53.4629 50.8554 57.1311 48.8541 62.0973 48.5434C63.9076 48.4315 65.6939 48.6926 67.2184 49.314C67.3494 49.3638 67.3852 48.1953 67.4208 43.1735C67.4685 37.294 67.4923 36.9335 67.7305 35.9888C68.5523 32.8191 69.9338 30.9172 72.2561 29.7612C74.6142 28.5804 76.5674 28.2945 78.2944 28.8538C78.7464 29.003 80.4502 29.811 82.0695 30.6562C83.6895 31.5015 85.0471 32.1976 85.0824 32.1976C85.1185 32.1976 85.13 28.3194 85.1185 23.5834L85.0824 14.9817L84.7371 14.2483C84.2843 13.2912 83.3319 12.3091 82.3434 11.7996C81.6167 11.4266 81.4386 11.3894 80.5691 11.4018C79.2591 11.4266 78.1993 11.7374 75.1501 13.0053C69.4693 15.3794 67.1112 15.9513 62.9906 15.9637C58.989 15.9761 56.3331 15.3546 51.2954 13.229C48.4014 12.0108 47.2938 11.6379 46.0076 11.4514C45.5193 11.3769 45.1025 11.3148 45.0906 11.3272C45.0787 11.3396 44.8405 11.3894 44.5666 11.439ZM53.9512 27.7227C55.3804 28.0085 56.8095 29.0154 57.6313 30.3082C58.453 31.6134 58.7031 33.6892 58.2148 35.2057C57.4288 37.6669 55.4399 39.171 52.9866 39.1834C48.0084 39.1959 45.5313 32.9931 49.0445 29.3262C50.3545 27.9589 52.1648 27.3746 53.9512 27.7227Z" fill="#3EAEB1"/>
<path d="M75.352 34.7456C74.3278 35.0439 73.1845 35.9638 72.5295 37.0327C71.7553 38.2882 71.7911 37.3187 71.8387 56.8342C71.8745 74.4105 71.8745 74.5349 72.1365 76.2378C72.6486 79.5443 73.3512 81.8811 74.5541 84.2801C75.5068 86.1696 76.3882 87.4251 77.758 88.8794C80.7587 92.0489 84.6887 93.9138 89.905 94.6721C91.9779 94.9698 96.3362 94.9698 98.3016 94.6721C103.41 93.9015 107.019 92.2354 110.068 89.2647C112.998 86.3937 115.07 82.0922 115.868 77.257C116.333 74.4354 116.356 72.9065 116.32 55.3176L116.285 38.3504L115.904 37.5424C115.201 36.0632 113.665 34.8202 112.284 34.6213C111.045 34.4349 109.235 34.9444 105.626 36.4859C101.612 38.2012 99.0637 38.9097 95.9793 39.1459C91.6563 39.4691 88.0954 38.7978 83.0219 36.6723C79.4724 35.1931 78.794 34.9444 77.6743 34.7456C76.4715 34.5218 76.1023 34.5218 75.352 34.7456ZM85.5107 51.0417C86.5467 51.3649 87.285 51.8124 88.0002 52.5706C90.5244 55.2058 90.0485 59.4818 87.0233 61.5328C86.0586 62.1916 85.0579 62.4526 83.7479 62.378C82.8315 62.3407 82.5575 62.2662 81.7947 61.8808C79.6988 60.8367 78.5791 59.0094 78.5791 56.6228C78.5791 54.3978 79.7111 52.4587 81.5929 51.4519C82.7241 50.8552 84.3434 50.6811 85.5107 51.0417ZM105.447 51.0168C108.401 51.8372 110.235 54.9945 109.496 57.9653C109.116 59.4942 108.294 60.6751 107.031 61.5328C106.067 62.1916 105.066 62.4526 103.756 62.378C102.839 62.3407 102.566 62.2662 101.803 61.8808C100.731 61.3464 100.076 60.7745 99.4927 59.8423C98.7897 58.7484 98.5756 57.8534 98.6232 56.3743C98.6708 54.9696 98.9447 54.1616 99.7782 53.0181C101.005 51.3151 103.447 50.4574 105.447 51.0168ZM107.413 76.4739C107.413 76.8344 106.567 78.6241 105.924 79.631C103.315 83.7207 98.9087 85.8212 93.4184 85.6101C91.2872 85.5234 89.7385 85.2126 88.0593 84.5165C85.1653 83.3477 82.6527 80.8619 81.3304 77.9035C81.0802 77.344 80.8423 76.7599 80.7947 76.5983L80.7234 76.3248H94.0615C104.661 76.3248 107.413 76.3621 107.413 76.4739Z" fill="#3EAEB1"/>
<path d="M29.2864 61.8561C23.3555 62.2912 17.9129 64.3546 13.9708 67.661C11.6485 69.6126 10.2312 72.111 9.44521 75.6412C9.11175 77.1204 9.13555 79.6686 9.49287 80.9617C10.267 83.7951 11.97 85.7966 14.9355 87.363C17.0673 88.4819 19.1633 90.0605 20.1042 91.2662C20.7473 92.0866 21.2713 93.2055 21.438 94.1502C21.6048 95.1318 21.4023 96.3873 20.8783 97.6428C19.4849 100.9 19.2348 101.993 19.3182 104.541C19.3658 106.021 19.4253 106.543 19.6873 107.463C20.4377 110.073 22.1765 112.547 24.3439 114.075C25.8088 115.108 29.2864 116.785 32.1566 117.842C36.3487 119.396 39.8739 120.142 43.6968 120.279C48.2105 120.452 52.0573 119.669 55.7254 117.83C61.3229 115.02 65.0267 110.334 67.2181 103.286C68.8259 98.1401 68.8616 93.1924 67.3372 88.3077C66.5273 85.6976 64.7171 82.3163 62.752 79.743C61.6682 78.3386 58.8814 75.3926 57.3332 74.0377C53.8914 71.0172 49.4849 68.0091 44.8878 65.5479C41.3507 63.6584 38.5639 62.7014 34.991 62.1544C33.4666 61.9182 30.525 61.7691 29.2864 61.8561ZM37.111 69.3888C38.0756 69.7618 39.1474 70.8929 39.5167 71.9121C39.8978 72.9563 39.8382 74.4852 39.3618 75.4299C38.7187 76.7475 37.7541 77.5305 36.3844 77.8167C33.407 78.4507 30.7274 75.5294 31.4778 72.4715C31.8469 70.9924 32.6806 69.9855 34.0264 69.4136C34.9315 69.0159 36.1582 69.0159 37.111 69.3888ZM22.2121 73.3789C23.4388 74.0253 24.1296 74.9451 24.4749 76.3249C25.2372 79.4575 22.4027 82.416 19.4015 81.6202C17.4245 81.0861 16.186 79.4322 16.186 77.3193C16.186 75.4548 17.1268 73.988 18.7822 73.2546C19.3658 73.006 19.6159 72.9687 20.5329 73.006C21.4023 73.0433 21.7239 73.1055 22.2121 73.3789ZM49.2229 75.8401C50.1399 76.1882 50.9855 77.0334 51.4618 78.0401C51.8191 78.786 51.8549 78.9848 51.8549 79.9295C51.8549 80.8742 51.8072 81.0861 51.4618 81.819C50.7353 83.3608 49.3539 84.2924 47.758 84.3055C46.7219 84.3055 46.1145 84.1313 45.3165 83.5595C42.6727 81.7069 42.8989 77.5059 45.7334 76.0142C46.8767 75.4051 47.9843 75.3429 49.2229 75.8401ZM58.4884 88.6807C58.9053 88.8794 59.3936 89.277 59.7628 89.6875C61.6921 91.9001 61.0728 95.2814 58.4884 96.6114C57.7858 96.9836 57.5833 97.0212 56.6782 97.0212C55.7731 97.0212 55.5706 96.9836 54.8679 96.6114C53.3793 95.8532 52.4979 94.4111 52.4741 92.7327C52.4622 91.7013 52.6409 91.0551 53.2006 90.1971C53.7127 89.389 54.3916 88.8418 55.2728 88.4942C56.1899 88.1458 57.5714 88.221 58.4884 88.6807ZM32.6806 98.8861C33.4785 99.1217 34.6218 99.9053 35.0982 100.539C37.5754 103.795 35.8247 108.544 31.9184 109.178C29.1911 109.613 26.6306 107.636 26.1661 104.74C25.8088 102.515 27.0236 100.142 29.0005 99.1716C30.2391 98.563 31.311 98.4878 32.6806 98.8861Z" fill="#3EAEB1"/>
</svg>
