<svg width="44" height="49" viewBox="0 0 44 49" fill="none" xmlns="http://www.w3.org/2000/svg">
<path d="M21.0774 4.66963C20.5287 4.78788 19.933 5.01592 19.5489 5.24397L19.157 5.48046L19.1648 5.89431C19.1727 6.1308 19.2746 6.7727 19.3922 7.32171C19.5097 7.88758 19.6116 8.63084 19.6116 9.00249L19.6273 9.67818L18.6867 9.90623C15.465 10.7002 13.3016 11.8151 11.2243 13.7408C10.801 14.1377 10.3856 14.5431 10.2993 14.6614C10.2131 14.7712 9.96229 15.0837 9.74282 15.3624C8.65326 16.7392 7.61852 18.7662 6.97579 20.7849C6.73279 21.5535 6.30166 23.4116 6.14489 24.3914C5.91759 25.7596 6.12922 25.616 4.34202 25.616H2.81348V26.9252V28.2343H21.7437H40.6739V26.9252V25.616L39.0512 25.5991L37.4209 25.5738L37.3582 24.9826C37.0212 21.6126 36.0649 18.6649 34.5755 16.4097C33.6662 15.0246 32.0515 13.386 30.6483 12.4063C29.1278 11.3505 26.8232 10.3116 24.7929 9.77955C24.3226 9.65283 23.9072 9.52614 23.868 9.48394C23.7974 9.4079 23.9072 8.59707 24.1737 7.24571C24.3383 6.42641 24.401 5.88587 24.3775 5.53114C24.3697 5.37066 23.4996 4.9568 22.7706 4.75408C22.1435 4.58515 21.5791 4.55135 21.0774 4.66963Z" fill="#3EAEB1"/>
<path d="M10.8875 29.5691C10.5505 29.7465 10.3389 30.1774 10.3389 30.6926C10.3389 31.3851 10.8719 32.0354 13.0118 33.9527C13.6467 34.5187 14.6814 35.5236 15.3163 36.1908C16.9938 37.9394 17.4485 38.2771 18.7653 38.7417C19.9646 39.1641 21.2972 39.2059 25.9534 38.9613C27.9991 38.8601 29.3475 38.9527 29.7159 39.2317C30.147 39.5611 31.3462 40.5915 32.0126 41.1995C32.3574 41.5121 32.7729 41.8666 32.9376 41.985L33.2433 42.2046L33.5645 41.8162C33.8781 41.4445 34.1368 41.1995 34.9915 40.4395C35.2028 40.2535 35.4695 40.0085 35.5791 39.8905C35.6968 39.7721 35.9631 39.5271 36.1671 39.3415C37.1155 38.5049 37.8995 37.6604 37.9778 37.4072C38.0171 37.272 37.8208 37.0274 37.0605 36.2162C36.5278 35.6504 35.5635 34.5947 34.9208 33.8681C33.7841 32.5844 32.8906 31.7483 32.2477 31.3766C31.7069 31.064 31.3621 30.9459 30.4606 30.7516C29.5982 30.5573 29.4729 30.5573 24.4483 30.5573H19.314L18.7497 30.7601C17.9658 31.0302 17.9345 31.0895 17.958 32.0354C17.9815 32.7617 17.9972 32.8295 18.1774 32.9813C18.538 33.2687 19.1729 33.3106 21.3207 33.2094C23.5939 33.0996 24.4797 33.1756 24.9422 33.505C25.2479 33.7246 25.3262 34.147 25.1068 34.4089C24.707 34.8818 22.5122 35.1519 20.3487 34.9916C18.4988 34.8563 17.8404 34.6452 16.6489 33.7839C16.1943 33.4545 14.8695 32.0692 14.0622 31.0725C13.5292 30.4223 12.6277 29.6874 12.1731 29.5354C11.6792 29.3748 11.2168 29.3833 10.8875 29.5691Z" fill="#3EAEB1"/>
</svg>
