<svg width="132" height="137" viewBox="0 0 132 137" fill="none" xmlns="http://www.w3.org/2000/svg">
<path d="M63.2337 13.0562C61.5876 13.3868 59.8004 14.0244 58.6481 14.662L57.4723 15.3232L57.4958 16.4803C57.5194 17.1415 57.8251 18.9362 58.1779 20.4712C58.5306 22.0533 58.8362 24.1314 58.8362 25.1705L58.8833 27.0597L56.0614 27.6973C46.3964 29.9171 39.9061 33.0342 33.6744 38.4184C32.4045 39.5282 31.1581 40.6617 30.8994 40.9924C30.6408 41.2993 29.8883 42.1731 29.2299 42.9524C25.9612 46.8016 22.857 52.4691 20.9288 58.1131C20.1998 60.262 18.9064 65.4572 18.4361 68.1966C17.7542 72.0221 18.3891 71.6206 13.0275 71.6206H8.44186V75.281V78.941H65.2326H122.023V75.281V71.6206L117.155 71.5734L112.264 71.5026L112.076 69.8495C111.065 60.4273 108.196 52.1857 103.728 45.8806C101 42.0078 96.1559 37.4265 91.9464 34.6872C87.3848 31.7354 80.4709 28.8308 74.3802 27.3431C72.9693 26.9888 71.7229 26.6346 71.6053 26.5166C71.3937 26.304 71.7229 24.037 72.5225 20.2587C73.0163 17.968 73.2044 16.4567 73.1339 15.4649C73.1104 15.0162 70.5001 13.8591 68.3132 13.2923C66.4318 12.82 64.7387 12.7255 63.2337 13.0562Z" fill="#3EAEB1"/>
<path d="M32.6632 82.6723C31.6521 83.1681 31.0172 84.373 31.0172 85.8135C31.0172 87.7497 32.6162 89.5678 39.036 94.9284C40.9408 96.5109 44.0449 99.3205 45.9496 101.186C50.9821 106.075 52.346 107.019 56.2966 108.318C59.8945 109.499 63.8922 109.616 77.8608 108.932C83.998 108.649 88.0432 108.908 89.1483 109.688C90.4415 110.609 94.0392 113.49 96.0384 115.19C97.0729 116.064 98.3193 117.055 98.8135 117.386L99.7306 118L100.694 116.914C101.635 115.875 102.411 115.19 104.975 113.065C105.609 112.545 106.409 111.86 106.738 111.53C107.091 111.199 107.89 110.514 108.502 109.995C111.347 107.656 113.699 105.295 113.934 104.587C114.052 104.209 113.463 103.525 111.182 101.257C109.584 99.675 106.691 96.7234 104.763 94.692C101.353 91.1027 98.6723 88.7651 96.7437 87.726C95.1213 86.8518 94.0868 86.5218 91.3824 85.9785C88.7953 85.4351 88.4193 85.4351 73.3456 85.4351H57.9427L56.2496 86.0023C53.898 86.7574 53.804 86.9232 53.8745 89.5678C53.945 91.5985 53.9921 91.788 54.5329 92.2124C55.6147 93.0159 57.5194 93.1333 63.9628 92.8502C70.7824 92.5432 73.4396 92.7558 74.8271 93.6767C75.7442 94.2906 75.9793 95.4717 75.321 96.2039C74.1216 97.5262 67.5372 98.2813 61.0468 97.8332C55.4971 97.4548 53.5218 96.8646 49.9473 94.4564C48.5834 93.5355 44.6092 89.6622 42.1871 86.8756C40.5881 85.0576 37.8838 83.0031 36.5198 82.578C35.0383 82.129 33.6509 82.1528 32.6632 82.6723Z" fill="#3EAEB1"/>
</svg>
