<svg width="50" height="53" viewBox="0 0 50 53" fill="none" xmlns="http://www.w3.org/2000/svg">
<path d="M19.2615 5.73333C18.9191 6.04672 18.8369 6.22224 18.8369 6.66094C18.8369 7.12479 18.9191 7.28774 19.3163 7.66381C19.9599 8.24042 20.6584 8.27803 21.1925 7.75155C22.0005 6.96181 22.0553 6.42279 21.3705 5.78347C20.9597 5.41993 20.7816 5.34473 20.2749 5.34473C19.7956 5.34473 19.6039 5.41993 19.2615 5.73333Z" fill="#3EAEB1"/>
<path d="M30.4786 6.05936C28.8351 6.23488 27.1094 7.37558 26.3836 8.76704C26.1645 9.19325 25.9043 9.89525 25.8221 10.334C25.3839 12.3773 26.726 14.7465 28.8624 15.7117C29.8623 16.163 31.0949 16.4388 31.6562 16.3385C33.3135 16.0376 33.9158 15.8245 34.8199 15.1852C35.5044 14.7088 36.3536 13.7938 36.3672 13.518C36.3672 13.4428 36.4358 13.3676 36.5042 13.3676C36.5865 13.3676 36.6414 13.2297 36.6414 13.0667C36.6414 12.8912 36.7097 12.7157 36.7783 12.6781C36.9425 12.5779 36.9562 9.80747 36.7919 9.50665C36.7233 9.3938 36.5318 9.0303 36.3672 8.70437C35.6141 7.26277 33.7926 6.17221 31.985 6.05936C31.4233 6.03433 30.7388 6.02176 30.4786 6.05936ZM35.1347 7.97731C35.2992 8.06509 35.2992 8.12776 35.1623 8.2531C35.0801 8.32831 34.9978 8.55392 34.9978 8.74198C34.9978 8.92999 34.9431 9.13054 34.8608 9.16818C34.7926 9.20578 34.724 9.40633 34.724 9.60692C34.724 9.80747 34.6693 10.0081 34.587 10.0457C34.5184 10.0833 34.4501 10.2212 34.4501 10.334C34.4501 10.6223 33.8338 12.3773 33.5736 12.8411C33.4504 13.0542 33.2995 13.2422 33.2176 13.2673C33.149 13.2798 32.4643 13.8564 31.7248 14.5334C30.9716 15.2228 30.2731 15.7493 30.1908 15.7242C30.0949 15.6992 29.958 15.5738 29.876 15.4736C29.7664 15.298 29.9992 15.0222 31.2042 13.9693C32.0123 13.2548 32.6696 12.6029 32.6696 12.5152C32.6696 12.3898 32.2588 12.114 32.0533 12.114C31.9986 12.114 31.3414 12.6781 30.6018 13.3676C29.8483 14.057 29.1501 14.6211 29.0404 14.6211C28.7802 14.6211 28.6707 14.245 28.8624 14.0069C28.9583 13.8941 29.5882 13.3174 30.2457 12.7157C31.0672 11.9887 31.4507 11.5625 31.4097 11.3995C31.3138 10.8981 30.8893 11.1112 29.5472 12.3647C28.6159 13.2297 28.0955 13.6308 27.9174 13.5932C27.3971 13.5055 27.6299 13.1294 28.972 11.926C29.7251 11.2365 30.3277 10.5972 30.3141 10.4969C30.2867 10.3967 30.1635 10.2587 30.0402 10.1835C29.8347 10.0707 29.6018 10.2212 28.5201 11.2115C27.5477 12.1015 27.1642 12.3647 26.8766 12.3647C26.6301 12.3647 26.5069 12.3021 26.5069 12.1642C26.5069 11.8884 29.5199 9.10551 29.821 9.10551C29.9443 9.10551 30.0949 9.04284 30.1362 8.98017C30.1771 8.90492 30.3963 8.85479 30.6155 8.85479C30.8344 8.85479 31.0536 8.79211 31.0949 8.72944C31.1358 8.65424 31.396 8.60406 31.6562 8.60406C31.9164 8.60406 32.1219 8.54139 32.1219 8.47872C32.1219 8.40351 32.2315 8.35337 32.3684 8.35337C32.4917 8.35337 32.9437 8.24057 33.3544 8.10265C34.1899 7.83943 34.8199 7.78929 35.1347 7.97731Z" fill="#3EAEB1"/>
<path d="M33.6688 8.91733C33.6279 9.03014 33.6278 9.15552 33.6828 9.19312C33.7921 9.30593 34.1895 8.96746 34.0935 8.84212C33.9839 8.66664 33.7647 8.70424 33.6688 8.91733Z" fill="#3EAEB1"/>
<path d="M31.7247 9.30569C30.6564 9.60655 30.67 9.64416 31.8753 10.7473C32.4779 11.2863 33.0256 11.7125 33.0805 11.6749C33.1488 11.6373 33.2997 11.2863 33.423 10.8977L33.6418 10.1957L33.0668 9.65669C32.7381 9.35583 32.4369 9.1051 32.3956 9.11764C32.3546 9.13021 32.0532 9.20542 31.7247 9.30569Z" fill="#3EAEB1"/>
<path d="M15.6187 7.3752C15.0161 7.68863 14.838 8.22765 15.1667 8.76666C15.7419 9.76952 17.221 9.41852 17.221 8.27779C17.221 7.47551 16.3582 6.98664 15.6187 7.3752Z" fill="#3EAEB1"/>
<path d="M21.439 12.3645C21.124 12.5902 20.8637 12.6152 18.3986 12.6152C15.8377 12.6152 14.9748 12.703 13.9751 13.0665C12.77 13.5052 11.7428 15.4858 12.0989 16.6892C12.1948 17.0027 12.2632 17.4037 12.2632 17.5918C12.2632 18.0055 12.4276 17.8551 12.6604 17.1907C12.9206 16.5012 13.3041 16.0374 13.8108 15.7867C14.1669 15.6237 14.6325 15.5861 16.1663 15.5987C17.2209 15.6112 18.3028 15.6739 18.563 15.7491C19.1793 15.9121 20.8911 15.9121 20.8911 15.7491C20.8911 15.6739 21.0007 15.6237 21.1514 15.6237C21.5348 15.6237 22.0689 14.7838 22.1785 13.9816C22.2744 13.3172 22.0689 12.1138 21.8635 12.1138C21.8224 12.1138 21.6307 12.2266 21.439 12.3645Z" fill="#3EAEB1"/>
<path d="M22.2612 15.7491C22.1243 16.0625 22.1243 16.1628 22.2749 16.3383C22.3845 16.4511 22.4529 16.6391 22.4256 16.777C22.3708 17.0277 22.6036 17.0904 22.6995 16.8397C22.7953 16.6015 22.6584 15.373 22.5351 15.373C22.4804 15.373 22.3571 15.5485 22.2612 15.7491Z" fill="#3EAEB1"/>
<path d="M14.7976 16.3508C14.1265 16.4009 13.7294 16.7269 13.4966 17.4163C13.4144 17.7046 13.2775 18.0681 13.209 18.2311C12.9899 18.7325 13.072 19.61 13.387 20.2368C13.7705 20.9764 14.8113 21.904 15.5782 22.1923C15.9069 22.3177 16.2767 22.4681 16.3999 22.5308C16.7286 22.6812 18.5638 22.6687 18.5638 22.5182C18.5638 22.443 18.7144 22.3929 18.8924 22.3929C19.6594 22.3929 21.0563 21.3901 21.5356 20.5C22.0971 19.4596 22.193 19.071 22.0149 18.5319C21.9191 18.2562 21.8506 17.9052 21.8506 17.7422C21.8506 17.5793 21.7547 17.2157 21.6589 16.9399C21.4945 16.5263 21.3986 16.4511 21.1384 16.4761C19.9333 16.6265 19.3444 16.6391 18.5638 16.5137C17.5914 16.3633 15.6604 16.2881 14.7976 16.3508Z" fill="#3EAEB1"/>
<path d="M24.986 18.8454C24.7395 19.1087 24.6299 22.3804 24.8627 22.7565C24.9997 23.0072 25.0408 22.9821 25.7393 22.3303C26.4788 21.6283 26.876 21.4904 27.1909 21.8289C27.2868 21.9292 27.4511 22.0169 27.5607 22.0169C27.6702 22.0169 28.3413 21.4779 29.0671 20.826C29.7793 20.1742 30.4779 19.6351 30.6148 19.6351C30.7517 19.6351 31.1351 19.9109 31.4776 20.2619C31.8197 20.6004 32.1349 20.8887 32.1758 20.8887C32.2171 20.8887 32.2581 20.5001 32.2581 20.0363C32.2581 19.3469 32.2035 19.1212 31.9843 18.9081C31.7104 18.6449 31.6145 18.6323 28.4372 18.6323C25.5749 18.6323 25.1504 18.6574 24.986 18.8454ZM27.7935 19.4471C28.2591 19.8357 28.2729 20.4124 27.8209 20.826C27.0403 21.5406 25.9584 21.0893 25.9584 20.0614C25.9584 19.6351 26.5336 19.1337 27.0266 19.1337C27.2594 19.1337 27.5744 19.2591 27.7935 19.4471Z" fill="#3EAEB1"/>
<path d="M26.7803 20.1367C26.7803 20.3247 26.8488 20.3874 27.0268 20.3623C27.15 20.3373 27.2596 20.2369 27.2596 20.1367C27.2596 20.0364 27.15 19.9361 27.0268 19.911C26.8488 19.886 26.7803 19.9487 26.7803 20.1367Z" fill="#3EAEB1"/>
<path d="M38.8597 19.0709C37.1342 19.4595 35.7372 20.4749 35.0113 21.8413C34.847 22.1797 34.6415 22.5558 34.5732 22.6686C34.395 22.9946 34.4226 25.1381 34.6278 25.6521C35.1209 26.9558 36.3398 28.2093 37.6819 28.7985C38.4623 29.1369 38.6408 29.162 40.0923 29.162C40.9551 29.162 41.7082 29.1119 41.7767 29.0492C41.8589 28.9865 42.1464 28.8737 42.4203 28.7985C42.9684 28.6355 44.6252 27.3067 44.9267 26.7928C45.5976 25.5894 45.8578 23.872 45.5294 22.9068C44.8309 20.8886 43.3245 19.5222 41.3658 19.096C40.4483 18.9079 39.6131 18.8955 38.8597 19.0709ZM40.2017 20.7507C40.2017 21.6532 40.0783 21.8413 39.6267 21.6156C39.4347 21.5404 39.3801 21.3524 39.3801 20.8886C39.3801 20.0863 39.476 19.8857 39.8733 19.8857C40.1881 19.8857 40.2017 19.9233 40.2017 20.7507ZM38.4214 22.2424C38.4214 22.3051 38.257 22.4054 38.0654 22.443C37.7642 22.5182 37.5997 22.443 37.1752 22.0669C36.5863 21.5404 36.518 21.3148 36.8877 21.0641C37.093 20.9137 37.2025 20.9638 37.7778 21.5028C38.1339 21.8413 38.4214 22.1797 38.4214 22.2424ZM43.3517 21.202C43.4885 21.3524 43.4885 21.4276 43.3381 21.6031C42.8313 22.1922 42.3245 22.5307 42.0646 22.443C41.7082 22.3176 41.804 21.929 42.3521 21.4527C42.8995 20.9638 43.0915 20.9137 43.3517 21.202ZM41.4343 22.4179C41.9548 22.7438 42.3658 23.3204 42.3794 23.7342C42.393 23.8846 42.4616 24.0475 42.5298 24.0851C42.612 24.1228 42.6669 24.2732 42.6669 24.3986C42.6669 24.5239 43.0093 24.9626 43.4203 25.3763C44.3377 26.2914 44.5158 26.6675 44.2555 27.1313C43.9953 27.57 43.1737 28.1592 42.8176 28.1592C42.6669 28.1592 42.215 27.8834 41.8317 27.5449C41.1059 26.9181 40.4483 26.5672 39.476 26.2663C38.8048 26.0532 38.0108 25.4515 38.0108 25.1506C38.0108 25.0253 37.9559 24.8749 37.8738 24.8373C37.7229 24.7495 37.6819 23.521 37.8462 23.521C37.901 23.521 38.0654 23.2954 38.2021 23.0196C38.3669 22.7062 38.5858 22.4806 38.7911 22.443C38.9692 22.3928 39.1063 22.3176 39.1063 22.255C39.1063 22.1922 39.5309 22.1421 40.051 22.1421C40.7908 22.1421 41.0783 22.2048 41.4343 22.4179ZM37.3668 24.0475C37.6683 24.4737 37.3944 24.6492 36.3808 24.6492C35.3674 24.6492 35.2031 24.5489 35.436 24.0851C35.5456 23.8595 35.6825 23.8219 36.3947 23.8344C36.997 23.847 37.2712 23.8971 37.3668 24.0475ZM38.0926 25.8276C38.3529 26.0783 38.3529 26.1034 37.8462 26.6675C37.5313 27.0309 37.3122 27.1563 37.0247 27.1563C36.4903 27.1563 36.5316 26.8806 37.1342 26.2036C37.6683 25.6019 37.7915 25.5643 38.0926 25.8276Z" fill="#3EAEB1"/>
<path d="M39.9822 22.8441C39.9137 22.8566 39.6807 22.9068 39.4754 22.9444C38.9963 23.0446 38.5576 23.684 38.5576 24.2856C38.5576 24.6617 38.6538 24.8247 39.1057 25.2008C39.4205 25.464 39.7902 25.652 39.9822 25.652C40.1739 25.652 40.3656 25.7022 40.4065 25.7774C40.4478 25.8401 40.6122 25.9027 40.7629 25.9027C40.8997 25.9027 41.0228 25.9529 41.0228 26.0155C41.0228 26.0782 41.2148 26.1911 41.4338 26.2788C41.8311 26.4292 41.8856 26.4167 42.2553 26.0907C42.6391 25.7523 42.6391 25.7398 42.3925 25.5016C42.2553 25.3637 42.0641 25.0754 41.9815 24.8497C41.8993 24.6367 41.7625 24.3609 41.694 24.248C41.6254 24.1227 41.5709 23.9472 41.5709 23.8469C41.5709 23.358 40.5572 22.7187 39.9822 22.8441Z" fill="#3EAEB1"/>
<path d="M42.7629 26.7176C42.5027 27.056 42.5572 27.2817 42.8997 27.2817C43.1599 27.2817 43.475 26.9307 43.4887 26.6173C43.4887 26.3039 43.0504 26.3666 42.7629 26.7176Z" fill="#3EAEB1"/>
<path d="M29.3416 21.6158C28.7664 22.1423 28.2871 22.6312 28.2871 22.6939C28.2871 22.7566 28.383 22.907 28.4925 23.0198C28.6706 23.1953 28.9308 23.2204 30.2456 23.1703C31.9436 23.1201 32.2587 22.9948 32.2587 22.3805C32.2587 22.1549 32.1218 21.9293 31.848 21.7287C31.6288 21.5532 31.4369 21.3777 31.4369 21.3275C31.4369 21.1771 30.766 20.6381 30.5878 20.6506C30.4921 20.6506 29.9305 21.0893 29.3416 21.6158Z" fill="#3EAEB1"/>
<path d="M26.3973 22.7943C26.0823 23.0826 26.2192 23.2581 26.7807 23.2455C27.3559 23.2455 27.4518 23.1202 27.1368 22.8194C26.8903 22.6062 26.6164 22.5937 26.3973 22.7943Z" fill="#3EAEB1"/>
<path d="M15.797 23.7342C15.7011 24.8373 15.8381 25.3011 16.3585 25.6145C17.1528 26.1034 18.7825 25.9279 19.029 25.3387C19.0701 25.2259 19.1112 24.6869 19.1112 24.1353C19.1112 23.333 19.0701 23.145 18.9058 23.145C18.7962 23.145 18.7003 23.2077 18.7003 23.2829C18.7003 23.4208 16.8652 23.3706 16.2215 23.2077C15.8654 23.1199 15.8517 23.145 15.797 23.7342Z" fill="#3EAEB1"/>
<path d="M12.1399 25.3641C11.6194 25.4519 11.0716 26.0034 10.5512 26.9436C10.291 27.4325 10.0993 27.8461 10.113 27.8712C10.2089 27.959 24.7941 27.9088 24.7667 27.8211C24.6572 27.3573 23.8492 26.016 23.5068 25.7277C23.0959 25.3641 23.0275 25.3516 21.5073 25.3014C20.3706 25.2639 19.9324 25.2889 19.9324 25.3892C19.9324 25.4644 19.6585 25.7903 19.3161 26.0912L18.7135 26.6553H17.6179C17.0153 26.6553 16.4812 26.5926 16.4401 26.5299C16.399 26.4547 16.2347 26.4046 16.0977 26.4046C15.9608 26.4046 15.6184 26.1538 15.3308 25.8405L14.8378 25.2764L13.6463 25.2889C13.0027 25.3014 12.3179 25.3391 12.1399 25.3641Z" fill="#3EAEB1"/>
<path d="M9.31902 28.8739C8.82598 28.9867 8.30553 29.4129 8.05902 29.8893C7.83992 30.3029 7.8125 30.7919 7.8125 34.4897V38.6139L8.1275 38.6892C8.30553 38.7268 12.688 38.7395 17.8921 38.7144L27.328 38.6892V34.4897V30.2904L26.972 29.789C26.2461 28.7862 26.8761 28.8488 17.7415 28.8237C13.2632 28.8237 9.46966 28.8363 9.31902 28.8739ZM18.5495 33.537C18.8919 33.9633 18.9055 34.3143 18.6453 34.7908C18.2619 35.4677 17.2484 35.6304 16.7144 35.104C16.2624 34.6652 16.2487 33.8754 16.6733 33.4618C16.9061 33.2362 17.1115 33.1736 17.6182 33.1736C18.1797 33.1736 18.303 33.2238 18.5495 33.537Z" fill="#3EAEB1"/>
<path d="M17.2483 34.1137C17.1524 34.3393 17.2757 34.6777 17.4537 34.6777C17.6454 34.6777 18.0152 34.3019 18.0152 34.1012C18.0152 33.8631 17.3441 33.8755 17.2483 34.1137Z" fill="#3EAEB1"/>
<path d="M6.59375 34.9287C6.40197 35.2045 6.23765 35.4551 6.23765 35.4803C6.23765 35.5177 6.087 35.8562 5.89526 36.2448C5.70356 36.621 5.40223 37.2353 5.22424 37.5862C4.52575 39.0152 4.66272 39.7421 5.74462 40.2059C6.087 40.344 6.41572 40.4315 6.49784 40.3943C6.56636 40.344 6.59375 40.0179 6.55265 39.6295C6.48416 39.0403 6.51155 38.9022 6.73068 38.7645C6.96348 38.6016 6.99087 38.3884 6.99087 36.5082C7.00458 35.3675 6.99087 34.4272 6.97719 34.4272C6.96348 34.4272 6.79916 34.6529 6.59375 34.9287Z" fill="#3EAEB1"/>
<path d="M34.1348 34.5151C34.0389 34.6781 34.0252 39.4662 34.1211 39.8426C34.1621 40.0434 34.2854 40.1935 34.395 40.1935C34.5046 40.1935 34.5868 40.2438 34.5868 40.3193C34.5868 40.3943 35.2168 40.4442 36.2028 40.4442C37.586 40.4442 37.8598 40.4067 38.0381 40.2187C38.2157 40.0434 38.2707 39.4662 38.3529 37.21L38.4623 34.4272H36.3261C35.1482 34.4272 34.1621 34.465 34.1348 34.5151Z" fill="#3EAEB1"/>
<path d="M28.2463 35.0038C28.1915 35.054 28.1504 35.8814 28.1504 36.8591C28.1504 38.451 28.1778 38.6393 28.4243 38.8898C28.7119 39.1533 28.7119 39.1533 28.438 39.8047L28.1778 40.4442H28.5064C29.4104 40.4442 30.5333 39.2407 30.2182 38.6268C30.0266 38.2506 29.5473 37.2477 29.0132 36.1195C28.4928 35.029 28.3832 34.8785 28.2463 35.0038Z" fill="#3EAEB1"/>
<path d="M39.2432 35.9315C39.2432 36.1319 39.3386 36.1821 39.6947 36.1821C40.4208 36.1946 40.6261 36.4202 40.6261 37.2854C40.6398 38.2755 40.4894 38.5137 39.7769 38.614C39.3523 38.6766 39.2292 38.7393 39.2977 38.8898C39.3386 39.0027 39.3799 39.1153 39.3799 39.1408C39.3799 39.2786 40.1879 39.1656 40.3382 39.0027C40.4208 38.9021 40.5439 38.8271 40.5848 38.8395C41.1602 38.9021 41.3106 38.3132 41.1875 36.5833C41.1466 36.0945 40.5167 35.6807 39.8454 35.6807C39.3386 35.6807 39.2432 35.7184 39.2432 35.9315Z" fill="#3EAEB1"/>
<path d="M7.40134 39.5667C7.27808 39.742 7.53827 40.0178 8.05869 40.2561C8.42846 40.419 9.64733 40.4441 17.5083 40.4441C26.7525 40.4318 26.7114 40.4318 27.3688 39.9552C28.0672 39.4414 28.0946 39.4414 17.5494 39.4414C10.7018 39.4414 7.45608 39.4789 7.40134 39.5667Z" fill="#3EAEB1"/>
<path d="M4.34774 42.1615L4.38884 43.1395L25.041 43.177L45.6794 43.2022V42.1994V41.1963H24.9999H4.30664L4.34774 42.1615Z" fill="#3EAEB1"/>
</svg>
