<svg width="132" height="137" viewBox="0 0 132 137" fill="none" xmlns="http://www.w3.org/2000/svg">
<path d="M50.8511 14.8201C49.9472 15.6302 49.7302 16.0839 49.7302 17.2179C49.7302 18.4169 49.9472 18.8381 50.9957 19.8102C52.695 21.3007 54.5389 21.3979 55.949 20.037C58.0821 17.9956 58.2267 16.6023 56.4189 14.9497C55.3343 14.01 54.8643 13.8156 53.5265 13.8156C52.2611 13.8156 51.755 14.01 50.8511 14.8201Z" fill="#3EAEB1"/>
<path d="M80.4624 15.6626C76.1235 16.1163 71.5679 19.0649 69.6517 22.6617C69.0732 23.7634 68.3863 25.578 68.1693 26.7121C67.0124 31.9938 70.5556 38.118 76.1958 40.613C78.8355 41.7795 82.0894 42.4924 83.5713 42.2331C87.9465 41.4555 89.5367 40.9046 91.9234 39.2521C93.7307 38.0207 95.9724 35.6553 96.0085 34.9425C96.0085 34.7481 96.1896 34.5537 96.37 34.5537C96.5872 34.5537 96.7322 34.1972 96.7322 33.7759C96.7322 33.3223 96.9126 32.8687 97.0937 32.7714C97.5273 32.5123 97.5633 25.3511 97.1297 24.5735C96.9486 24.2818 96.4429 23.3422 96.0085 22.4997C94.0201 18.7733 89.2113 15.9543 84.4393 15.6626C82.9566 15.5979 81.1493 15.5654 80.4624 15.6626ZM92.7546 20.6203C93.1889 20.8472 93.1889 21.0092 92.8275 21.3332C92.6103 21.5276 92.3931 22.1108 92.3931 22.5969C92.3931 23.0829 92.2488 23.6013 92.0316 23.6986C91.8513 23.7958 91.6702 24.3142 91.6702 24.8327C91.6702 25.3511 91.5259 25.8696 91.3087 25.9668C91.1276 26.064 90.9472 26.4205 90.9472 26.7121C90.9472 27.4574 89.3202 31.9938 88.6334 33.1927C88.308 33.7436 87.9097 34.2296 87.6933 34.2944C87.5122 34.3268 85.7048 35.8173 83.7525 37.5671C81.764 39.3493 79.9199 40.7102 79.7027 40.6454C79.4494 40.5806 79.088 40.2566 78.8715 39.9974C78.5822 39.5437 79.1969 38.8308 82.378 36.109C84.5115 34.262 86.2466 32.577 86.2466 32.3502C86.2466 32.0262 85.1623 31.3133 84.6197 31.3133C84.4754 31.3133 82.7402 32.7714 80.7878 34.5537C78.7986 36.3358 76.9552 37.794 76.6657 37.794C75.9788 37.794 75.6896 36.8218 76.1958 36.2062C76.4489 35.9146 78.1118 34.424 79.8477 32.8687C82.0165 30.9893 83.0288 29.8876 82.9205 29.4664C82.6673 28.1702 81.5468 28.7211 78.0036 31.9614C75.545 34.1972 74.1711 35.2341 73.701 35.1369C72.3272 34.9101 72.9418 33.9379 76.485 30.8273C78.4732 29.0451 80.0641 27.3925 80.0281 27.1333C79.9559 26.8741 79.6305 26.5176 79.3051 26.3232C78.7626 26.0316 78.1478 26.4205 75.2919 28.9803C72.7249 31.2809 71.7125 31.9614 70.9533 31.9614C70.3025 31.9614 69.9771 31.7994 69.9771 31.4429C69.9771 30.73 77.9314 23.5366 78.7265 23.5366C79.0519 23.5366 79.4494 23.3746 79.5584 23.2126C79.6666 23.0181 80.2453 22.8885 80.8239 22.8885C81.4018 22.8885 81.9804 22.7265 82.0894 22.5645C82.1976 22.3701 82.8845 22.2404 83.5713 22.2404C84.2582 22.2404 84.8008 22.0784 84.8008 21.9164C84.8008 21.722 85.0901 21.5924 85.4516 21.5924C85.777 21.5924 86.9703 21.3008 88.0547 20.9443C90.2604 20.2639 91.9234 20.1343 92.7546 20.6203Z" fill="#3EAEB1"/>
<path d="M88.8859 23.0505C88.7777 23.3421 88.7777 23.6662 88.9227 23.7634C89.2113 24.055 90.2604 23.1801 90.0071 22.8561C89.7178 22.4025 89.1391 22.4997 88.8859 23.0505Z" fill="#3EAEB1"/>
<path d="M83.7525 24.0549C80.9321 24.8326 80.9682 24.9298 84.15 27.7812C85.7409 29.1746 87.1868 30.2763 87.3318 30.1791C87.5122 30.0819 87.9105 29.1746 88.2359 28.1701L88.8137 26.3555L87.2957 24.9622C86.4278 24.1845 85.6327 23.5364 85.5237 23.5688C85.4155 23.6013 84.6197 23.7957 83.7525 24.0549Z" fill="#3EAEB1"/>
<path d="M41.2339 19.0648C39.6431 19.875 39.1731 21.2683 40.0408 22.6616C41.5593 25.2539 45.464 24.3466 45.464 21.3979C45.464 19.3241 43.1863 18.0604 41.2339 19.0648Z" fill="#3EAEB1"/>
<path d="M56.5998 31.9613C55.7682 32.5446 55.0812 32.6094 48.5733 32.6094C41.8123 32.6094 39.5345 32.8362 36.8952 33.7759C33.7136 34.91 31.002 40.0297 31.942 43.1403C32.1951 43.9505 32.3758 44.9873 32.3758 45.4734C32.3758 46.5427 32.8098 46.1539 33.4244 44.4365C34.1113 42.6543 35.1237 41.4554 36.4614 40.8073C37.4014 40.3861 38.6307 40.2889 42.68 40.3213C45.464 40.3537 48.3202 40.5157 49.0072 40.7102C50.6342 41.1314 55.1535 41.1314 55.1535 40.7102C55.1535 40.5157 55.4428 40.3861 55.8405 40.3861C56.8529 40.3861 58.2629 38.2151 58.5521 36.1413C58.8052 34.424 58.2629 31.3132 57.7205 31.3132C57.6121 31.3132 57.1059 31.6048 56.5998 31.9613Z" fill="#3EAEB1"/>
<path d="M58.7691 40.71C58.4075 41.5201 58.4075 41.7794 58.8052 42.233C59.0945 42.5246 59.2752 43.0106 59.2029 43.3671C59.0583 44.0151 59.673 44.1772 59.926 43.5291C60.1791 42.9135 59.8176 39.738 59.4922 39.738C59.3476 39.738 59.0222 40.1916 58.7691 40.71Z" fill="#3EAEB1"/>
<path d="M39.0646 42.2655C37.2929 42.3951 36.2444 43.2376 35.6298 45.0197C35.4129 45.765 35.0514 46.7047 34.8706 47.126C34.2921 48.422 34.509 50.6903 35.3405 52.3104C36.353 54.2222 39.1007 56.6201 41.1254 57.3653C41.9931 57.6894 42.9693 58.0782 43.2947 58.2402C44.1624 58.629 49.0072 58.5966 49.0072 58.2078C49.0072 58.0134 49.4049 57.8837 49.8749 57.8837C51.8996 57.8837 55.5874 55.2916 56.8529 52.9909C58.3352 50.3014 58.5883 49.2969 58.1183 47.9036C57.8652 47.1907 57.6844 46.2835 57.6844 45.8622C57.6844 45.441 57.4313 44.5013 57.1783 43.7884C56.7443 42.7191 56.4913 42.5247 55.8043 42.5895C52.6227 42.9783 51.068 43.0107 49.0072 42.6867C46.4402 42.2978 41.3423 42.1035 39.0646 42.2655Z" fill="#3EAEB1"/>
<path d="M65.9639 48.7137C65.3132 49.3942 65.0239 57.8514 65.6385 58.8235C66.0001 59.4716 66.1086 59.4067 67.9525 57.7218C69.9048 55.9072 70.9534 55.5508 71.7849 56.4257C72.038 56.6849 72.4718 56.9117 72.7611 56.9117C73.0503 56.9117 74.822 55.5184 76.7381 53.8334C78.6183 52.1485 80.4625 50.7551 80.8239 50.7551C81.1854 50.7551 82.1976 51.468 83.1017 52.3753C84.005 53.2502 84.8369 53.9954 84.9451 53.9954C85.0541 53.9954 85.1623 52.9909 85.1623 51.792C85.1623 50.0099 85.018 49.4266 84.4393 48.8757C83.7164 48.1953 83.4632 48.1629 75.075 48.1629C67.5186 48.1629 66.3979 48.2277 65.9639 48.7137ZM73.3757 50.2691C74.605 51.2736 74.6412 52.7641 73.448 53.8334C71.3872 55.6804 68.531 54.5139 68.531 51.8569C68.531 50.7551 70.0495 49.459 71.3511 49.459C71.9657 49.459 72.7972 49.783 73.3757 50.2691Z" fill="#3EAEB1"/>
<path d="M70.7002 52.0512C70.7002 52.5373 70.881 52.6993 71.351 52.6344C71.6764 52.5697 71.9656 52.3104 71.9656 52.0512C71.9656 51.792 71.6764 51.5328 71.351 51.4679C70.881 51.4032 70.7002 51.5652 70.7002 52.0512Z" fill="#3EAEB1"/>
<path d="M102.589 49.297C98.0338 50.3015 94.3455 52.9261 92.4292 56.4581C91.9956 57.333 91.453 58.3051 91.2726 58.5967C90.8022 59.4392 90.8751 64.9801 91.4169 66.3086C92.7185 69.6786 95.9364 72.9189 99.4797 74.4418C101.54 75.3167 102.011 75.3815 105.843 75.3815C108.121 75.3815 110.109 75.2519 110.29 75.0899C110.507 74.9279 111.266 74.6362 111.989 74.4418C113.436 74.0206 117.81 70.5858 118.606 69.2573C120.377 66.1466 121.064 61.7074 120.197 59.2123C118.353 53.9954 114.376 50.4635 109.205 49.3618C106.783 48.8757 104.578 48.8434 102.589 49.297ZM106.132 53.639C106.132 55.972 105.806 56.4581 104.614 55.8748C104.107 55.6804 103.963 55.1944 103.963 53.9954C103.963 51.9216 104.216 51.4032 105.265 51.4032C106.096 51.4032 106.132 51.5004 106.132 53.639ZM101.432 57.495C101.432 57.657 100.998 57.9162 100.492 58.0134C99.6968 58.2078 99.2625 58.0134 98.142 57.0413C96.5872 55.6804 96.4068 55.0972 97.383 54.4491C97.9248 54.0603 98.2141 54.1899 99.7329 55.5832C100.673 56.4581 101.432 57.333 101.432 57.495ZM114.448 54.8055C114.809 55.1944 114.809 55.3888 114.412 55.8424C113.074 57.3653 111.736 58.2402 111.05 58.0134C110.109 57.6894 110.362 56.6849 111.809 55.4536C113.254 54.1899 113.761 54.0603 114.448 54.8055ZM109.386 57.9486C110.76 58.7911 111.845 60.2816 111.881 61.351C111.917 61.7398 112.098 62.161 112.278 62.2582C112.495 62.3555 112.64 62.7443 112.64 63.0684C112.64 63.3924 113.544 64.5265 114.629 65.5958C117.051 67.9612 117.521 68.9333 116.834 70.1322C116.147 71.2663 113.978 72.7892 113.038 72.7892C112.64 72.7892 111.447 72.0764 110.435 71.2015C108.519 69.5813 106.783 68.6741 104.216 67.8964C102.444 67.3455 100.348 65.7902 100.348 65.0125C100.348 64.6885 100.203 64.2996 99.9862 64.2024C99.5879 63.9756 99.4797 60.8001 99.9133 60.8001C100.058 60.8001 100.492 60.2168 100.853 59.504C101.288 58.6939 101.866 58.1107 102.408 58.0134C102.878 57.8838 103.24 57.6894 103.24 57.5274C103.24 57.3653 104.361 57.2358 105.734 57.2358C107.687 57.2358 108.446 57.3978 109.386 57.9486ZM98.6477 62.161C99.4436 63.2627 98.7207 63.7164 96.0446 63.7164C93.3693 63.7164 92.9357 63.4571 93.5504 62.2582C93.8397 61.675 94.2012 61.5777 96.0814 61.6102C97.6716 61.6426 98.3953 61.7722 98.6477 62.161ZM100.564 66.7623C101.251 67.4103 101.251 67.4752 99.9133 68.9333C99.0821 69.8729 98.5035 70.197 97.7445 70.197C96.3339 70.197 96.4429 69.4842 98.0338 67.7344C99.4436 66.179 99.769 66.0818 100.564 66.7623Z" fill="#3EAEB1"/>
<path d="M105.554 59.0503C105.373 59.0826 104.758 59.2123 104.216 59.3095C102.951 59.5687 101.793 61.2213 101.793 62.7766C101.793 63.7487 102.047 64.1699 103.24 65.1421C104.071 65.8225 105.047 66.3086 105.554 66.3086C106.06 66.3086 106.566 66.4382 106.674 66.6326C106.783 66.7946 107.217 66.9566 107.615 66.9566C107.976 66.9566 108.301 67.0862 108.301 67.2482C108.301 67.4102 108.808 67.7019 109.386 67.9287C110.435 68.3175 110.579 68.2851 111.555 67.4426C112.568 66.5677 112.568 66.5354 111.917 65.9197C111.555 65.5633 111.05 64.818 110.832 64.2347C110.615 63.6839 110.254 62.971 110.073 62.6794C109.892 62.3554 109.748 61.9017 109.748 61.6425C109.748 60.3788 107.072 58.7262 105.554 59.0503Z" fill="#3EAEB1"/>
<path d="M112.893 69.0628C112.206 69.9376 112.35 70.5209 113.254 70.5209C113.941 70.5209 114.773 69.6136 114.809 68.8035C114.809 67.9935 113.652 68.1555 112.893 69.0628Z" fill="#3EAEB1"/>
<path d="M77.461 55.8747C75.9426 57.2357 74.6772 58.4994 74.6772 58.6614C74.6772 58.8235 74.9303 59.2123 75.2195 59.5039C75.6896 59.9575 76.3765 60.0224 79.8477 59.8928C84.3303 59.7631 85.1623 59.4391 85.1623 57.8514C85.1623 57.2681 84.8008 56.6849 84.0779 56.1664C83.4992 55.7127 82.9927 55.2591 82.9927 55.1295C82.9927 54.7407 81.2214 53.3473 80.751 53.3797C80.4985 53.3797 79.0158 54.5138 77.461 55.8747Z" fill="#3EAEB1"/>
<path d="M69.6878 58.9207C68.8563 59.666 69.2178 60.1196 70.7001 60.0872C72.2187 60.0872 72.4718 59.7632 71.6402 58.9856C70.9894 58.4347 70.2663 58.4023 69.6878 58.9207Z" fill="#3EAEB1"/>
<path d="M41.7038 61.351C41.4507 64.2025 41.8123 65.4014 43.1862 66.2114C45.2832 67.4752 49.5856 67.0215 50.2364 65.4985C50.3449 65.2069 50.4534 63.8136 50.4534 62.3879C50.4534 60.3141 50.3449 59.8281 49.911 59.8281C49.6218 59.8281 49.3687 59.9901 49.3687 60.1845C49.3687 60.5409 44.5239 60.4113 42.8246 59.9901C41.8846 59.7632 41.8484 59.8281 41.7038 61.351Z" fill="#3EAEB1"/>
<path d="M32.0504 65.5632C30.6765 65.7901 29.2303 67.2158 27.8564 69.646C27.1695 70.9098 26.6633 71.979 26.6995 72.0439C26.9526 72.2707 65.4576 72.141 65.3854 71.9143C65.0961 70.7154 62.963 67.2482 62.0591 66.503C60.9744 65.5632 60.7937 65.5308 56.7805 65.4012C53.7796 65.3041 52.6226 65.3688 52.6226 65.6281C52.6226 65.8225 51.8996 66.665 50.9957 67.4426L49.4048 68.9008H46.5124C44.9216 68.9008 43.5116 68.7387 43.4031 68.5767C43.2946 68.3823 42.8608 68.2527 42.4992 68.2527C42.1377 68.2527 41.2338 67.6046 40.4745 66.7946L39.1729 65.3364L36.0275 65.3688C34.3282 65.4012 32.5204 65.4985 32.0504 65.5632Z" fill="#3EAEB1"/>
<path d="M24.6027 74.6362C23.3011 74.9279 21.9271 76.0296 21.2763 77.2609C20.6979 78.3302 20.6255 79.5941 20.6255 89.1526V99.8132L21.4571 100.008C21.9271 100.105 33.4968 100.138 47.2357 100.073L72.1465 100.008V89.1526V78.2979L71.2065 77.0016C69.2903 74.4095 70.9534 74.5715 46.838 74.5066C35.0153 74.5066 25.0004 74.539 24.6027 74.6362ZM48.9711 86.6899C49.875 87.792 49.9111 88.6991 49.2242 89.9308C48.2119 91.6806 45.5364 92.1011 44.1264 90.7405C42.9332 89.6062 42.8971 87.5648 44.0179 86.4957C44.6325 85.9125 45.1749 85.7506 46.5126 85.7506C47.9949 85.7506 48.3203 85.8803 48.9711 86.6899Z" fill="#3EAEB1"/>
<path d="M45.5363 88.1803C45.2832 88.7635 45.6086 89.6384 46.0787 89.6384C46.5848 89.6384 47.561 88.6668 47.561 88.148C47.561 87.5326 45.7894 87.5648 45.5363 88.1803Z" fill="#3EAEB1"/>
<path d="M17.4077 90.2869C16.9014 90.9999 16.4676 91.6476 16.4676 91.7128C16.4676 91.8095 16.0699 92.6844 15.5637 93.689C15.0576 94.6613 14.2621 96.2492 13.7922 97.1563C11.9482 100.85 12.3098 102.729 15.166 103.928C16.0699 104.285 16.9377 104.511 17.1545 104.415C17.3354 104.285 17.4077 103.442 17.2992 102.438C17.1184 100.915 17.1907 100.558 17.7692 100.202C18.3838 99.7809 18.4561 99.2299 18.4561 94.3697C18.4923 91.4212 18.4561 88.9907 18.42 88.9907C18.3838 88.9907 17.95 89.574 17.4077 90.2869Z" fill="#3EAEB1"/>
<path d="M90.1153 89.2179C89.8621 89.6392 89.826 102.016 90.0792 102.989C90.1874 103.508 90.5128 103.896 90.8022 103.896C91.0915 103.896 91.3087 104.026 91.3087 104.221C91.3087 104.415 92.9717 104.544 95.5749 104.544C99.2264 104.544 99.9493 104.447 100.42 103.961C100.889 103.508 101.034 102.016 101.251 96.1839L101.54 88.9907H95.9003C92.7906 88.9907 90.1874 89.0882 90.1153 89.2179Z" fill="#3EAEB1"/>
<path d="M74.5689 90.4811C74.4242 90.6108 74.3158 92.7496 74.3158 95.2768C74.3158 99.3918 74.3881 99.8784 75.0388 100.526C75.7981 101.207 75.7981 101.207 75.075 102.891L74.3881 104.544H75.2558C77.6421 104.544 80.6067 101.433 79.7748 99.8462C79.2691 98.8738 78.0036 96.2814 76.5935 93.3651C75.2197 90.5463 74.9304 90.1572 74.5689 90.4811Z" fill="#3EAEB1"/>
<path d="M103.602 92.8793C103.602 93.3973 103.854 93.527 104.794 93.527C106.711 93.5593 107.253 94.1425 107.253 96.3789C107.289 98.9383 106.892 99.5538 105.011 99.8132C103.89 99.9751 103.565 100.137 103.746 100.526C103.854 100.818 103.963 101.109 103.963 101.175C103.963 101.531 106.096 101.239 106.493 100.818C106.711 100.558 107.036 100.364 107.144 100.396C108.663 100.558 109.06 99.0357 108.735 94.5639C108.627 93.3006 106.964 92.2308 105.192 92.2308C103.854 92.2308 103.602 92.3283 103.602 92.8793Z" fill="#3EAEB1"/>
<path d="M19.5408 102.276C19.2154 102.729 19.9023 103.442 21.2762 104.058C22.2524 104.479 25.4702 104.544 46.2232 104.544C70.6278 104.512 70.5194 104.512 72.2548 103.28C74.0987 101.952 74.171 101.952 46.3316 101.952C28.2541 101.952 19.6853 102.049 19.5408 102.276Z" fill="#3EAEB1"/>
<path d="M11.4783 108.983L11.5868 111.511L66.1085 111.608L120.594 111.673V109.081V106.488H66.0001H11.3698L11.4783 108.983Z" fill="#3EAEB1"/>
</svg>
