<svg width="54" height="56" viewBox="0 0 54 56" fill="none" xmlns="http://www.w3.org/2000/svg">
<path d="M16.0746 7.2688C15.3187 7.46586 14.7408 7.80856 14.0294 8.48547C13.6648 8.82821 13.3892 9.12808 13.4158 9.14525C13.4425 9.17092 13.8604 9.08524 14.3406 8.95673C15.2032 8.72537 15.2832 8.71683 17.5329 8.71683C19.7825 8.71683 19.8625 8.72537 20.7251 8.95673C21.2053 9.08524 21.6232 9.1795 21.6409 9.16237C21.6943 9.10237 21.0985 8.45122 20.7162 8.15131C20.1471 7.71431 19.5514 7.41444 18.9556 7.26021C18.2887 7.09741 16.7237 7.09741 16.0746 7.2688Z" fill="#3EAEB1"/>
<path d="M15.3371 10.1302C11.967 10.7128 9.27271 13.2319 8.58801 16.4279C8.34796 17.5417 8.31237 17.4646 9.11263 17.4561C9.64617 17.4561 9.87739 17.4989 10.1619 17.6446C10.5798 17.8588 11.1489 18.4328 11.2289 18.7241C11.2734 18.9127 11.3179 18.9298 11.6913 18.8955C13.6743 18.7241 15.4171 17.7902 16.742 16.1794C17.3911 15.3825 17.6934 15.1769 18.1914 15.1684C18.8939 15.1598 19.1428 15.3226 19.872 16.2651C20.9479 17.6617 22.3706 18.707 23.3843 18.8355C23.74 18.887 23.7933 18.8698 23.8467 18.6985C23.9445 18.4071 24.5047 17.8502 24.9049 17.6446C25.1894 17.4989 25.4206 17.4561 25.963 17.4561C26.7544 17.4646 26.7188 17.5417 26.4787 16.4279C25.8563 13.4975 23.5799 11.167 20.5033 10.293C19.9253 10.1302 19.5963 10.1045 17.8001 10.0788C16.6798 10.0702 15.5682 10.0874 15.3371 10.1302Z" fill="#3EAEB1"/>
<path d="M17.729 17.1992C16.3952 18.8358 14.2611 19.9754 12.0381 20.2324C10.9444 20.361 10.3753 20.1296 10.0196 19.427C9.68173 18.7501 9.19262 18.5959 8.6858 19.0072L8.41016 19.2386L8.43683 20.8065C8.4635 22.2288 8.4813 22.3916 8.65021 22.6058C8.94369 22.9828 9.23709 23.1542 9.73504 23.2313C10.4642 23.3427 10.6065 23.5227 10.6776 24.448C10.7932 25.8789 11.3712 27.1641 12.3315 28.1152C12.954 28.7321 15.6838 30.7114 16.3329 31.0198C16.7509 31.217 16.9376 31.2512 17.5778 31.2512C18.2714 31.2512 18.3781 31.2255 18.8671 30.9599C19.7297 30.4886 22.1216 28.6978 22.753 28.0467C23.1531 27.6439 23.4643 27.2156 23.7044 26.7358C24.0423 26.076 24.1668 25.6904 24.4246 24.4138C24.5491 23.8054 24.9226 23.4112 25.5628 23.2056C25.9896 23.0685 26.3542 22.7772 26.5498 22.4088C26.6121 22.2888 26.6476 21.6633 26.6476 20.7294V19.2299L26.3631 18.9986C26.1408 18.8101 26.0163 18.7758 25.7762 18.8187C25.3939 18.8786 25.2783 18.9729 25.0471 19.4356C24.7447 20.0353 24.4246 20.1982 23.5799 20.1982C23.0197 20.1896 22.753 20.1468 22.3083 19.9668C21.099 19.4699 19.8008 18.4245 18.8227 17.165C18.5648 16.8308 18.3247 16.5566 18.298 16.5566C18.2714 16.5566 18.0135 16.848 17.729 17.1992Z" fill="#3EAEB1"/>
<path d="M32.3562 26.1958C32.1961 26.2643 32.0271 26.4186 31.9829 26.5385C31.9295 26.667 31.894 27.2839 31.894 27.918V29.0661H31.2803C30.5956 29.0661 30.2222 29.2461 29.8754 29.743C29.6887 30.0087 29.6709 30.1372 29.6709 31.0454V32.0651H39.541H49.4112V31.0454C49.4112 30.1372 49.3937 30.0087 49.2067 29.743C48.8598 29.2461 48.4863 29.0661 47.8019 29.0661H47.1878V27.9094C47.1878 26.6071 47.0991 26.3157 46.6724 26.1701C46.3169 26.0501 45.97 26.1358 45.7654 26.3928C45.6055 26.5813 45.5875 26.7356 45.5875 27.8323V29.0661H39.541H33.4945V27.8323C33.4945 26.667 33.4855 26.5813 33.299 26.3843C33.0409 26.1101 32.721 26.0501 32.3562 26.1958Z" fill="#3EAEB1"/>
<path d="M14.4648 32.0912C14.4648 32.6138 14.5627 32.8964 15.8075 35.938C16.5456 37.7462 17.2303 39.4254 17.3281 39.6823C17.4614 40.0252 17.5326 40.1109 17.5859 40.0168C17.6304 39.9481 18.324 38.2601 19.1331 36.2724C20.4936 32.9222 20.6003 32.6138 20.6003 32.1081C20.6003 31.7998 20.5736 31.5513 20.547 31.5513C20.5203 31.5513 20.3691 31.6454 20.2268 31.774C18.8664 32.8707 16.6523 32.9306 15.0873 31.9196C14.8205 31.7398 14.5715 31.5769 14.536 31.5684C14.4915 31.5513 14.4648 31.7913 14.4648 32.0912Z" fill="#3EAEB1"/>
<path d="M29.6709 40.2819V47.1197L29.8754 47.4107C29.9821 47.5652 30.2133 47.7876 30.3733 47.8906L30.6757 48.0876H39.541H48.4065L48.7088 47.8906C48.8684 47.7876 49.0999 47.5652 49.2067 47.4107L49.4112 47.1197V40.2819V33.436H39.541H29.6709V40.2819ZM40.0389 35.8264C40.4213 35.998 40.6882 36.2807 41.355 37.2575L41.7727 37.8658L42.7688 38.1057C43.3199 38.2344 43.9245 38.4226 44.1115 38.5255C44.7427 38.8511 44.9652 39.6137 44.6093 40.1878C44.5026 40.3506 44.1557 40.7876 43.8272 41.1644L43.2311 41.8499L43.2577 43.0153C43.2847 44.3348 43.2045 44.5833 42.6355 44.9173C42.2088 45.1658 41.8443 45.1319 40.6348 44.7288L39.541 44.3605L38.4563 44.7288C37.2378 45.1319 36.8733 45.1658 36.4467 44.9173C35.8775 44.5833 35.7974 44.3348 35.8241 43.0153L35.842 41.8499L35.1306 41.0189C34.7482 40.5648 34.4016 40.1279 34.3658 40.0507C34.1614 39.5538 34.4192 38.8169 34.9083 38.5427C35.0593 38.4571 35.664 38.2685 36.2511 38.1142L37.3091 37.8485L37.9583 36.9488C38.4739 36.2292 38.6873 36.0065 39.0076 35.8521C39.4788 35.6209 39.5677 35.6209 40.0389 35.8264Z" fill="#3EAEB1"/>
<path d="M38.8295 38.0973C38.4829 38.5854 38.1093 39.0224 38.0025 39.0653C37.8958 39.1083 37.3712 39.2539 36.829 39.391C36.2953 39.5281 35.8331 39.6479 35.8153 39.6567C35.7973 39.6736 36.0821 40.0249 36.4466 40.4362C36.8111 40.8475 37.158 41.276 37.2114 41.379C37.2823 41.4988 37.3003 41.8928 37.2557 42.6384L37.2023 43.718L38.0826 43.4093C39.6565 42.844 39.5055 42.8354 41.6217 43.6235L41.8794 43.7265L41.8262 42.6384C41.7816 41.8928 41.7996 41.4988 41.8708 41.379C41.924 41.276 42.2709 40.8475 42.6354 40.4362C42.9999 40.0249 43.2846 39.6736 43.2666 39.6567C43.2491 39.6479 42.8134 39.5281 42.2975 39.3995C40.9103 39.0569 40.9639 39.0826 40.2523 38.0973C39.9054 37.6088 39.5855 37.2061 39.5409 37.2061C39.4967 37.2061 39.1764 37.6088 38.8295 38.0973Z" fill="#3EAEB1"/>
<path d="M12.5358 33.8301L11.8956 34.0444L11.042 35.1925C10.5796 35.8265 10.1973 36.3579 10.1973 36.3836C10.1973 36.4093 10.4818 36.435 10.8286 36.435C11.1843 36.435 11.6289 36.4777 11.8156 36.5376C12.2691 36.6663 12.9627 37.266 13.1583 37.6945C13.2472 37.8743 13.9675 39.7935 14.7678 41.9616L16.2261 45.9028H17.5332H18.8403L20.3697 41.7903C21.2145 39.5281 21.9436 37.5916 22.0058 37.4972C22.1837 37.1804 22.8862 36.6405 23.2507 36.5376C23.4463 36.4777 23.8821 36.435 24.2378 36.435C24.5845 36.435 24.8691 36.4093 24.8691 36.3836C24.8691 36.3491 24.4867 35.818 24.0243 35.1925L23.1796 34.0528L22.4682 33.8216C22.0681 33.693 21.7391 33.6073 21.7213 33.6158C21.7124 33.6331 21.0455 35.2612 20.2452 37.2318C18.9915 40.3164 18.7514 40.8475 18.4935 41.0619C17.9066 41.5585 17.1597 41.5585 16.5728 41.0619C16.3239 40.856 16.066 40.2992 14.8211 37.2146C14.0119 35.2267 13.3183 33.6158 13.265 33.6158C13.2206 33.6158 12.8916 33.7187 12.5358 33.8301Z" fill="#3EAEB1"/>
<path d="M9.19249 34.7387C8.54339 35.0813 7.80535 35.7925 7.45852 36.4179C6.9161 37.4118 6.90723 37.472 6.90723 41.6274C6.90723 43.7096 6.93394 45.4832 6.96057 45.5605C7.11173 45.9287 7.33407 45.9459 11.1398 45.9459C14.2342 45.9459 14.7411 45.9287 14.7055 45.8257C14.6789 45.7575 14.0297 44.0096 13.265 41.9446C12.2069 39.0741 11.8245 38.1486 11.6555 37.9946C11.451 37.8233 11.3443 37.8061 10.4462 37.8061C9.33477 37.8061 8.95239 37.6859 8.67675 37.2577C8.34776 36.7436 8.43665 36.3838 9.13023 35.4499C9.66376 34.7215 9.83272 34.4558 9.7349 34.4646C9.71711 34.4646 9.47701 34.5929 9.19249 34.7387Z" fill="#3EAEB1"/>
<path d="M25.313 34.541C25.313 34.5755 25.5976 34.9868 25.9355 35.4495C26.638 36.4003 26.718 36.7432 26.3801 37.2743C26.1133 37.6943 25.7399 37.8057 24.6106 37.8057C23.7214 37.8057 23.6147 37.823 23.4102 37.9942C23.2412 38.1483 22.8499 39.0994 21.8096 41.9184C21.0538 43.9659 20.4136 45.7142 20.378 45.791C20.3158 45.937 20.538 45.9455 24.2371 45.9455H28.1585V41.8927C28.1585 38.4139 28.1407 37.7715 28.0162 37.3687C27.705 36.3749 27.1804 35.6293 26.3356 35.021C25.811 34.6439 25.313 34.4127 25.313 34.541Z" fill="#3EAEB1"/>
</svg>
