<svg width="132" height="137" viewBox="0 0 132 137" fill="none" xmlns="http://www.w3.org/2000/svg">
<path d="M39.2936 17.7822C37.446 18.2643 36.0332 19.1027 34.2943 20.7587C33.4031 21.5972 32.7293 22.3308 32.7945 22.3728C32.8597 22.4356 33.8813 22.226 35.0551 21.9116C37.1635 21.3456 37.3591 21.3247 42.8583 21.3247C48.3575 21.3247 48.5531 21.3456 50.6615 21.9116C51.8353 22.226 52.8569 22.4566 52.9003 22.4147C53.0307 22.2679 51.5744 20.6749 50.6397 19.9412C49.2487 18.8721 47.7924 18.1385 46.3361 17.7612C44.7059 17.3629 40.8803 17.3629 39.2936 17.7822Z" fill="#3EAEB1"/>
<path d="M37.4895 24.7834C29.2515 26.2087 22.6655 32.3714 20.9918 40.1901C20.405 42.9151 20.318 42.7265 22.2742 42.7055C23.5784 42.7055 24.1436 42.8103 24.8391 43.1667C25.8607 43.6907 27.2518 45.0951 27.4474 45.8078C27.5561 46.269 27.6648 46.3109 28.5777 46.2271C33.4249 45.8078 37.6851 43.523 40.9238 39.5823C42.5104 37.6328 43.2495 37.1297 44.4667 37.1088C46.1839 37.0878 46.7925 37.4861 48.5748 39.7918C51.2049 43.2086 54.6826 45.7659 57.1605 46.0803C58.03 46.2061 58.1603 46.1641 58.2908 45.745C58.5299 45.0322 59.8992 43.6697 60.8774 43.1667C61.5729 42.8103 62.1381 42.7055 63.464 42.7055C65.3985 42.7265 65.3115 42.9151 64.7247 40.1901C63.2031 33.0212 57.6387 27.3197 50.1181 25.1816C48.7052 24.7834 47.901 24.7204 43.5103 24.6576C40.7716 24.6366 38.0546 24.6785 37.4895 24.7834Z" fill="#3EAEB1"/>
<path d="M43.3365 42.0767C40.0761 46.0804 34.8594 48.8683 29.4255 49.4971C26.752 49.8116 25.3608 49.2456 24.4914 47.5268C23.6655 45.8708 22.4699 45.4935 21.231 46.4997L20.5572 47.0657L20.6224 50.9016C20.6876 54.3812 20.7311 54.7795 21.144 55.3035C21.8614 56.2258 22.5786 56.6451 23.7958 56.8337C25.5782 57.1062 25.926 57.5465 26.0999 59.8103C26.3824 63.3109 27.7953 66.4551 30.1427 68.7818C31.6643 70.2911 38.3373 75.1332 39.9239 75.8878C40.9456 76.37 41.402 76.4538 42.967 76.4538C44.6624 76.4538 44.9232 76.3909 46.1187 75.7411C48.2271 74.5882 54.0741 70.2072 55.6174 68.6141C56.5955 67.6289 57.3562 66.5809 57.9431 65.4071C58.769 63.793 59.0734 62.8497 59.7037 59.7265C60.008 58.2382 60.9209 57.2739 62.4859 56.7709C63.5292 56.4354 64.4204 55.7228 64.8986 54.8214C65.0508 54.528 65.1377 52.9977 65.1377 50.7129V47.0446L64.4422 46.4787C63.8987 46.0176 63.5945 45.9337 63.0076 46.0385C62.0729 46.1852 61.7904 46.4158 61.2252 47.5478C60.4862 49.015 59.7037 49.4133 57.6388 49.4133C56.2694 49.3924 55.6174 49.2876 54.5305 48.8473C51.5744 47.6316 48.4009 45.0743 46.01 41.9929C45.3797 41.1754 44.7928 40.5046 44.7276 40.5046C44.6624 40.5046 44.0321 41.2174 43.3365 42.0767Z" fill="#3EAEB1"/>
<path d="M79.0918 64.0864C78.7004 64.254 78.2875 64.6314 78.1793 64.9249C78.0488 65.2393 77.9621 66.7485 77.9621 68.2997V71.1085H76.462C74.7883 71.1085 73.8754 71.5487 73.0277 72.7645C72.5712 73.4143 72.5278 73.7287 72.5278 75.9506V78.4453H96.6547H120.782V75.9506C120.782 73.7287 120.739 73.4143 120.282 72.7645C119.434 71.5487 118.521 71.1085 116.848 71.1085H115.347V68.2787C115.347 65.0926 115.13 64.3798 114.087 64.0235C113.218 63.73 112.37 63.9396 111.87 64.5685C111.479 65.0296 111.435 65.407 111.435 68.09V71.1085H96.6547H81.8745V68.09C81.8745 65.2393 81.8523 65.0296 81.3964 64.5475C80.7656 63.8768 79.9836 63.73 79.0918 64.0864Z" fill="#3EAEB1"/>
<path d="M35.3593 78.5082C35.3593 79.7868 35.5984 80.4782 38.6414 87.9193C40.4455 92.3429 42.1192 96.451 42.3583 97.0795C42.6843 97.9183 42.8582 98.1279 42.9886 97.8976C43.0973 97.7296 44.7927 93.6 46.7707 88.7374C50.0963 80.5412 50.3571 79.7868 50.3571 78.5496C50.3571 77.7953 50.2919 77.1874 50.2267 77.1874C50.1615 77.1874 49.792 77.4177 49.4442 77.7323C46.1186 80.4153 40.7063 80.5619 36.8808 78.0884C36.2287 77.6487 35.6201 77.2502 35.5332 77.2293C35.4245 77.1874 35.3593 77.7745 35.3593 78.5082Z" fill="#3EAEB1"/>
<path d="M72.5278 98.5469V115.275L73.0277 115.987C73.2885 116.365 73.8536 116.909 74.2449 117.161L74.9839 117.643H96.6547H118.326L119.065 117.161C119.455 116.909 120.021 116.365 120.282 115.987L120.782 115.275V98.5469V81.799H96.6547H72.5278V98.5469ZM97.8719 87.6469C98.8066 88.0667 99.4589 88.7582 101.089 91.148L102.11 92.636L104.545 93.2231C105.892 93.5378 107.37 93.9983 107.827 94.25C109.37 95.0466 109.914 96.9122 109.044 98.3166C108.783 98.715 107.935 99.784 107.132 100.706L105.675 102.383L105.74 105.234C105.806 108.462 105.61 109.07 104.219 109.887C103.176 110.495 102.285 110.412 99.3285 109.426L96.6547 108.525L94.0032 109.426C91.0247 110.412 90.1337 110.495 89.0908 109.887C87.6994 109.07 87.5037 108.462 87.569 105.234L87.6127 102.383L85.8737 100.35C84.9389 99.2391 84.0917 98.1701 84.0042 97.9813C83.5046 96.7657 84.1347 94.9629 85.3303 94.2922C85.6995 94.0827 87.1776 93.6214 88.6127 93.2439L91.1989 92.5938L92.786 90.3928C94.0462 88.6323 94.568 88.0874 95.3508 87.7098C96.5027 87.1442 96.7199 87.1442 97.8719 87.6469Z" fill="#3EAEB1"/>
<path d="M94.9157 93.2024C94.0684 94.3966 93.1552 95.4656 92.8942 95.5707C92.6333 95.6759 91.3509 96.032 90.0255 96.3673C88.7209 96.7027 87.5912 96.9959 87.5475 97.0174C87.5037 97.0588 88.1998 97.9183 89.0908 98.9245C89.9818 99.9306 90.8298 100.979 90.9603 101.231C91.1337 101.524 91.1775 102.488 91.0685 104.312L90.938 106.953L93.0899 106.198C96.9371 104.815 96.568 104.794 101.741 106.722L102.371 106.974L102.241 104.312C102.132 102.488 102.176 101.524 102.35 101.231C102.48 100.979 103.328 99.9306 104.219 98.9245C105.11 97.9183 105.806 97.0588 105.762 97.0174C105.719 96.9959 104.654 96.7027 103.393 96.3881C100.002 95.55 100.133 95.613 98.3937 93.2024C97.5457 92.0075 96.7637 91.0221 96.6547 91.0221C96.5465 91.0221 95.7637 92.0075 94.9157 93.2024Z" fill="#3EAEB1"/>
<path d="M30.6426 82.7629L29.0777 83.2871L26.991 86.0959C25.8608 87.6469 24.9261 88.947 24.9261 89.0099C24.9261 89.0728 25.6217 89.1357 26.4694 89.1357C27.3388 89.1357 28.4256 89.2401 28.8821 89.3867C29.9906 89.7014 31.686 91.1687 32.1642 92.217C32.3816 92.6568 34.1422 97.352 36.0984 102.656L39.6632 112.298H42.8583H46.0535L49.7921 102.237C51.857 96.7027 53.6394 91.9653 53.7915 91.7343C54.2262 90.9592 55.9434 89.6384 56.8345 89.3867C57.3127 89.2401 58.3778 89.1357 59.2473 89.1357C60.0949 89.1357 60.7905 89.0728 60.7905 89.0099C60.7905 88.9255 59.8559 87.6262 58.7256 86.0959L56.6607 83.3078L54.9218 82.7422C53.9436 82.4275 53.1394 82.218 53.0959 82.2387C53.0742 82.281 51.444 86.264 49.4878 91.085C46.423 98.6313 45.8362 99.9306 45.2058 100.455C43.7712 101.67 41.9454 101.67 40.5108 100.455C39.9022 99.9513 39.2718 98.5891 36.2289 91.0428C34.2508 86.1796 32.5554 82.2387 32.425 82.2387C32.3164 82.2387 31.5122 82.4905 30.6426 82.7629Z" fill="#3EAEB1"/>
<path d="M22.4699 84.9854C20.8832 85.8235 19.0791 87.5633 18.2313 89.0935C16.9054 91.5248 16.8837 91.6721 16.8837 101.838C16.8837 106.932 16.949 111.271 17.0141 111.46C17.3836 112.361 17.9271 112.403 27.2301 112.403C34.7942 112.403 36.0332 112.361 35.9462 112.109C35.881 111.942 34.2942 107.666 32.425 102.614C29.8384 95.5915 28.9037 93.3275 28.4907 92.9507C27.9908 92.5317 27.73 92.4895 25.5346 92.4895C22.8177 92.4895 21.883 92.1955 21.2092 91.148C20.405 89.8901 20.6223 89.0099 22.3177 86.7252C23.6219 84.9432 24.0349 84.2932 23.7958 84.3147C23.7523 84.3147 23.1654 84.6286 22.4699 84.9854Z" fill="#3EAEB1"/>
<path d="M61.8772 84.5027C61.8772 84.5871 62.5728 85.5932 63.3988 86.7252C65.1159 89.0513 65.3115 89.8901 64.4855 91.1894C63.8334 92.217 62.9206 92.4895 60.1601 92.4895C57.9865 92.4895 57.7257 92.5317 57.2258 92.9507C56.8127 93.3275 55.8563 95.6544 53.3133 102.551C51.4657 107.56 49.9007 111.837 49.8137 112.025C49.6616 112.382 50.205 112.403 59.2472 112.403H68.8327V102.488C68.8327 93.9775 68.7893 92.4058 68.485 91.4204C67.7242 88.9892 66.4418 87.165 64.3769 85.6769C63.0945 84.7544 61.8772 84.1888 61.8772 84.5027Z" fill="#3EAEB1"/>
</svg>
