<svg width="54" height="49" viewBox="0 0 54 49" fill="none" xmlns="http://www.w3.org/2000/svg">
<path d="M21.2851 4.37114C19.717 4.55359 18.5871 5.63871 18.5063 7.03109C18.4372 8.16424 18.9329 9.00926 20.0168 9.60466C21.2044 10.248 22.6456 10.248 23.8447 9.61429C25.9432 8.49076 25.9086 5.89801 23.7871 4.75524C23.3259 4.51517 23.0722 4.44797 22.1153 4.33273C21.9884 4.31352 21.6194 4.33273 21.2851 4.37114Z" fill="#3EAEB1"/>
<path d="M32.7107 8.00077C32.3534 8.19284 32.3189 8.51935 32.3189 11.8419V15.2029L31.454 15.7406C30.9813 16.0383 30.5777 16.2784 30.5546 16.2784C30.5201 16.2784 30.4855 15.6734 30.4509 14.9436C30.4048 13.676 30.3817 13.58 30.0358 12.9846C29.5746 12.2164 28.7445 11.5634 27.8681 11.2945C27.2686 11.1025 27.0034 11.0929 21.9763 11.0929C18.2867 11.0929 16.5803 11.1313 16.246 11.2081C14.8278 11.5442 13.5825 12.735 13.4672 13.8585C13.3635 14.838 13.2942 17.3539 13.2942 20.6956V24.2006L12.7062 24.5175C11.6916 25.0745 10.9998 26.1116 10.9883 27.1103C10.9883 27.3888 11.092 28.4258 11.2189 29.415C11.3457 30.404 11.5302 31.8349 11.6224 32.6032C11.7723 33.7843 11.8415 34.0242 12.049 34.1587C12.2566 34.3124 12.5794 34.3316 14.9661 34.3316C17.4105 34.3316 17.6756 34.3124 17.9178 34.1587C18.183 33.9666 18.2406 33.6402 18.9324 27.9937C19.0593 26.9663 18.967 26.3709 18.575 25.7179C18.2983 25.2666 17.4105 24.5079 16.9262 24.3255L16.6379 24.2199L16.7072 19.2648C16.7763 14.9532 16.7994 14.2906 16.9608 14.1946C17.422 13.8777 17.4451 14.0601 17.4451 18.8231V23.3556L17.7333 23.4612C18.1715 23.6341 19.1169 24.4023 19.5089 24.9017C19.6934 25.1513 19.9586 25.6315 20.097 25.9772C20.4083 26.7262 20.3967 26.9663 19.8664 31.2011C19.4628 34.3893 19.3475 34.7444 18.6557 35.0999C18.4366 35.2149 18.0792 35.3302 17.8486 35.359L17.4451 35.4167V36.934C17.4451 37.7691 17.5027 38.5664 17.5719 38.7202C17.8601 39.3539 18.5865 39.7381 19.4859 39.7284C20.2238 39.7284 20.7772 39.4691 21.1577 38.9602L21.4229 38.605L21.4575 31.5659L21.4921 24.5271L21.9187 24.556L22.3453 24.5848L22.3568 31.5467C22.3684 39.277 22.3222 38.7971 23.1524 39.4115C23.5675 39.7091 23.8327 39.7667 24.7089 39.7188C25.4123 39.6801 26.081 39.1808 26.3231 38.5184C26.4385 38.2112 26.4615 35.6088 26.4269 26.1788C26.3808 15.1164 26.3924 14.2234 26.5768 14.137C26.7152 14.0601 26.819 14.0697 26.9458 14.1562C27.1072 14.2714 27.1303 14.6267 27.1303 16.8737C27.1303 19.3225 27.1418 19.4857 27.3724 19.8218C27.6376 20.2251 27.9374 20.4076 28.5023 20.5132C29.0789 20.6188 29.5862 20.4364 30.7045 19.7162C31.2465 19.3801 31.8228 19.0152 32.0075 18.9192L32.3189 18.7559V27.2351L32.3073 35.7241L31.3041 36.1275C28.9059 37.0971 27.5569 38.5281 28.4677 39.1232C29.2287 39.6225 29.5055 39.6419 36.0085 39.6994C39.3405 39.7284 42.223 39.7381 42.4075 39.7091C42.9953 39.6129 42.9148 39.325 42.0962 38.5378C41.0931 37.5871 40.8741 37.5005 39.2714 37.5102C38.5681 37.5198 37.934 37.4909 37.8762 37.4623C37.8184 37.4333 37.6341 37.174 37.4727 36.8957C37.2998 36.6171 37.0116 36.2905 36.827 36.185C36.4119 35.9257 35.3281 35.6088 34.5326 35.5224L33.9329 35.4551V26.5918V17.7188L34.6249 17.277C35.4088 16.7681 35.6164 16.5376 35.72 16.0767C35.87 15.4141 35.1668 14.5979 34.3712 14.4827L33.9329 14.425V11.333C33.9329 8.46173 33.9213 8.23129 33.7254 8.08722C33.5063 7.92398 32.9415 7.87595 32.7107 8.00077ZM13.7324 25.6891C14.2628 26.2845 15.4619 26.3037 16.1537 25.7275L16.5572 25.3914L16.8916 25.6603C17.2836 25.9676 17.6065 26.4573 17.7333 26.9087L17.814 27.2255H15.0353H12.2566V26.9854C12.2566 26.5629 13.0982 25.401 13.4096 25.401C13.4442 25.401 13.5941 25.5259 13.7324 25.6891Z" fill="#3EAEB1"/>
</svg>
