<svg width="132" height="137" viewBox="0 0 132 137" fill="none" xmlns="http://www.w3.org/2000/svg">
<path d="M52.0291 12.2215C48.196 12.7316 45.434 15.7655 45.2367 19.6585C45.0676 22.8267 46.2795 25.1893 48.9289 26.854C51.8319 28.6528 55.3549 28.6528 58.2861 26.8809C63.4156 23.7396 63.3311 16.4905 58.1452 13.2954C57.0178 12.6242 56.3977 12.4363 54.0585 12.1141C53.7484 12.0604 52.8465 12.1141 52.0291 12.2215Z" fill="#3EAEB1"/>
<path d="M79.9598 22.3701C79.0864 22.9071 79.002 23.82 79.002 33.1096V42.5066L76.8877 44.0101C75.7322 44.8424 74.7458 45.5137 74.6894 45.5137C74.6049 45.5137 74.5203 43.8221 74.4357 41.7817C74.323 38.2377 74.2667 37.9692 73.4211 36.3046C72.2937 34.1567 70.2645 32.331 68.1224 31.5792C66.6569 31.0422 66.0086 31.0154 53.7202 31.0154C44.7012 31.0154 40.5299 31.1228 39.7126 31.3376C36.2459 32.2773 33.202 35.6065 32.9201 38.7478C32.6665 41.4863 32.4973 48.5206 32.4973 57.8639V67.6636L31.0599 68.5496C28.5797 70.1069 26.8886 73.0065 26.8605 75.7987C26.8605 76.5774 27.1141 79.4767 27.4242 82.2426C27.7342 85.0077 28.1852 89.0083 28.4106 91.1564C28.777 94.4587 28.9462 95.1295 29.4534 95.5055C29.9608 95.9353 30.7499 95.989 36.5841 95.989C42.5592 95.989 43.2074 95.9353 43.7993 95.5055C44.4476 94.9683 44.5885 94.0558 46.2795 78.2688C46.5896 75.3961 46.3641 73.7314 45.4058 71.9057C44.7294 70.6438 42.5592 68.5228 41.3754 68.0127L40.6708 67.7174L40.84 53.8635C41.009 41.8085 41.0654 39.956 41.46 39.6875C42.5874 38.8015 42.6438 39.3116 42.6438 52.6285V65.301L43.3483 65.5963C44.4194 66.0796 46.7305 68.2275 47.6888 69.6236C48.1397 70.3217 48.788 71.6641 49.1262 72.6307C49.8871 74.7249 49.8589 75.3961 48.5625 87.2363C47.576 96.1502 47.2942 97.1432 45.6031 98.1371C45.0676 98.4586 44.1939 98.7809 43.6302 98.8615L42.6438 99.0227V103.265C42.6438 105.6 42.7847 107.829 42.9538 108.259C43.6584 110.031 45.434 111.105 47.6324 111.078C49.4362 111.078 50.789 110.353 51.7191 108.93L52.3674 107.937L52.4519 88.2562L52.5365 68.5765L53.5793 68.6571L54.6221 68.7376L54.6503 88.2025C54.6785 109.816 54.5657 108.474 56.595 110.192C57.6096 111.024 58.2579 111.185 60.3999 111.051C62.1192 110.943 63.7539 109.547 64.3457 107.695C64.6276 106.836 64.6839 99.5599 64.5994 73.1944C64.4867 42.2649 64.5149 39.768 64.9658 39.5264C65.304 39.3116 65.5577 39.3384 65.8677 39.5801C66.2623 39.9023 66.3187 40.8956 66.3187 47.1782C66.3187 54.0246 66.3468 54.4811 66.9105 55.4207C67.5588 56.5484 68.2916 57.0585 69.6726 57.3538C71.0819 57.6491 72.322 57.139 75.0558 55.1254C76.3805 54.1857 77.7894 53.1654 78.2407 52.897L79.002 52.4405V76.1478L78.9736 99.8822L76.5214 101.01C70.6591 103.721 67.3615 107.722 69.588 109.386C71.4482 110.782 72.1247 110.836 88.021 110.997C96.1658 111.078 103.212 111.105 103.663 111.024C105.1 110.755 104.903 109.95 102.902 107.749C100.45 105.091 99.9148 104.849 95.997 104.876C94.2779 104.903 92.7277 104.822 92.5865 104.742C92.4453 104.661 91.9948 103.936 91.6003 103.158C91.1775 102.379 90.473 101.466 90.0217 101.171C89.0072 100.446 86.3579 99.5599 84.4132 99.3182L82.9474 99.1301V74.349V49.5409L84.6389 48.3058C86.5552 46.8829 87.0625 46.2385 87.3157 44.9498C87.6825 43.0972 85.9635 40.8151 84.0188 40.493L82.9474 40.3318V31.6866C82.9474 23.6589 82.919 23.0146 82.4401 22.6118C81.9045 22.1554 80.5238 22.0211 79.9598 22.3701ZM33.5684 71.8252C34.8648 73.4898 37.7961 73.5435 39.4871 71.9326L40.4735 70.9929L41.2909 71.7447C42.2491 72.6038 43.0383 73.9731 43.3483 75.235L43.5457 76.1209H36.7532H29.9608V75.4497C29.9608 74.2684 32.0182 71.0197 32.7792 71.0197C32.8638 71.0197 33.2302 71.3688 33.5684 71.8252Z" fill="#3EAEB1"/>
</svg>
