<svg width="132" height="137" viewBox="0 0 132 137" fill="none" xmlns="http://www.w3.org/2000/svg">
<path d="M80.4916 8.38106C76.8416 9.04367 73.1233 11.792 71.1387 15.3257C67.1467 22.4667 69.1998 31.399 75.8608 35.7916C78.21 37.3376 79.4425 37.6811 82.7724 37.6811C85.1906 37.6811 85.9896 37.5829 87.13 37.1903C89.6618 36.2578 91.5098 34.9573 93.2204 32.945C95.0001 30.8346 96.0262 28.4788 96.505 25.4114C96.8703 23.1047 96.8703 22.7857 96.5281 20.6999C95.5926 15.0067 92.1943 10.7369 87.13 8.8964C85.6012 8.33202 82.2253 8.08661 80.4916 8.38106Z" fill="#3EAEB1" fill-opacity="0.921569"/>
<path d="M90.8712 37.2885C86.8107 37.6812 83.3204 39.7915 80.8339 43.3988C79.5791 45.1903 79.2598 46.1473 78.6666 49.7791C77.6858 55.8648 75.473 59.8648 71.1388 63.374C68.1276 65.8279 64.9111 67.1284 60.7594 67.5456C56.6533 67.9874 55.8093 68.2082 54.8055 69.1898C54.3036 69.6806 53.7334 70.3922 53.5053 70.7848C53.3 71.1529 52.8209 71.5701 52.4331 71.7173C52.0681 71.84 51.0415 72.2326 50.1519 72.5762C47.0268 73.8768 47.1408 73.8522 45.4299 72.7234C44.5858 72.1836 43.833 71.7173 43.7875 71.7173C43.719 71.7173 43.2855 71.4474 42.8294 71.1039C41.2326 69.9259 41.5291 69.7787 34.5487 75.3001C30.2601 78.6617 27.9333 80.6739 27.5911 81.2633C26.7242 82.7107 17.9874 99.2998 17.9189 99.6182C17.8733 99.7901 17.0064 100.257 15.9799 100.673C14.9534 101.091 13.904 101.533 13.6531 101.655C13.4022 101.753 12.6038 102.146 11.8738 102.49C10.8017 102.98 10.4822 103.275 10.2086 104.011C9.91196 104.772 9.91196 105.042 10.1401 105.679C10.5507 106.71 11.2351 107.275 12.0563 107.3C12.4441 107.3 14.3603 106.636 16.3221 105.802L19.8807 104.306L22.025 105.582C23.1884 106.318 24.1693 106.907 24.2149 106.931C24.2606 106.98 24.1237 108.085 23.9184 109.41C23.7131 110.759 23.3481 113.164 23.12 114.784C22.8691 116.404 22.5041 118.882 22.2988 120.305C21.7285 123.986 21.7513 126.146 22.3216 126.98C22.9831 127.937 24.5343 128.477 25.6521 128.109C27.3402 127.569 27.6139 127.004 28.2527 122.637C29.051 117.017 29.4617 114.906 29.5073 115.765C29.5301 116.158 29.5757 116.673 29.5985 116.87C29.6442 117.066 29.7354 118.955 29.8266 121.041C29.9179 123.127 30.1004 125.262 30.2145 125.753C30.6479 127.594 33.0887 128.526 34.5943 127.446C35.9858 126.465 36.0087 126.293 35.9402 121.041C35.8945 118.416 35.7805 114.588 35.6893 112.576L35.5068 108.894L36.1227 107.667C36.4648 106.98 37.6055 104.673 38.632 102.515C41.2554 97.0419 43.3312 92.7473 44.3349 90.7351C46.4108 86.5633 47.8936 83.472 48.7148 81.7292C49.4447 80.1344 49.7185 79.7906 50.3344 79.5941C50.7222 79.4721 51.9084 79.0055 52.935 78.588L54.8283 77.8275L55.5583 78.3923C56.2654 78.9318 56.4936 78.9564 60.075 78.9318C63.8162 78.9318 65.5271 78.7108 68.6751 77.8275C73.4884 76.4779 77.9137 73.8277 80.9474 70.5148C81.5637 69.8278 82.1339 69.2634 82.2022 69.2634C82.3396 69.2634 82.6819 70.7848 83.5713 75.2755C83.8223 76.6252 84.1868 78.4169 84.3925 79.2757C84.7348 80.8704 84.6887 81.2879 84.1415 81.2879C83.9589 81.2879 83.0234 81.5573 82.0426 81.8765C81.0618 82.1958 78.8723 82.8581 77.1839 83.3738C73.9674 84.3308 71.9599 84.944 69.9525 85.6308C68.082 86.2448 66.7132 87.5448 65.7324 89.6062C64.7058 91.7412 64.6146 92.9929 65.3217 96.6736C65.5499 97.9989 66.0289 100.673 66.3482 102.637C66.6677 104.6 67.0327 106.735 67.1467 107.422C67.8082 111.201 68.3329 114.195 68.8576 117.484C69.77 122.98 70.0894 124.011 71.4581 125.483C73.8305 128.011 76.9782 128.575 79.9897 126.98C81.7464 126.047 82.8415 124.722 83.5253 122.685C84.1415 120.943 84.1415 119.716 83.5936 116.796C83.183 114.636 82.5675 111.029 81.8147 106.564C81.632 105.41 81.2897 103.422 81.0388 102.146C80.3089 98.3182 79.9444 98.784 84.9397 97.263C87.3349 96.527 89.3425 95.9867 89.4108 96.0604C89.4791 96.1341 89.2972 96.7964 89.0232 97.5085C88.7723 98.2445 88.407 99.2261 88.2474 99.6919C88.0647 100.159 87.4492 101.753 86.879 103.251C85.282 107.324 84.9397 108.478 84.9397 109.876C84.9397 112.085 85.5559 113.606 87.1069 115.299C89.4338 117.827 88.5896 117.704 104.216 117.802C112.337 117.851 118.222 117.777 119.112 117.631C121.758 117.189 123.629 115.79 124.792 113.361C125.339 112.256 125.408 111.79 125.408 109.876C125.408 107.962 125.339 107.496 124.814 106.441C124.039 104.845 122.762 103.545 121.211 102.784L119.956 102.146H111.584C102.46 102.146 102.87 102.22 103.509 100.772C103.691 100.38 104.421 98.4655 105.128 96.5515C105.836 94.6122 106.542 92.6737 106.725 92.2569C107.797 89.6062 109.599 84.6002 110.01 83.1528C110.603 81.0914 110.603 80.5511 110.056 77.8766C109.805 76.7234 109.394 74.7111 109.143 73.435C108.892 72.159 108.322 69.337 107.888 67.1776C107.455 65.018 106.52 60.331 105.813 56.7483C103.486 44.8712 103.349 44.3313 102.254 42.6381C101.137 40.8713 99.5625 39.5462 97.3722 38.5155C95.5473 37.6567 92.6271 37.1168 90.8712 37.2885Z" fill="#3EAEB1"/>
<path d="M38.0617 50.319C36.6701 50.8588 34.9593 52.1594 32.815 54.3435C31.6744 55.5213 30.2144 56.1839 27.5226 56.7483C26.1768 57.0182 24.9449 57.5581 23.7815 58.3924L22.9147 59.0059L20.8616 57.8771C18.3752 56.5029 17.0977 56.3802 15.7746 57.3617C14.1778 58.5151 14.2462 60.2083 15.9343 61.9261C16.5046 62.515 17.1205 63.0795 17.303 63.2021C18.2155 63.742 21.7284 69.0916 25.6293 75.8154C26.4049 77.2141 27.1348 78.3432 27.2033 78.3186C27.2717 78.3186 28.0701 77.7538 28.9826 77.0423C31.1269 75.3737 36.0543 71.5455 38.0617 69.9996C38.9514 69.3124 39.6814 68.6499 39.7269 68.5272C39.7726 68.38 39.476 67.3493 39.0654 66.196L38.3354 64.1101L39.5217 62.9568C41.5519 60.9936 42.9662 57.9262 42.9662 55.3986C42.9662 53.779 42.5328 52.552 41.5063 51.3987C40.7079 50.4907 40.3885 50.2944 39.5444 50.2208C38.9742 50.1963 38.3126 50.2208 38.0617 50.319Z" fill="#3EAEB1"/>
</svg>
