<svg width="49" height="47" viewBox="0 0 49 47" fill="none" xmlns="http://www.w3.org/2000/svg">
<path d="M29.8796 2.87504C28.5247 3.10235 27.1444 4.04521 26.4077 5.2575C24.9258 7.70734 25.688 10.7717 28.1606 12.2787C29.0326 12.809 29.4902 12.9269 30.7263 12.9269C31.6239 12.9269 31.9205 12.8932 32.3439 12.7585C33.2837 12.4386 33.9697 11.9924 34.6047 11.3021C35.2653 10.5781 35.6462 9.76988 35.824 8.71756C35.9596 7.92621 35.9596 7.81677 35.8325 7.10121C35.4853 5.14807 34.2238 3.68324 32.3439 3.05183C31.7763 2.85821 30.5232 2.77402 29.8796 2.87504Z" fill="#3EAEB1" fill-opacity="0.921569"/>
<path d="M33.7321 12.7926C32.2248 12.9274 30.9292 13.6513 30.0062 14.8889C29.5404 15.5035 29.4219 15.8318 29.2016 17.0777C28.8376 19.1655 28.0161 20.5378 26.4072 21.7417C25.2894 22.5835 24.0954 23.0297 22.5543 23.1728C21.03 23.3244 20.7167 23.4001 20.3441 23.7369C20.1578 23.9053 19.9461 24.1494 19.8615 24.2841C19.7853 24.4104 19.6074 24.5535 19.4635 24.604C19.328 24.6461 18.9469 24.7808 18.6166 24.8986C17.4566 25.3448 17.4989 25.3364 16.8638 24.9491C16.5504 24.764 16.271 24.604 16.2541 24.604C16.2287 24.604 16.0678 24.5114 15.8984 24.3935C15.3057 23.9894 15.4158 23.9389 12.8245 25.8331C11.2326 26.9864 10.3688 27.6767 10.2418 27.8789C9.91999 28.3754 6.67679 34.0666 6.65136 34.1758C6.63443 34.2348 6.31263 34.395 5.93158 34.5377C5.55053 34.6811 5.16098 34.8327 5.06784 34.8746C4.97471 34.9082 4.67833 35.043 4.40735 35.161C4.00937 35.3291 3.89077 35.4303 3.7892 35.6828C3.67909 35.9439 3.67909 36.0365 3.76377 36.2551C3.91619 36.6088 4.17025 36.8026 4.47509 36.8112C4.61905 36.8112 5.33036 36.5834 6.05861 36.2973L7.3796 35.784L8.17559 36.2218C8.60746 36.4743 8.97158 36.6764 8.98851 36.6846C9.00548 36.7014 8.95466 37.0805 8.87845 37.5351C8.80224 37.9979 8.66675 38.8229 8.58207 39.3787C8.48893 39.9345 8.35344 40.7846 8.27723 41.2728C8.06553 42.5356 8.07399 43.2766 8.2857 43.5627C8.53125 43.891 9.10708 44.0763 9.52202 43.95C10.1487 43.7648 10.2503 43.571 10.4874 42.0728C10.7837 40.1448 10.9362 39.4205 10.9531 39.7152C10.9616 39.8501 10.9785 40.0267 10.987 40.0943C11.0039 40.1616 11.0378 40.8096 11.0716 41.5253C11.1055 42.2409 11.1733 42.9733 11.2156 43.1418C11.3765 43.7734 12.2826 44.0931 12.8415 43.7226C13.358 43.386 13.3665 43.327 13.3411 41.5253C13.3241 40.6247 13.2818 39.3114 13.2479 38.6212L13.1802 37.358L13.4088 36.9371C13.5358 36.7014 13.9593 35.91 14.3403 35.1696C15.3142 33.292 16.0847 31.8187 16.4573 31.1283C17.2279 29.6971 17.7783 28.6366 18.0832 28.0387C18.3541 27.4916 18.4558 27.3737 18.6844 27.3062C18.8283 27.2644 19.2687 27.1043 19.6498 26.9611L20.3526 26.7002L20.6236 26.894C20.886 27.079 20.9708 27.0875 22.3002 27.079C23.689 27.079 24.3241 27.0032 25.4927 26.7002C27.2794 26.2372 28.9222 25.328 30.0483 24.1915C30.2771 23.9558 30.4888 23.7621 30.5141 23.7621C30.5651 23.7621 30.6922 24.2841 31.0223 25.8247C31.1155 26.2877 31.2508 26.9024 31.3272 27.197C31.4542 27.7441 31.4371 27.8873 31.234 27.8873C31.1662 27.8873 30.8189 27.9798 30.4549 28.0893C30.0908 28.1988 29.278 28.426 28.6512 28.6029C27.4572 28.9312 26.712 29.1416 25.9669 29.3772C25.2725 29.5879 24.7644 30.0339 24.4003 30.7411C24.0192 31.4735 23.9854 31.9029 24.2479 33.1656C24.3326 33.6203 24.5104 34.5377 24.6289 35.2115C24.7475 35.8849 24.883 36.6174 24.9253 36.853C25.1709 38.1495 25.3656 39.1766 25.5604 40.305C25.8991 42.1905 26.0177 42.5442 26.5258 43.0492C27.4064 43.9164 28.5749 44.1099 29.6928 43.5627C30.3449 43.2426 30.7514 42.7881 31.0053 42.0893C31.234 41.4916 31.234 41.0707 31.0306 40.0689C30.8782 39.3279 30.6497 38.0905 30.3703 36.5587C30.3024 36.1628 30.1754 35.4808 30.0822 35.043C29.8113 33.7298 29.676 33.8896 31.5303 33.3678C32.4194 33.1153 33.1647 32.93 33.19 32.9553C33.2154 32.9806 33.1479 33.2078 33.0461 33.4521C32.953 33.7046 32.8174 34.0413 32.7582 34.2011C32.6903 34.3614 32.4619 34.9082 32.2502 35.4221C31.6574 36.8194 31.5303 37.2153 31.5303 37.6949C31.5303 38.4528 31.759 38.9746 32.3348 39.5554C33.1986 40.4226 32.8852 40.3804 38.6859 40.4141C41.7005 40.4309 43.8851 40.4055 44.2155 40.3554C45.1977 40.2038 45.8922 39.7238 46.324 38.8905C46.527 38.5114 46.5526 38.3516 46.5526 37.6949C46.5526 37.0383 46.527 36.8784 46.3321 36.5165C46.0444 35.969 45.5704 35.523 44.9946 35.2619L44.5288 35.043H41.421C38.034 35.043 38.1862 35.0684 38.4234 34.5717C38.491 34.4372 38.762 33.7804 39.0244 33.1237C39.2873 32.4584 39.5493 31.7934 39.6173 31.6504C40.0152 30.7411 40.6841 29.0237 40.8367 28.5271C41.0568 27.8199 41.0568 27.6346 40.8538 26.717C40.7606 26.3214 40.608 25.6311 40.5149 25.1933C40.4217 24.7555 40.2101 23.7874 40.049 23.0466C39.8882 22.3057 39.5412 20.6977 39.2787 19.4686C38.4149 15.394 38.3641 15.2088 37.9576 14.6279C37.5429 14.0218 36.9585 13.5672 36.1454 13.2136C35.468 12.919 34.384 12.7337 33.7321 12.7926Z" fill="#3EAEB1"/>
<path d="M14.1292 17.2628C13.6126 17.448 12.9775 17.8942 12.1815 18.6435C11.7581 19.0475 11.2161 19.2748 10.2169 19.4685C9.71734 19.5611 9.26004 19.7463 8.82818 20.0325L8.50641 20.243L7.74427 19.8557C6.82129 19.3843 6.34707 19.3422 5.85592 19.6789C5.26317 20.0746 5.28856 20.6555 5.9152 21.2448C6.1269 21.4468 6.35553 21.6405 6.42328 21.6825C6.76201 21.8678 8.06604 23.703 9.5141 26.0097C9.80201 26.4896 10.073 26.8769 10.0984 26.8685C10.1238 26.8685 10.4202 26.6747 10.7589 26.4306C11.5549 25.8582 13.384 24.5449 14.1292 24.0145C14.4594 23.7788 14.7304 23.5515 14.7473 23.5094C14.7643 23.4589 14.6542 23.1053 14.5017 22.7096L14.2308 21.994L14.6711 21.5984C15.4248 20.9249 15.9498 19.8726 15.9498 19.0054C15.9498 18.4498 15.7889 18.0289 15.4078 17.6332C15.1115 17.3217 14.9929 17.2544 14.6796 17.2291C14.4679 17.2207 14.2223 17.2291 14.1292 17.2628Z" fill="#3EAEB1"/>
</svg>
