<svg width="50" height="46" viewBox="0 0 50 46" fill="none" xmlns="http://www.w3.org/2000/svg">
<path d="M18.4121 5.76893C16.8312 6.19113 15.3849 7.31322 14.757 8.61308C13.7816 10.5796 14.2749 13.1126 16.1921 15.9235C17.5712 17.9677 20.1836 20.6452 24.0741 24.0226C25.1056 24.9114 24.9711 24.9003 25.7783 24.2004C33.1447 17.7455 35.499 14.6347 35.7231 11.0906C35.7792 10.2462 35.7458 9.94627 35.5438 9.29079C35.0504 7.69096 33.7164 6.43553 31.8775 5.86893C31.0254 5.60229 30.8013 5.58007 29.7249 5.62449C27.8749 5.71336 26.608 6.31331 25.5653 7.6132L25.0607 8.23534L24.1638 7.32434C23.2108 6.36888 22.695 6.05779 21.5739 5.76893C20.7554 5.55784 19.1969 5.55784 18.4121 5.76893ZM21.1814 7.00214C22.5156 7.30211 23.435 8.09093 24.4104 9.79074C24.702 10.2907 24.9711 10.7129 25.0159 10.7129C25.0607 10.7129 25.285 10.3796 25.5092 9.97961C26.8098 7.66873 27.9982 6.8688 30.0949 6.87992C32.7746 6.90215 34.6917 8.7353 34.4786 11.0906C34.2882 13.3015 33.3687 14.8458 30.0949 18.4787C29.7135 18.9009 27.0228 21.4118 25.8119 22.4672L25.0159 23.1561L23.805 22.0784C20.9011 19.512 18.2887 16.7789 17.1788 15.1569C16.6182 14.3236 15.9343 12.9127 15.7325 12.1572C15.4746 11.1573 15.5531 9.82405 15.9118 9.12415C16.4276 8.10204 17.717 7.19101 18.9615 6.9466C19.7239 6.79104 20.3405 6.81327 21.1814 7.00214Z" fill="#3EAEB1"/>
<path d="M4.74487 15.0902C4.61028 15.1791 4.4085 15.5457 4.29638 15.9013C3.99365 16.8234 3.99365 20.5897 4.29638 22.2117C5.12604 26.6003 7.16661 29.2111 12.6604 32.9328C14.9028 34.4439 15.9119 35.1325 16.0912 35.2658C16.2146 35.3548 16.5173 35.7772 16.7527 36.2103C17.56 37.6545 18.7597 38.699 19.9481 38.9989C21.1142 39.2876 22.1457 38.9878 22.9754 38.0879C23.6032 37.4104 23.9508 36.6217 24.0853 35.5435C24.5226 31.9884 22.1232 27.6444 17.5488 23.7449C14.9701 21.5562 13.7368 20.9674 13.0529 21.6562C12.5371 22.1673 12.7501 23.1672 13.7928 25.1336L14.4655 26.4003L14.0395 26.1558C13.804 26.0336 13.0641 25.5891 12.3913 25.1781L11.1693 24.4337L10.8105 23.6005C10.6087 23.145 10.3508 22.545 10.2274 22.2673C9.84623 21.4229 9.2296 20.0342 8.79233 19.0454C8.24297 17.7788 7.92899 17.2456 7.17782 16.3345C6.13513 15.0569 5.3615 14.6681 4.74487 15.0902ZM6.31449 17.2011C6.90873 18.0233 7.30115 18.8232 8.5793 21.7451C9.49869 23.8449 10.2274 25.367 10.362 25.4558C10.6087 25.6336 14.1068 27.7 15.5419 28.5223C16.4725 29.0555 16.8761 29.1555 17.1227 28.9111C17.2909 28.7444 17.3021 28.0889 17.134 27.9889C16.6406 27.6779 13.8825 22.8228 14.2077 22.8228C14.3646 22.8228 16.0016 24.1004 17.1676 25.1226C20.9796 28.4667 23.0314 32.0773 22.8408 35.0993C22.7623 36.2214 22.4035 36.9991 21.7196 37.4879C20.5087 38.3545 18.9727 37.5323 17.7618 35.3662C17.2685 34.4771 17.3134 34.5107 14.0619 32.3218C8.74748 28.7444 6.87513 26.6667 5.88846 23.245C5.59695 22.2339 5.26059 19.7898 5.26059 18.6565C5.26059 17.5455 5.39513 16.1457 5.50725 16.179C5.56331 16.2012 5.9221 16.6567 6.31449 17.2011Z" fill="#3EAEB1"/>
<path d="M43.6731 15.4906C43.0114 16.1016 42.0921 17.2792 41.722 17.9903C41.5985 18.2347 41.1167 19.3124 40.6568 20.3789C40.197 21.4455 39.5921 22.812 39.3227 23.412L38.8296 24.5007L37.3271 25.3784C36.4974 25.8673 35.7797 26.2671 35.7462 26.2671C35.7012 26.2671 36.0041 25.6228 36.3962 24.834C37.0355 23.5786 37.1363 23.3008 37.1924 22.6231C37.2372 21.9455 37.2148 21.8232 37.0018 21.6121C36.4974 21.1122 35.5893 21.3788 34.109 22.4676C30.3643 25.234 27.4941 28.7226 26.4178 31.8333C25.3527 34.8887 25.9918 37.7662 27.9538 38.7547C29.759 39.6767 31.8108 38.7104 33.2346 36.2882L33.7727 35.3665L36.0265 33.8441C38.1345 32.4332 40.0402 31.0556 40.6905 30.489C40.8474 30.3557 41.2174 30.0447 41.5201 29.7891C42.2826 29.1447 43.6057 27.556 44.1773 26.5784C44.8167 25.5118 45.2424 24.3785 45.6015 22.8787C45.8705 21.7454 45.8928 21.4566 45.9042 19.0457C45.9042 16.1571 45.8595 15.7572 45.4443 15.2684C45.2201 15.0017 45.0633 14.9351 44.7269 14.9351C44.3682 14.9351 44.1996 15.0239 43.6731 15.4906ZM44.7269 18.3236C44.7269 23.9786 43.1458 27.1337 38.661 30.4446C37.6744 31.1667 37.125 31.5555 33.9186 33.7219C32.8311 34.4552 32.6741 34.6107 32.3712 35.1886C31.4968 36.9107 30.4427 37.8216 29.3105 37.8216C27.4717 37.8216 26.6308 35.1439 27.5838 32.3556C28.3238 30.2112 29.5907 28.367 31.8779 26.0896C33.6271 24.3674 35.7573 22.6676 35.8471 22.9342C35.9256 23.1675 34.7369 25.3229 33.5262 27.145C32.7189 28.367 32.6965 28.4226 32.8535 28.7004C33.2009 29.3114 33.4814 29.1892 38.2462 26.3006C38.7845 25.9782 39.2667 25.7117 39.3114 25.7117C39.5243 25.7006 39.9171 25.2451 40.1186 24.8007C40.2307 24.5452 40.4216 24.1008 40.5447 23.823C40.6682 23.5453 41.0155 22.7676 41.3072 22.101C42.608 19.1124 43.0004 18.2792 43.4152 17.657C44.1102 16.6349 44.5136 16.146 44.6258 16.2238C44.6818 16.2571 44.7269 17.2015 44.7269 18.3236Z" fill="#3EAEB1"/>
</svg>
