<svg width="132" height="137" viewBox="0 0 132 137" fill="none" xmlns="http://www.w3.org/2000/svg">
<path d="M48.6091 17.1817C44.4356 18.4391 40.6172 21.781 38.9597 25.6523C36.3846 31.509 37.6869 39.0531 42.7484 47.4245C46.3891 53.5128 53.2858 61.4871 63.5568 71.546C66.2799 74.193 65.9247 74.16 68.0558 72.0754C87.503 52.851 93.7185 43.5862 94.3102 33.0311C94.4583 30.5163 94.37 29.6229 93.8367 27.6707C92.5343 22.906 89.0125 19.167 84.1577 17.4795C81.9083 16.6854 81.3166 16.6192 78.4748 16.7515C73.5909 17.0162 70.2462 18.803 67.4934 22.6744L66.1615 24.5273L63.7935 21.8141C61.2776 18.9685 59.916 18.042 56.9561 17.1817C54.7953 16.553 50.681 16.553 48.6091 17.1817ZM55.9201 20.8545C59.4424 21.7479 61.8695 24.0972 64.4447 29.1597C65.2143 30.6487 65.9247 31.9061 66.043 31.9061C66.1615 31.9061 66.7535 30.9134 67.3455 29.7222C70.779 22.8398 73.9165 20.4574 79.4517 20.4905C86.526 20.5567 91.5873 26.0163 91.0247 33.0311C90.5221 39.6156 88.0946 44.2149 79.4517 55.0348C78.4448 56.2922 71.3414 63.7702 68.1446 66.9135L66.043 68.9651L62.8463 65.7555C55.1801 58.1121 48.2834 49.9723 45.3531 45.1414C43.8732 42.6598 42.0676 38.4576 41.5348 36.2075C40.8541 33.2296 41.0612 29.2589 42.0084 27.1744C43.37 24.1303 46.7739 21.417 50.0595 20.6891C52.0722 20.2258 53.7001 20.292 55.9201 20.8545Z" fill="#3EAEB1"/>
<path d="M12.5276 44.9428C12.1723 45.2075 11.6396 46.2994 11.3436 47.3583C10.5444 50.1047 10.5444 61.3216 11.3436 66.1525C13.5339 79.2227 18.921 86.9984 33.4247 98.0826C39.3445 102.583 42.0085 104.634 42.482 105.031C42.8077 105.296 43.6069 106.554 44.2284 107.844C46.3596 112.145 49.5267 115.256 52.6642 116.149C55.7426 117.009 58.4657 116.116 60.6561 113.436C62.3137 111.418 63.2312 109.069 63.5864 105.858C64.7408 95.2699 58.4065 82.3324 46.33 70.7187C39.5222 64.2003 36.2662 62.4466 34.4607 64.4981C33.0991 66.0202 33.6615 68.9981 36.4142 74.8547L38.1902 78.6272L37.0654 77.8989C36.4438 77.5351 34.4903 76.2113 32.7143 74.9871L29.488 72.7702L28.5408 70.2885C28.008 68.9319 27.3272 67.1452 27.0016 66.3179C25.9952 63.8032 24.3673 59.6671 23.2129 56.7223C21.7626 52.9502 20.9337 51.362 18.9506 48.6487C16.1979 44.8435 14.1555 43.6855 12.5276 44.9428ZM16.6714 51.2296C18.2402 53.6782 19.2762 56.0605 22.6505 64.7628C25.0777 71.0165 27.0016 75.5496 27.3568 75.8143C28.008 76.3437 37.243 82.4981 41.0317 84.9471C43.4885 86.5349 44.5541 86.8327 45.2052 86.1051C45.6492 85.6086 45.6788 83.6562 45.2348 83.3584C43.9324 82.4321 36.651 67.9724 37.5094 67.9724C37.9237 67.9724 42.2453 71.7775 45.3237 74.8217C55.3874 84.7813 60.8041 95.5347 60.3009 104.535C60.0937 107.877 59.1465 110.193 57.341 111.649C54.1442 114.23 50.0891 111.781 46.8924 105.33C45.59 102.682 45.7084 102.782 37.1246 96.263C23.0945 85.6086 18.1515 79.4207 15.5467 69.2297C14.7771 66.2186 13.8891 58.9392 13.8891 55.5642C13.8891 52.2553 14.2443 48.0862 14.5403 48.1855C14.6883 48.2517 15.6355 49.6083 16.6714 51.2296Z" fill="#3EAEB1"/>
<path d="M115.297 46.1342C113.55 47.9541 111.123 51.4614 110.146 53.5791C109.82 54.307 108.548 57.5166 107.334 60.6931C106.12 63.8696 104.523 67.9395 103.812 69.7262L102.51 72.9689L98.5434 75.5829C96.3531 77.0388 94.4583 78.2296 94.37 78.2296C94.2511 78.2296 95.0507 76.3108 96.086 73.9615C97.7736 70.2225 98.0399 69.3953 98.188 67.3769C98.3062 65.3586 98.2471 64.9946 97.6846 64.3659C96.3531 62.877 93.9556 63.671 90.0478 66.9137C80.1616 75.1527 72.5845 85.5426 69.743 94.8071C66.9311 103.907 68.6182 112.477 73.7981 115.421C78.5638 118.167 83.9804 115.289 87.7393 108.075L89.1599 105.33L95.1098 100.796C100.675 96.5937 105.706 92.491 107.423 90.8034C107.837 90.4066 108.814 89.4803 109.613 88.719C111.626 86.7997 115.119 82.0684 116.628 79.1567C118.316 75.98 119.44 72.6049 120.388 68.138C121.098 64.7629 121.157 63.9026 121.187 56.7225C121.187 48.1195 121.069 46.9283 119.973 45.4725C119.381 44.6783 118.967 44.4798 118.079 44.4798C117.132 44.4798 116.687 44.7445 115.297 46.1342ZM118.079 54.5717C118.079 71.4137 113.905 80.8105 102.065 90.6714C99.4605 92.8218 98.01 93.9798 89.5451 100.432C86.6741 102.616 86.2597 103.079 85.46 104.8C83.1516 109.929 80.3688 112.642 77.3796 112.642C72.5253 112.642 70.3053 104.667 72.8213 96.3627C74.7748 89.9761 78.1194 84.4835 84.1577 77.7009C88.7754 72.5718 94.3992 67.5093 94.6363 68.3034C94.8435 68.9983 91.7055 75.4174 88.5091 80.8443C86.3779 84.4835 86.3188 84.6493 86.7332 85.4766C87.6503 87.2962 88.3909 86.9324 100.97 78.3294C102.391 77.3693 103.664 76.5755 103.782 76.5755C104.344 76.5424 105.381 75.1858 105.913 73.8623C106.209 73.1013 106.713 71.7777 107.038 70.9505C107.364 70.1233 108.281 67.8071 109.051 65.8218C112.485 56.921 113.521 54.4394 114.616 52.5864C116.451 49.5423 117.516 48.0864 117.812 48.3181C117.96 48.4173 118.079 51.2298 118.079 54.5717Z" fill="#3EAEB1"/>
</svg>
