<svg width="48" height="49" viewBox="0 0 48 49" fill="none" xmlns="http://www.w3.org/2000/svg">
<path d="M19.6778 5.06595C16.7762 5.55258 15.1677 6.74042 14.0559 9.22347C13.6144 10.2181 13.1413 12.3506 13.0072 13.9821L12.952 14.6046L12.0768 14.6261L11.2016 14.6476L11.178 15.2129L11.1543 15.7782L21.0262 15.7353C26.4588 15.7066 30.9215 15.6709 30.9374 15.6494C30.9611 15.6279 30.9846 15.3989 30.9846 15.127L30.9927 14.6476L30.1175 14.6261L29.2343 14.6046L29.1871 14.0179C28.9267 10.9766 28.3354 9.05887 27.2079 7.5991C26.2932 6.41842 25.1342 5.68134 23.5414 5.2735C22.8791 5.1089 22.6268 5.08029 21.3336 5.05883C20.5294 5.04449 19.7882 5.04449 19.6778 5.06595Z" fill="#3EAEB1"/>
<path d="M35.0846 13.6599C34.9269 13.9247 34.6113 14.4542 34.3828 14.8264C34.1542 15.1984 33.7283 15.9069 33.4364 16.4006C33.1448 16.8944 32.7505 17.5384 32.5772 17.8317C31.9699 18.8193 31.9936 18.7119 32.3168 19.0626C32.4667 19.2343 33.4286 20.1717 34.4536 21.1449L36.3145 22.9195V27.4205C36.3145 29.9036 36.2829 31.9287 36.2514 31.9287C36.2121 31.9287 35.9439 31.6638 35.6523 31.3419C33.807 29.2882 33.8938 29.3741 33.3262 29.2525C33.0424 29.1951 32.1041 28.9947 31.2368 28.816C30.3773 28.6299 29.652 28.5083 29.6204 28.5297C29.5967 28.5583 29.5571 29.9178 29.5336 31.5493L29.494 34.5262L28.4296 34.519H27.3652L27.3416 31.2631L27.3258 28.0074L26.7502 27.8858C26.1904 27.7568 26.1667 27.7425 25.3152 26.984C24.6844 26.4259 24.4242 26.2398 24.369 26.297C23.6515 27.0556 22.7684 27.9786 22.6737 28.0645C22.6107 28.1218 22.453 28.2863 22.3268 28.4224L22.0981 28.6728L21.1283 28.687L20.1664 28.7087L19.6223 28.1504C19.3306 27.8498 18.9363 27.4563 18.7549 27.2774C18.5815 27.0985 18.3134 26.8194 18.1636 26.6549C17.8797 26.3328 17.7615 26.2613 17.6117 26.3185C17.5565 26.3472 17.2253 26.6548 16.8784 27.0127C16.5315 27.3633 16.1924 27.678 16.1293 27.714C16.0663 27.7425 15.8139 27.7999 15.5773 27.8427C15.3408 27.8858 15.1043 27.95 15.0491 27.9786C14.9781 28.0217 14.9545 28.8303 14.9387 31.1774C14.9387 32.9089 14.8993 34.376 14.8677 34.4331C14.8125 34.519 14.6233 34.5333 13.7323 34.519L12.66 34.4976L12.6442 31.5137L12.6205 28.5297L12.3446 28.5511C12.1948 28.5583 11.4851 28.6941 10.7676 28.8517C10.0501 29.009 9.23797 29.1879 8.962 29.2453C8.686 29.3024 8.41004 29.3883 8.35484 29.4314C8.29964 29.4671 8.2208 29.6532 8.17349 29.8393C8.12618 30.0251 8.02368 30.3973 7.93695 30.6765C7.44018 32.3294 7.33768 32.6942 7.10117 33.5029C6.72269 34.8125 5.95786 37.446 5.42957 39.2848C5.35862 39.528 5.31917 39.7501 5.3428 39.764C5.36648 39.7855 13.8664 39.793 24.2428 39.7855L43.1032 39.764L42.4254 38.9772C42.0469 38.5405 41.5894 38.0326 41.408 37.8391C41.2349 37.6463 41.0454 37.4389 40.9981 37.3741C40.9349 37.2954 40.9272 36.5726 40.9745 34.8984C41.0058 33.5959 41.0374 30.4116 41.0374 27.8213L41.0454 23.0984L41.8971 22.3113C42.3621 21.8748 43.0243 21.2451 43.3636 20.9088C43.7105 20.5724 44.3414 19.9714 44.7672 19.5706C45.6109 18.7763 45.6265 18.7477 45.2956 18.3184C45.2087 18.2182 45.1458 18.118 45.1458 18.1037C45.1458 18.0822 44.7989 17.4955 44.3731 16.787C43.9469 16.0858 43.4581 15.2771 43.2927 15.0052C43.1272 14.7262 42.8512 14.2753 42.6858 14.0034C42.512 13.7244 42.3465 13.4524 42.3149 13.3952C42.244 13.2735 41.5894 13.1376 41.4003 13.2091C41.2978 13.2449 41.2818 13.5741 41.2818 15.5777V17.9033H38.8378H36.3934L36.3774 15.5562L36.3538 13.2163L35.8652 13.1948L35.3763 13.1733L35.0846 13.6599Z" fill="#3EAEB1"/>
<path d="M13.8428 17.4526C13.8428 17.5814 14.0635 18.3542 14.379 19.3704C15.0492 21.5243 16.2319 23.4492 17.6985 24.773C18.5658 25.5601 19.1256 25.8893 20.0718 26.1755C21.0416 26.4689 22.3742 26.2614 23.3835 25.6532C24.03 25.2667 25.3468 24.0359 25.8435 23.3418C26.3955 22.5833 26.9316 21.6602 27.2549 20.9375C27.6886 19.95 28.2643 18.1324 28.2958 17.653L28.3114 17.3667L21.0811 17.3453C14.2212 17.331 13.8428 17.3381 13.8428 17.4526Z" fill="#3EAEB1"/>
</svg>
