<svg width="132" height="137" viewBox="0 0 132 137" fill="none" xmlns="http://www.w3.org/2000/svg">
<path d="M54.1132 14.1637C46.1338 15.5243 41.7103 18.8454 38.653 25.7878C37.4387 28.5688 36.1377 34.5309 35.7691 39.0925L35.6173 40.8331L33.2104 40.8931L30.8036 40.9531L30.7386 42.5337L30.6735 44.1142L57.8211 43.9942C72.7608 43.9142 85.0333 43.8142 85.0771 43.7542C85.1423 43.6941 85.2068 43.0539 85.2068 42.2936L85.229 40.9531L82.8223 40.8931L80.3934 40.8331L80.2637 39.1926C79.5476 30.6895 77.9214 25.3276 74.8208 21.2462C72.3055 17.9451 69.1181 15.8843 64.738 14.744C62.9166 14.2838 62.2228 14.2038 58.6667 14.1438C56.455 14.1037 54.4168 14.1037 54.1132 14.1637Z" fill="#3EAEB1"/>
<path d="M96.4828 38.1921C96.0492 38.9324 95.1812 40.4129 94.5527 41.4533C93.9242 42.4936 92.753 44.4743 91.9503 45.8548C91.1483 47.2353 90.0639 49.0359 89.5873 49.8561C87.9174 52.6172 87.9826 52.317 88.8713 53.2974C89.2834 53.7775 91.9288 56.3984 94.7476 59.1194L99.8649 64.0812V76.6656C99.8649 83.6079 99.7782 89.27 99.6915 89.27C99.5833 89.27 98.8458 88.5295 98.0438 87.6293C92.9694 81.8873 93.2081 82.1275 91.6471 81.7875C90.8667 81.6271 88.2865 81.0669 85.9013 80.5673C83.5376 80.0469 81.543 79.707 81.4563 79.7668C81.3911 79.8466 81.2821 83.6478 81.2176 88.2094L81.1086 96.5324L78.1816 96.5124H75.2545L75.1894 87.409L75.1461 78.3064L73.5632 77.9664C72.0237 77.6057 71.9586 77.5658 69.6168 75.4451C67.8822 73.8846 67.1666 73.3644 67.0148 73.5244C65.0416 75.6452 62.6131 78.2258 62.3529 78.466C62.1795 78.6264 61.7458 79.0861 61.3988 79.4667L60.77 80.1667L58.103 80.2066L55.4576 80.2672L53.9615 78.7062C53.1592 77.8659 52.075 76.7656 51.5762 76.2654C51.0992 75.7652 50.362 74.985 49.95 74.5248C49.1694 73.6245 48.8442 73.4244 48.4322 73.5845C48.2804 73.6645 47.3697 74.5248 46.4157 75.5252C45.4616 76.5055 44.5291 77.3854 44.3557 77.486C44.1823 77.5658 43.4884 77.7262 42.8378 77.8459C42.1874 77.9664 41.5369 78.146 41.3851 78.2258C41.1899 78.3463 41.1249 80.6072 41.0816 87.1696C41.0816 92.0106 40.9731 96.1126 40.8864 96.2722C40.7346 96.5124 40.2142 96.5523 37.764 96.5124L34.815 96.4525L34.7716 88.1097L34.7066 79.7668L33.9477 79.8267C33.5357 79.8466 31.5842 80.2265 29.611 80.667C27.6378 81.1068 25.4045 81.6071 24.6456 81.7675C23.8866 81.9272 23.1277 82.1674 22.9759 82.2879C22.8241 82.3876 22.6073 82.908 22.4772 83.4283C22.3471 83.9478 22.0652 84.9885 21.8267 85.769C20.4606 90.3905 20.1787 91.4104 19.5283 93.6713C18.4875 97.3328 16.3842 104.696 14.9314 109.837C14.7363 110.517 14.6278 111.138 14.6928 111.177C14.7579 111.237 38.1326 111.258 66.6678 111.237L118.534 111.177L116.67 108.977C115.629 107.756 114.371 106.336 113.872 105.795C113.396 105.256 112.875 104.676 112.745 104.495C112.571 104.275 112.55 102.254 112.68 97.573C112.766 93.9315 112.853 85.0284 112.853 77.786L112.875 64.5814L115.217 62.3806C116.496 61.1601 118.317 59.3995 119.25 58.4592C120.204 57.5188 121.939 55.8383 123.11 54.7179C125.43 52.4971 125.473 52.4171 124.563 51.2167C124.324 50.9366 124.151 50.6564 124.151 50.6165C124.151 50.5564 123.197 48.9159 122.026 46.9352C120.854 44.9745 119.51 42.7136 119.055 41.9534C118.6 41.1732 117.841 39.9127 117.386 39.1524C116.908 38.3722 116.453 37.6119 116.366 37.4518C116.171 37.1117 114.371 36.7316 113.851 36.9317C113.569 37.0317 113.525 37.952 113.525 43.554V50.0562H106.804H100.082L100.038 43.494L99.9731 36.9517L98.6293 36.8917L97.2848 36.8316L96.4828 38.1921Z" fill="#3EAEB1"/>
<path d="M38.0674 48.7959C38.0674 49.1559 38.6745 51.3167 39.5419 54.1577C41.385 60.1799 44.6375 65.5617 48.6706 69.263C51.0558 71.4638 52.5953 72.3841 55.1973 73.1844C57.8643 74.0046 61.5288 73.4244 64.3043 71.7239C66.0823 70.6435 69.7034 67.2023 71.0695 65.2616C72.5873 63.1409 74.0618 60.56 74.9508 58.5392C76.1434 55.7783 77.7265 50.6965 77.8132 49.356L77.8562 48.5557L57.9728 48.4957C39.1082 48.4557 38.0674 48.4758 38.0674 48.7959Z" fill="#3EAEB1"/>
</svg>
