<svg width="132" height="137" viewBox="0 0 132 137" fill="none" xmlns="http://www.w3.org/2000/svg">
<path d="M20.615 24.7156C15.5012 25.8039 10.8596 29.754 8.9496 34.6917C8.53886 35.7396 8.10756 36.8279 7.98438 37.1101C7.86113 37.4325 7.82007 47.9326 7.84057 65.7282L7.90219 93.8425L8.57992 95.2131C9.83277 97.692 11.2088 99.0618 13.6938 100.271C14.9877 100.916 15.7887 101.017 20.6561 101.158L24.702 101.299L25.2771 102.63C27.1255 107.063 30.2061 109.945 34.7039 111.416C35.6075 111.699 36.4496 111.779 38.9141 111.759C42.2207 111.759 42.919 111.598 45.7326 110.207C48.382 108.877 51.0108 105.814 52.2841 102.549L52.8181 101.198H70.6654H88.5129L88.6357 101.762C88.882 102.972 89.8068 104.785 90.7922 106.076C93.5443 109.683 97.2203 111.638 101.595 111.84C105.908 112.041 109.522 110.691 112.583 107.768C114.164 106.257 114.842 105.229 115.725 103.053L116.485 101.218L117.923 100.776C121.372 99.7073 123.345 97.9137 124.577 94.7496L125.152 93.2377L125.234 80.7422C125.316 66.5746 125.172 63.0276 124.351 59.9844C123.118 55.4297 119.73 50.8951 115.52 48.2147C111.576 45.7156 109.379 45.0304 104.635 44.8692C101.862 44.7684 90.4845 44.587 87.3625 44.5669H86.1093L85.9658 41.2415C85.8223 37.4729 85.6373 36.3644 84.9389 34.6715C84.0763 32.5553 83.1109 31.2051 81.0165 29.1292C78.7572 26.9123 77.6482 26.207 74.7729 25.1187L72.8628 24.4133L47.3756 24.4335C27.0022 24.4335 21.6214 24.494 20.615 24.7156ZM73.0066 31.2656C75.4506 32.2933 77.5047 34.2684 78.8807 36.9287L79.4763 38.0976V66.4335V94.7496L66.2087 94.7089C54.6459 94.6483 52.9002 94.6084 52.7771 94.3459C52.6949 94.1847 52.3868 93.4994 52.1198 92.8348C50.4768 88.8848 46.9854 85.7605 42.8163 84.4912C40.9268 83.9064 36.6344 83.8864 34.8066 84.4505C32.0134 85.297 30.7606 86.0429 28.5015 88.2194C27.3925 89.2877 26.9407 89.9531 26.0164 91.7865C25.4003 93.0359 24.8253 94.2254 24.7637 94.4265C24.6404 94.7895 24.4145 94.8094 20.7588 94.7089C16.3843 94.5884 15.6243 94.3866 14.885 93.1372C14.4743 92.4319 14.4743 92.1295 14.4126 65.3452L14.3716 38.2387L15.0904 36.7473C15.8913 35.0745 17.9862 32.777 19.4649 31.9306C21.3338 30.8423 20.2248 30.8826 47.0675 30.8826C71.5484 30.8624 72.0619 30.8624 73.0066 31.2656ZM107.407 51.4594C109.03 51.9028 109.933 52.3059 111.494 53.3337C114.123 55.0467 116.793 58.1504 117.759 60.589C118.066 61.3951 118.703 64.2166 118.703 64.8213C118.703 65.0832 116.957 65.1236 102.375 65.1236H86.0479V58.0497V50.9959L96.1727 51.0765C104.367 51.1369 106.483 51.2176 107.407 51.4594ZM118.662 81.2864C118.6 90.8395 118.559 92.3306 118.272 92.9353C117.923 93.7013 116.978 94.4472 116.567 94.286C116.423 94.2254 116.013 93.4795 115.643 92.633C114.822 90.6983 114.308 89.8924 112.994 88.4819C111.412 86.7889 109.297 85.4582 106.894 84.6723C105.025 84.0476 104.614 83.987 102.375 83.987C100.075 83.987 99.7874 84.0276 97.7959 84.713C93.7699 86.1036 90.2788 89.3683 89.0056 92.8747C88.4507 94.4672 88.0816 94.7895 86.9719 94.7089L86.1507 94.6483L86.0893 82.4958L86.0479 70.3635H102.396H118.723L118.662 81.2864ZM40.4955 90.5371C42.0769 90.8801 43.0627 91.4243 44.3155 92.7136C45.9996 94.4265 46.2666 95.0719 46.3693 97.5707C46.472 100.05 46.246 100.835 45.0548 102.327C43.3503 104.484 41.4607 105.431 38.8525 105.431C36.0183 105.431 34.2109 104.584 32.6296 102.528C30.5758 99.8684 30.5142 96.3413 32.4448 93.5401C34.2109 91.0006 37.2505 89.8725 40.4955 90.5371ZM104.367 90.5371C105.908 90.8594 106.38 91.1418 107.9 92.633C109.03 93.7419 109.297 94.1648 109.667 95.273C110.221 97.0465 110.2 99.002 109.625 100.695C109.255 101.864 109.009 102.186 107.674 103.416C105.846 105.088 105.189 105.33 102.375 105.33C99.7467 105.33 98.8634 105.068 97.4666 103.798C95.8857 102.387 95.1666 101.218 94.756 99.4655C94.4483 98.0749 94.4483 97.8731 94.756 96.4825C95.2487 94.3459 96.8918 92.0889 98.6171 91.2025C100.178 90.3959 102.417 90.1342 104.367 90.5371Z" fill="#3EAEB1"/>
<path d="M44.2538 36.3241C36.1414 37.2108 29.0559 42.874 26.5092 50.5726C25.5645 53.3739 25.4002 54.7444 25.5234 58.1504C25.6055 60.851 25.7082 61.4153 26.2833 63.1888C27.1869 65.9498 27.5772 66.7963 28.8916 68.7512C30.9453 71.8145 34.293 74.7771 37.271 76.1072C39.1194 76.9537 39.2015 76.9738 40.9677 77.5382C47.1085 79.4322 54.4404 78.1022 59.8624 74.0919C63.21 71.613 66.0442 67.7636 67.3586 63.9143C68.3239 61.113 68.5909 57.2838 68.0775 53.7166C67.3175 48.4162 63.7235 42.8941 59.0203 39.7703C55.7549 37.6138 53.085 36.6868 48.9774 36.3039C46.5129 36.0822 46.3691 36.0822 44.2538 36.3241ZM48.464 41.5438C50.5999 41.7857 53.3314 42.5515 54.6047 43.277C55.57 43.8413 57.5827 45.4133 58.5274 46.3605C59.39 47.2271 60.992 49.4238 61.5465 50.5122C62.9635 53.2329 63.3127 58.1503 62.3474 61.778C61.8751 63.4911 61.1768 64.8817 59.924 66.5544C58.3631 68.5899 56.4326 70.2022 54.2762 71.2502C51.2776 72.7013 50.4562 72.8826 46.8209 72.8826C43.3707 72.8625 42.6724 72.7214 39.7355 71.3712C34.0876 68.7915 30.514 62.705 30.8632 56.3567C31.007 54.0189 31.4383 52.4066 32.6089 49.9881C34.1903 46.7636 38.1951 43.3577 41.7687 42.2492C44.5413 41.3826 45.8352 41.2415 48.464 41.5438Z" fill="#3EAEB1"/>
<path d="M45.6505 45.2119C45.2192 45.5142 44.9317 45.9173 44.8495 46.3002C44.788 46.663 44.7058 49.2829 44.7058 52.1447C44.6647 57.8482 44.7058 58.1303 45.8559 58.9566C46.4104 59.3598 46.6774 59.3799 52.2432 59.3799C57.3159 59.3799 58.0964 59.3396 58.5482 59.0373C59.6161 58.352 59.8216 56.6591 58.959 55.6112C58.5687 55.1477 58.466 55.1477 53.8656 55.0469L49.1831 54.9461L49.0803 50.4921C48.9776 45.6956 48.9571 45.6351 47.8275 45.0507C47.0265 44.6476 46.4104 44.6879 45.6505 45.2119Z" fill="#3EAEB1"/>
</svg>
